<?xml version="1.0" encoding="UTF-8"?>
<!DOCTYPE svg PUBLIC "-//W3C//DTD SVG 1.1//EN" "http://www.w3.org/Graphics/SVG/1.1/DTD/svg11.dtd">
<!-- Creator: CorelDRAW X8 -->
<svg xmlns="http://www.w3.org/2000/svg" xml:space="preserve" width="100.368mm" height="26.6866mm" version="1.1" style="shape-rendering:geometricPrecision; text-rendering:geometricPrecision; image-rendering:optimizeQuality; fill-rule:evenodd; clip-rule:evenodd"
viewBox="0 0 10522 2798"
 xmlns:xlink="http://www.w3.org/1999/xlink">
 <defs>
  <style type="text/css">
   <![CDATA[
    .fil1 {fill:#00AFEF;fill-rule:nonzero}
    .fil0 {fill:white;fill-rule:nonzero}
   ]]>
  </style>
 </defs>
 <g id="Contenido_x0020_de_x0020_PowerClip">
  <metadata id="CorelCorpID_0Corel-Layer"/>
  <g id="_1569148938208">
   <path class="fil0" d="M169 1674c0,125 53,177 178,177l839 0c123,0 177,-52 177,-177l0 -282 -310 0 0 112c0,37 -21,58 -57,58l-428 0c-36,0 -57,-21 -57,-58l0 -440 600 0 0 -290 -600 0 0 -485 417 0c37,0 57,21 57,58l0 112 311 0 0 -282c0,-122 -55,-177 -178,-177l-1118 0 0 289 169 0 0 1385zm1471 -311c0,446 367,501 552,501 60,0 102,-8 102,-8l0 -289c0,0 -23,5 -60,5 -91,0 -263,-31 -263,-250l0 -537 302 0 0 -264 -302 0 0 -362 -323 0 0 362 -180 0 0 264 172 0 0 578zm805 -177c0,378 274,696 715,696 331,0 534,-201 534,-201l-138 -229c0,0 -159,149 -373,149 -201,0 -373,-123 -399,-357l918 0c0,0 8,-84 8,-123 0,-352 -209,-631 -590,-631 -398,0 -675,287 -675,696zm350 -172c36,-167 156,-268 325,-268 136,0 246,109 251,268l-576 0zm1227 660c0,125 53,177 178,177l313 0 0 -279 -102 0c-37,0 -57,-21 -57,-57l0 -1338c0,-122 -55,-177 -178,-177l-315 0 0 282 104 0c37,0 57,18 57,57l0 1335z"/>
   <path class="fil0" d="M5521 1851l342 0 0 -748 592 0 0 -290 -592 0 0 -524 357 0c37,0 57,21 57,58l0 112 308 0 0 -282c0,-122 -52,-177 -177,-177l-1056 0 0 289 169 0 0 1562z"/>
   <path class="fil0" d="M6851 1851l328 0 0 -527c0,-78 11,-151 29,-216 60,-198 222,-279 363,-279 46,0 80,5 80,5l0 -326c0,0 -31,-5 -60,-5 -203,0 -362,151 -422,342l-5 0c0,0 5,-34 5,-84l0 -78c0,-112 -60,-162 -177,-162l-303 0 0 282 105 0c36,0 57,18 57,57l0 991z"/>
   <path class="fil0" d="M7743 1186c0,378 273,696 714,696 331,0 534,-201 534,-201l-138 -229c0,0 -159,149 -373,149 -200,0 -372,-123 -399,-357l918 0c0,0 8,-84 8,-123 0,-352 -209,-631 -589,-631 -399,0 -675,287 -675,696zm349 -172c36,-167 156,-268 326,-268 135,0 245,109 250,268l-576 0z"/>
   <path class="fil0" d="M9242 2397l-128 234c0,0 128,136 336,136 198,0 406,-100 480,-347l477 -1602c12,-41 36,-47 75,-47l40 0 0 -282 -225 0c-91,0 -146,34 -177,125l-227 665c-23,68 -44,177 -44,177l-5 0c0,0 -21,-109 -47,-177l-261 -665c-35,-90 -81,-125 -174,-125l-219 0 0 282 39 0c36,0 54,8 70,47l443 1090c-32,213 -40,544 -263,580 -108,17 -190,-91 -190,-91z"/>
   <g>
    <path class="fil1" d="M554 2788l80 0 -198 -549 -81 0 -198 549 80 0 54 -158 207 0 56 158zm-158 -474c0,0 12,50 21,78l61 174 -166 0 61 -174c9,-28 22,-78 22,-78l1 0z"/>
    <path class="fil1" d="M1281 2788l77 0 0 -218 117 0 116 218 88 0 -117 -213c-10,-18 -17,-25 -17,-25l0 -1c60,-20 99,-79 99,-149 0,-72 -36,-128 -92,-149 -21,-8 -45,-12 -103,-12l-168 0 0 549zm77 -285l0 -197 89 0c42,0 60,4 75,12 28,16 44,45 44,85 0,61 -38,100 -98,100l-110 0z"/>
    <path class="fil1" d="M2326 2510c0,161 116,288 281,288 137,0 213,-88 213,-88l-41 -55c0,0 -67,72 -170,72 -122,0 -204,-100 -204,-217 0,-117 80,-210 203,-210 95,0 159,59 159,59l38 -57c0,0 -68,-73 -200,-73 -159,0 -279,122 -279,281z"/>
    <polygon class="fil1" points="3467,2788 3544,2788 3544,2547 3829,2547 3829,2788 3906,2788 3906,2239 3829,2239 3829,2480 3544,2480 3544,2239 3467,2239 "/>
    <polygon class="fil1" points="4553,2788 4630,2788 4630,2239 4553,2239 "/>
    <polygon class="fil1" points="5612,2788 5689,2788 5689,2306 5877,2306 5877,2239 5424,2239 5424,2306 5612,2306 "/>
    <polygon class="fil1" points="6477,2788 6810,2788 6810,2721 6554,2721 6554,2545 6751,2545 6751,2478 6554,2478 6554,2306 6796,2306 6796,2239 6477,2239 "/>
    <path class="fil1" d="M7409 2510c0,161 116,288 281,288 138,0 213,-88 213,-88l-41 -55c0,0 -66,72 -169,72 -123,0 -204,-100 -204,-217 0,-117 80,-210 203,-210 95,0 159,59 159,59l38 -57c0,0 -68,-73 -200,-73 -160,0 -280,122 -280,281z"/>
    <polygon class="fil1" points="8692,2788 8769,2788 8769,2306 8957,2306 8957,2239 8503,2239 8503,2306 8692,2306 "/>
   </g>
  </g>
 </g>
</svg>
