<?xml version="1.0" encoding="UTF-8"?>
<!DOCTYPE svg PUBLIC "-//W3C//DTD SVG 1.1//EN" "http://www.w3.org/Graphics/SVG/1.1/DTD/svg11.dtd">
<!-- Creator: CorelDRAW X8 -->
<svg xmlns="http://www.w3.org/2000/svg" xml:space="preserve" width="42.4253mm" height="9.4639mm" version="1.1" style="shape-rendering:geometricPrecision; text-rendering:geometricPrecision; image-rendering:optimizeQuality; fill-rule:evenodd; clip-rule:evenodd"
viewBox="0 0 5760 1285"
 xmlns:xlink="http://www.w3.org/1999/xlink">
 <defs>
  <style type="text/css">
   <![CDATA[
    .fil0 {fill:#C8C8C8;fill-rule:nonzero}
    .fil1 {fill:white;fill-rule:nonzero}
   ]]>
  </style>
 </defs>
 <g id="Capa_x0020_1">
  <metadata id="CorelCorpID_0Corel-Layer"/>
  <g id="_2224022766912">
   <path class="fil0" d="M215 376l-41 265 -174 0 97 -641 539 0c23,0 46,5 67,16 26,12 39,29 39,50 0,3 0,6 0,8l-34 227c-3,22 -19,41 -47,56 -25,13 -49,19 -73,19l-373 0zm323 -123l21 -131 -305 0 -20 131 304 0zm804 297l-174 0 78 -371 -307 0 -79 371 -174 0 98 -458 538 0c21,0 42,3 64,10 29,9 43,21 43,37 0,2 -29,139 -87,411zm686 0l-655 0 97 -458 655 0 -18 87 -481 0 -21 94 307 0 -19 88 -307 0 -20 102 481 0 -19 87zm578 1l-439 0c-22,0 -42,-4 -60,-10 -24,-10 -37,-23 -37,-41 0,-2 1,-5 1,-8l85 -400 175 0 -79 371 306 0 80 -371 174 0 -85 404c-4,18 -21,31 -51,42 -24,8 -48,13 -70,13zm795 -1l-174 0 79 -371 -59 0 -79 371 -173 0 78 -371 -75 0 -79 371 -173 0 97 -458 539 0c21,0 42,3 63,10 29,9 43,21 43,37 0,2 -29,139 -87,411zm687 0l-174 0 40 -190 -308 0 -40 190 -175 0 87 -404c3,-18 21,-33 54,-43 24,-8 48,-12 73,-12l423 0c22,0 43,3 64,10 28,9 43,22 43,38 0,2 -29,139 -87,411zm-118 -277l21 -94 -305 0 -19 94 303 0zm883 -94l-233 0 -79 371 -174 0 79 -371 -248 0 18 -87 655 0 -18 87zm126 371l-174 0 98 -458 174 0 -98 458zm585 1l-439 0c-20,0 -40,-4 -60,-11 -26,-10 -39,-22 -39,-38 0,-2 26,-121 77,-356 3,-18 21,-32 54,-42 24,-8 49,-12 73,-12l423 0c22,0 43,3 64,10 28,9 43,21 43,37 0,2 -5,26 -15,72l-175 0 7 -32 -307 0 -60 284 306 0 8 -33 174 0 -14 66c-3,18 -20,31 -50,42 -25,8 -48,13 -70,13z"/>
   <path class="fil1" d="M1791 1285l-175 0 80 -520 -308 0 -79 520 -173 0 97 -642 539 0c23,0 45,6 67,16 26,13 39,30 39,50 0,3 0,6 -1,9l-86 567zm578 -91l-439 0c-20,0 -40,-4 -60,-11 -26,-9 -39,-22 -39,-38 0,-2 26,-121 77,-356 3,-17 21,-32 54,-42 24,-8 49,-12 73,-12l423 0c22,0 43,3 63,10 29,9 44,22 44,37 0,2 -25,122 -76,358 -3,17 -20,31 -50,41 -25,9 -48,13 -70,13zm-49 -88l61 -284 -305 0 -60 284 304 0zm788 -146c64,3 95,19 95,47 0,2 -13,64 -39,186l-174 0 40 -190 -308 0 -40 190 -173 0 97 -458 539 0c22,0 43,3 63,9 29,9 43,21 43,38 0,10 -4,31 -11,61 -5,22 -10,43 -15,65 -3,16 -19,29 -49,39 -23,8 -46,12 -68,13zm-61 -44l21 -94 -305 0 -20 94 304 0zm882 -94l-233 0 -79 371 -173 0 79 -371 -249 0 18 -87 655 0 -18 87zm608 371l-655 0 97 -458 655 0 -18 87 -481 0 -22 95 307 0 -18 87 -307 0 -21 102 481 0 -18 87z"/>
  </g>
 </g>
</svg>
