<?xml version="1.0" encoding="UTF-8"?>
<!DOCTYPE svg PUBLIC "-//W3C//DTD SVG 1.1//EN" "http://www.w3.org/Graphics/SVG/1.1/DTD/svg11.dtd">
<!-- Creator: CorelDRAW X8 -->
<svg xmlns="http://www.w3.org/2000/svg" xml:space="preserve" width="40.2276mm" height="27.6432mm" version="1.1" style="shape-rendering:geometricPrecision; text-rendering:geometricPrecision; image-rendering:optimizeQuality; fill-rule:evenodd; clip-rule:evenodd"
viewBox="0 0 627 431"
 xmlns:xlink="http://www.w3.org/1999/xlink">
 <defs>
  <style type="text/css">
   <![CDATA[
    .fil0 {fill:#31A3DD;fill-rule:nonzero}
   ]]>
  </style>
 </defs>
 <g id="Capa_x0020_1">
  <metadata id="CorelCorpID_0Corel-Layer"/>
  <g id="_1956203264048">
   <path class="fil0" d="M16 345c2,-4 5,-9 7,-13 15,-27 30,-54 44,-81 15,-29 30,-59 45,-88 8,-16 16,-31 25,-47 14,-26 32,-48 54,-68 16,-14 34,-26 53,-35 13,-5 26,-10 39,-11 5,-1 9,-1 14,-1 16,0 33,0 50,0 20,0 40,0 61,-1 53,0 105,0 158,0 18,0 37,0 55,0 1,0 3,0 4,0 2,1 3,3 2,5 0,2 -1,3 -2,5 -2,3 -5,6 -7,8 -10,11 -21,19 -32,28 -11,10 -23,20 -35,29 -20,15 -42,27 -66,36 -12,4 -24,7 -37,8 -5,1 -10,1 -16,1 -61,0 -122,0 -183,0 -16,0 -32,2 -48,7 -22,8 -40,21 -54,39 -3,5 -7,9 -10,14 0,1 -1,1 -1,2 1,0 2,-1 2,-1 2,-1 4,-2 5,-3 11,-7 24,-11 37,-14 17,-4 33,-5 50,-5 25,0 49,0 74,0 1,0 2,0 3,0 1,1 0,2 -1,2 -10,16 -23,29 -36,41 -13,11 -26,21 -41,28 -12,6 -25,11 -38,13 -8,2 -17,2 -26,2 -4,0 -9,-1 -14,-1 -18,1 -36,7 -52,15 -15,9 -28,19 -40,32 -15,15 -28,32 -39,50 -1,2 -2,3 -3,5 0,0 -1,-1 -1,-1z"/>
   <path class="fil0" d="M72 395c0,17 -14,36 -36,36 -20,0 -36,-16 -36,-36 0,-22 18,-36 36,-36 20,0 36,17 36,36z"/>
  </g>
 </g>
</svg>
