<svg id="Layer_1" data-name="Layer 1" xmlns="http://www.w3.org/2000/svg" viewBox="0 0 5 5"><defs><style>.cls-1{fill:#05a659;}</style></defs><title>favicon</title><path class="cls-1" d="M2.46,4.6l-.12,0c-.32,0-.64,0-1,0A.93.93,0,0,1,.57,4a1.25,1.25,0,0,1,.11-1.3.82.82,0,0,1,.74-.39c.69,0,1.37,0,2.06,0a1,1,0,0,1,1,.84,1.1,1.1,0,0,1,0,.18V4.49c-.11,0-.12,0-.12-.07,0-.35,0-.69,0-1a.87.87,0,0,0-.66-.86,1.51,1.51,0,0,0-.52-.06c-.5,0-1,0-1.5,0a2.6,2.6,0,0,0-.4,0,.81.81,0,0,0-.63.58A1.13,1.13,0,0,0,.78,4.15a.75.75,0,0,0,.64.34h1C2.48,4.51,2.47,4.51,2.46,4.6Z"/><path class="cls-1" d="M4.11,4.5c-.08,0-.1,0-.1-.09V3.5a1.12,1.12,0,0,0,0-.32.51.51,0,0,0-.44-.34,1.9,1.9,0,0,0-.41,0H1.49A.53.53,0,0,0,1,3a.71.71,0,0,0-.14.61.6.6,0,0,0,.66.54h.74c.12,0,.16,0,.19.1l-.06,0h-1a.65.65,0,0,1-.61-.53A.91.91,0,0,1,1,2.88a.66.66,0,0,1,.5-.19H3.3a.8.8,0,0,1,.64.23.64.64,0,0,1,.19.45v.89A1.94,1.94,0,0,1,4.11,4.5Z"/><path class="cls-1" d="M2.31,1.46V.72s0-.09.07-.09a6.43,6.43,0,0,1,1.24,0,1,1,0,0,1,.8.79,1.3,1.3,0,0,1-.16,1s-.07.06-.1,0,0-.07,0-.11A1.81,1.81,0,0,0,4.31,2,1,1,0,0,0,3.83.87.77.77,0,0,0,3.44.76l-.92,0c-.07,0-.09,0-.09.1V2.22l-.06.07s-.05,0-.06-.07V1.46Z"/><path class="cls-1" d="M3.94,2.37c-.1,0-.1-.05,0-.15a.81.81,0,0,0-.06-.94.47.47,0,0,0-.42-.19c-.22,0-.43,0-.66,0V2.28c-.1,0-.12,0-.12-.07,0-.37,0-.75,0-1.13,0-.11,0-.13.15-.12h.56a.64.64,0,0,1,.57.23,1,1,0,0,1,.2.68A.89.89,0,0,1,3.94,2.37Z"/><path class="cls-1" d="M.65,2.58a1.49,1.49,0,0,1-.15-.2A1.38,1.38,0,0,1,.6,1,.76.76,0,0,1,1.23.64c.24,0,.49,0,.73,0h.17a.24.24,0,0,1,.08.06s0,.05-.07.05c-.23,0-.47,0-.7,0a.83.83,0,0,0-.93.74,1.29,1.29,0,0,0,.15.94C.71,2.5.71,2.51.65,2.58Z"/><path class="cls-1" d="M2.22,1v.11h-1a.46.46,0,0,0-.4.27.87.87,0,0,0,.08.91s.06.08,0,.11a.19.19,0,0,1-.1,0,.8.8,0,0,1-.18-.41.9.9,0,0,1,.18-.76A.51.51,0,0,1,1.28,1c.29,0,.58,0,.87,0Z"/><path class="cls-1" d="M2.14.74l.07.3H1.12S.51,1.25.79,2.29c0,0,0,.26-.15.21S.27,1.74.53,1.1c0,0,.15-.45,1.16-.46Z"/><path class="cls-1" d="M2.31,2.22l.44.06V1.09h.86s.38.06.51.71l-.19.48s.07.25.23.23c0,0,.57-1-.12-1.55C4,1,3.93.58,2.44.7Z"/><path class="cls-1" d="M2.22,4.2l.19.07,0,.33L1.19,4.5S.37,4.32.52,3.25c0,0,0-.83,1-.87a6.6,6.6,0,0,1,2.65.3l.31.52L4.38,4.5H4.11l0-1.33-.35-.35-2.42,0s-.53,0-.5.82a.81.81,0,0,0,.58.67Z"/></svg>