<?xml version="1.0" encoding="UTF-8"?>
<!DOCTYPE svg PUBLIC "-//W3C//DTD SVG 1.1//EN" "http://www.w3.org/Graphics/SVG/1.1/DTD/svg11.dtd">
<!-- Creator: CorelDRAW X8 -->
<svg xmlns="http://www.w3.org/2000/svg" xml:space="preserve" width="67.4431mm" height="17.9321mm" version="1.1" style="shape-rendering:geometricPrecision; text-rendering:geometricPrecision; image-rendering:optimizeQuality; fill-rule:evenodd; clip-rule:evenodd"
viewBox="0 0 11023 2931"
 xmlns:xlink="http://www.w3.org/1999/xlink">
 <defs>
  <style type="text/css">
   <![CDATA[
    .fil1 {fill:black;fill-rule:nonzero}
    .fil0 {fill:white;fill-rule:nonzero}
   ]]>
  </style>
 </defs>
 <g id="Capa_x0020_1">
  <metadata id="CorelCorpID_0Corel-Layer"/>
  <g id="_2110620632368">
   <path class="fil0" d="M178 1753c0,131 54,186 185,186l880 0c128,0 185,-55 185,-186l0 -295 -325 0 0 118c0,38 -21,60 -60,60l-448 0c-38,0 -60,-22 -60,-60l0 -462 628 0 0 -303 -628 0 0 -508 437 0c39,0 60,22 60,60l0 118 325 0 0 -295c0,-129 -57,-186 -185,-186l-1172 0 0 303 178 0 0 1450zm1540 -325c0,467 385,525 579,525 63,0 106,-8 106,-8l0 -304c0,0 -24,6 -62,6 -96,0 -276,-33 -276,-262l0 -563 316 0 0 -276 -316 0 0 -379 -339 0 0 379 -188 0 0 276 180 0 0 606zm844 -185c0,396 287,729 748,729 347,0 560,-210 560,-210l-145 -241c0,0 -166,156 -390,156 -211,0 -391,-128 -418,-374l961 0c0,0 8,-88 8,-129 0,-368 -218,-661 -617,-661 -418,0 -707,301 -707,730zm366 -181c38,-174 164,-281 341,-281 142,0 257,115 262,281l-603 0zm1286 691c0,131 55,186 186,186l327 0 0 -292 -106 0c-38,0 -60,-22 -60,-60l0 -1401c0,-129 -57,-186 -186,-186l-330 0 0 295 109 0c38,0 60,19 60,60l0 1398z"/>
   <path class="fil0" d="M5785 1939l357 0 0 -784 620 0 0 -303 -620 0 0 -549 374 0c39,0 61,22 61,60l0 118 322 0 0 -295c0,-129 -55,-186 -186,-186l-1106 0 0 303 178 0 0 1636z"/>
   <path class="fil0" d="M7177 1939l344 0 0 -552c0,-82 11,-158 31,-226 62,-208 232,-293 379,-293 49,0 85,6 85,6l0 -341c0,0 -33,-6 -63,-6 -213,0 -380,159 -442,358l-6 0c0,0 6,-36 6,-88l0 -81c0,-118 -63,-170 -186,-170l-317 0 0 295 109 0c39,0 60,19 60,60l0 1038z"/>
   <path class="fil0" d="M8111 1243c0,396 287,729 749,729 347,0 560,-210 560,-210l-145 -241c0,0 -167,156 -391,156 -210,0 -390,-128 -418,-374l962 0c0,0 8,-88 8,-129 0,-368 -219,-661 -617,-661 -418,0 -708,301 -708,730zm366 -181c39,-174 164,-281 342,-281 142,0 256,115 262,281l-604 0z"/>
   <path class="fil0" d="M9682 2511l-134 246c0,0 134,142 352,142 208,0 426,-105 503,-364l500 -1678c12,-43 38,-49 79,-49l41 0 0 -295 -235 0c-96,0 -153,35 -186,131l-237 696c-25,71 -47,186 -47,186l-5 0c0,0 -22,-115 -49,-186l-274 -696c-37,-95 -84,-131 -183,-131l-229 0 0 295 41 0c38,0 57,8 74,49l464 1141c-33,224 -42,571 -276,608 -113,19 -199,-95 -199,-95z"/>
   <g>
    <path class="fil1" d="M580 2921l84 0 -207 -576 -85 0 -207 576 83 0 57 -165 217 0 58 165zm-165 -496c0,0 12,52 22,81l64 183 -175 0 65 -183c10,-29 23,-81 23,-81l1 0z"/>
    <path class="fil1" d="M1342 2921l81 0 0 -229 123 0 121 229 91 0 -122 -223c-10,-19 -17,-26 -17,-26l0 -2c63,-20 104,-82 104,-156 0,-76 -39,-133 -97,-155 -22,-9 -48,-14 -108,-14l-176 0 0 576zm81 -299l0 -206 93 0c44,0 63,4 79,13 29,16 45,46 45,88 0,65 -39,105 -102,105l-115 0z"/>
    <path class="fil1" d="M2436 2630c0,169 122,301 295,301 144,0 223,-92 223,-92l-43 -57c0,0 -69,75 -178,75 -128,0 -213,-105 -213,-228 0,-122 84,-220 212,-220 100,0 167,63 167,63l40 -61c0,0 -71,-75 -210,-75 -167,0 -293,127 -293,294z"/>
    <polygon class="fil1" points="3632,2921 3713,2921 3713,2668 4011,2668 4011,2921 4092,2921 4092,2345 4011,2345 4011,2598 3713,2598 3713,2345 3632,2345 "/>
    <polygon class="fil1" points="4770,2921 4851,2921 4851,2345 4770,2345 "/>
    <polygon class="fil1" points="5879,2921 5960,2921 5960,2416 6157,2416 6157,2345 5682,2345 5682,2416 5879,2416 "/>
    <polygon class="fil1" points="6786,2921 7134,2921 7134,2851 6866,2851 6866,2666 7073,2666 7073,2596 6866,2596 6866,2416 7120,2416 7120,2345 6786,2345 "/>
    <path class="fil1" d="M7762 2630c0,169 122,301 295,301 144,0 223,-92 223,-92l-43 -57c0,0 -70,75 -178,75 -128,0 -214,-105 -214,-228 0,-122 84,-220 213,-220 100,0 166,63 166,63l40 -61c0,0 -71,-75 -209,-75 -167,0 -293,127 -293,294z"/>
    <polygon class="fil1" points="9106,2921 9186,2921 9186,2416 9384,2416 9384,2345 8908,2345 8908,2416 9106,2416 "/>
   </g>
  </g>
 </g>
</svg>
