<?xml version="1.0" encoding="UTF-8"?>
<!DOCTYPE svg PUBLIC "-//W3C//DTD SVG 1.1//EN" "http://www.w3.org/Graphics/SVG/1.1/DTD/svg11.dtd">
<!-- Creator: CorelDRAW X8 -->
<svg xmlns="http://www.w3.org/2000/svg" xml:space="preserve" width="76.6557mm" height="20.1575mm" version="1.1" style="shape-rendering:geometricPrecision; text-rendering:geometricPrecision; image-rendering:optimizeQuality; fill-rule:evenodd; clip-rule:evenodd"
viewBox="0 0 1396 367"
 xmlns:xlink="http://www.w3.org/1999/xlink">
 <defs>
  <style type="text/css">
   <![CDATA[
    .fil0 {fill:white}
    .fil1 {fill:black;fill-rule:nonzero}
   ]]>
  </style>
 </defs>
 <g id="Capa_x0020_1">
  <metadata id="CorelCorpID_0Corel-Layer"/>
  <g id="_2110281222992">
   <path class="fil0" d="M22 222c0,17 7,24 24,24l111 0c17,0 24,-7 24,-24l0 -37 -41 0 0 15c0,4 -3,7 -8,7l-57 0c-4,0 -7,-3 -7,-7l0 -59 79 0 0 -38 -79 0 0 -65 55 0c5,0 8,3 8,8l0 15 41 0 0 -37c0,-17 -7,-24 -24,-24l-148 0 0 38 22 0 0 184zm711 24l45 0 0 -100 79 0 0 -38 -79 0 0 -70 47 0c5,0 8,3 8,8l0 15 41 0 0 -37c0,-17 -7,-24 -24,-24l-140 0 0 38 23 0 0 208zm493 72l-17 31c0,0 17,18 45,18 26,0 54,-13 64,-46l63 -212c2,-6 5,-7 10,-7l5 0 0 -37 -30 0c-12,0 -19,4 -23,17l-30 88c-3,9 -6,23 -6,23l-1 0c0,0 -2,-14 -6,-23l-35 -88c-4,-12 -10,-17 -23,-17l-29 0 0 37 5 0c5,0 8,1 10,7l59 144c-5,28 -6,72 -35,77 -15,2 -26,-12 -26,-12zm-196 -161c0,51 36,93 95,93 44,0 71,-27 71,-27l-18 -30c0,0 -22,19 -50,19 -27,0 -49,-16 -53,-47l122 0c0,0 1,-11 1,-16 0,-47 -28,-84 -78,-84 -53,0 -90,38 -90,92zm47 -22c4,-23 20,-36 43,-36 18,0 32,14 33,36l-76 0zm-167 111l44 0 0 -70c0,-11 1,-20 4,-29 8,-26 29,-37 48,-37 6,0 11,1 11,1l0 -44c0,0 -4,0 -8,0 -27,0 -48,20 -56,45l-1 0c0,0 1,-4 1,-11l0 -10c0,-15 -8,-22 -24,-22l-40 0 0 38 14 0c5,0 7,2 7,7l0 132zm-376 -24c0,17 7,24 23,24l42 0 0 -37 -14 0c-5,0 -7,-3 -7,-8l0 -177c0,-17 -8,-24 -24,-24l-42 0 0 37 14 0c5,0 8,3 8,8l0 177zm-210 -65c0,51 37,93 95,93 44,0 71,-27 71,-27l-18 -30c0,0 -21,19 -50,19 -26,0 -49,-16 -53,-47l122 0c0,0 1,-11 1,-16 0,-47 -27,-84 -78,-84 -53,0 -90,38 -90,92zm47 -22c5,-23 21,-36 43,-36 18,0 33,14 33,36l-76 0zm-153 46c0,59 48,66 73,66 8,0 13,-1 13,-1l0 -38c0,0 -3,1 -8,1 -12,0 -34,-5 -34,-34l0 -71 40 0 0 -35 -40 0 0 -48 -43 0 0 48 -24 0 0 35 23 0 0 77z"/>
   <path class="fil1" d="M79 365l11 0 -27 -76 -12 0 -27 76 11 0 7 -22 29 0 8 22zm1077 0l11 0 -28 -76 -11 0 -27 76 11 0 7 -22 29 0 8 22zm-22 -66c0,0 2,7 3,11l8 24 -23 0 9 -24c1,-4 3,-11 3,-11l0 0zm-133 66l11 0 0 -67 26 0 0 -9 -63 0 0 9 26 0 0 67zm-158 -38c0,22 16,40 39,40 20,0 30,-13 30,-13l-6 -7c0,0 -9,10 -23,10 -17,0 -29,-14 -29,-31 0,-16 12,-29 29,-29 13,0 22,8 22,8l5 -8c0,0 -9,-10 -28,-10 -22,0 -39,17 -39,40zm-109 38l47 0 0 -9 -36 0 0 -25 27 0 0 -9 -27 0 0 -24 34 0 0 -9 -45 0 0 76zm-99 0l10 0 0 -67 27 0 0 -9 -64 0 0 9 27 0 0 67zm-100 0l11 0 0 -76 -11 0 0 76zm-123 -27c0,17 12,29 30,29 18,0 30,-12 30,-29l0 -49 -10 0 0 49c0,12 -8,19 -20,19 -12,0 -19,-7 -19,-19l0 -49 -11 0 0 49zm-141 -11c0,22 17,40 39,40 9,0 18,-3 24,-9l9 9 6 -7 -9 -8c6,-7 9,-16 9,-25 0,-23 -17,-40 -39,-40 -22,0 -39,17 -39,40zm11 0c0,-17 12,-30 28,-30 16,0 28,13 28,30 0,6 -2,13 -5,17l-9 -8 -6 6 9 9c-5,4 -11,6 -17,6 -16,0 -28,-13 -28,-30zm-129 38l10 0 0 -30 17 0 16 30 12 0 -16 -29c-2,-3 -2,-4 -2,-4l0 0c8,-3 13,-11 13,-21 0,-10 -5,-18 -13,-21 -2,-1 -6,-1 -14,-1l-23 0 0 76zm10 -40l0 -27 13 0c6,0 8,1 10,2 4,2 6,6 6,12 0,8 -5,13 -13,13l-16 0zm-106 -26c0,0 2,7 3,11l8 24 -23 0 9 -24c1,-4 3,-11 3,-11l0 0z"/>
  </g>
 </g>
</svg>
