<?xml version="1.0" encoding="UTF-8"?>
<!DOCTYPE svg PUBLIC "-//W3C//DTD SVG 1.1//EN" "http://www.w3.org/Graphics/SVG/1.1/DTD/svg11.dtd">
<!-- Creator: CorelDRAW X8 -->
<svg xmlns="http://www.w3.org/2000/svg" xml:space="preserve" width="4.8289mm" height="4.8289mm" version="1.1" style="shape-rendering:geometricPrecision; text-rendering:geometricPrecision; image-rendering:optimizeQuality; fill-rule:evenodd; clip-rule:evenodd"
viewBox="0 0 17 17"
 xmlns:xlink="http://www.w3.org/1999/xlink">
 <defs>
  <style type="text/css">
   <![CDATA[
    .fil0 {fill:#990099}
   ]]>
  </style>
 </defs>
 <g id="Capa_x0020_1">
  <metadata id="CorelCorpID_0Corel-Layer"/>
  <path class="fil0" d="M17 8c0,5 -4,9 -9,9 -4,0 -8,-4 -8,-9 0,-4 4,-8 8,-8 5,0 9,4 9,8zm-6 -2c0,0 1,0 1,0 0,0 0,0 0,0 0,0 0,0 0,0 -1,0 -1,0 -2,0 0,0 0,0 0,0 0,0 0,0 0,0 0,0 0,0 0,0 1,0 1,0 1,0zm-3 2c0,0 0,0 -1,0 0,0 0,0 0,0 1,0 1,-1 1,-1 0,-1 0,-1 -1,-2 0,0 0,0 0,0 -1,0 -2,0 -3,0 -1,0 -1,0 -1,0 0,2 0,4 0,6 0,0 0,0 1,0 0,0 1,0 2,0 0,0 1,0 1,0 1,0 1,-1 1,-1 1,-1 0,-1 0,-2zm-3 -2l0 0c0,0 1,0 1,0 1,0 1,1 1,1 0,1 -1,1 -1,1 0,0 0,0 0,0 -1,0 -1,0 -1,0 0,0 0,0 0,0 0,-1 0,-1 0,-2 0,0 0,0 0,0zm1 4l0 0c0,0 0,0 0,0 0,0 -1,0 -1,0 0,0 0,0 0,0 0,0 0,-1 0,-1 0,0 0,0 0,0 0,0 0,0 0,0 1,0 1,0 1,0 1,0 1,0 1,0 0,1 0,1 -1,1zm4 -1c1,0 1,0 2,0 0,0 1,0 1,0 0,0 0,0 0,0 0,0 0,0 0,0 0,-1 0,-2 -1,-2 0,0 -1,0 -1,0 -1,0 -2,0 -2,1 0,1 0,2 0,2 0,1 1,1 1,1 1,0 1,1 2,0 0,0 1,0 1,-1 0,0 0,0 0,0 0,0 -1,0 -1,0 0,0 0,0 0,0 0,0 -1,1 -1,0 -1,0 -1,0 -1,0 0,-1 0,-1 0,-1zm0 -1l0 0c0,0 1,0 1,0 1,0 1,0 1,1 0,0 0,0 0,0 0,0 -1,0 -1,0 0,0 0,0 -1,0 0,0 0,0 0,-1z"/>
 </g>
</svg>
