<?xml version="1.0" encoding="UTF-8"?>
<!DOCTYPE svg PUBLIC "-//W3C//DTD SVG 1.1//EN" "http://www.w3.org/Graphics/SVG/1.1/DTD/svg11.dtd">
<!-- Creator: CorelDRAW X8 -->
<svg xmlns="http://www.w3.org/2000/svg" xml:space="preserve" width="4.8289mm" height="4.8289mm" version="1.1" style="shape-rendering:geometricPrecision; text-rendering:geometricPrecision; image-rendering:optimizeQuality; fill-rule:evenodd; clip-rule:evenodd"
viewBox="0 0 15 15"
 xmlns:xlink="http://www.w3.org/1999/xlink">
 <defs>
  <style type="text/css">
   <![CDATA[
    .fil0 {fill:#990099}
   ]]>
  </style>
 </defs>
 <g id="Capa_x0020_1">
  <metadata id="CorelCorpID_0Corel-Layer"/>
  <path class="fil0" d="M15 8c0,4 -3,7 -7,7 -5,0 -8,-3 -8,-7 0,-5 3,-8 8,-8 4,0 7,3 7,8zm-7 -1c0,0 0,0 0,0 1,-1 1,-1 2,-1 1,0 2,1 2,2 0,0 0,0 0,1 0,1 0,2 0,3 0,0 0,0 0,0 -1,0 -1,0 -2,0 0,0 0,0 0,0 0,-1 0,-2 0,-3 0,0 0,-1 0,-1 0,-1 -1,-1 -1,0 -1,0 -1,0 -1,1 0,1 0,2 0,2 0,1 0,1 0,1 0,0 0,0 0,0 -1,0 -1,0 -2,0 0,0 0,0 0,0 0,-1 0,-2 0,-3 0,-1 0,-2 0,-3 0,0 0,0 0,0 1,0 1,0 2,0 0,0 0,0 0,0 0,0 0,1 0,1zm-3 2c0,1 0,2 0,3 0,0 0,0 0,0 -1,0 -1,0 -2,0 0,0 0,0 0,0 0,-2 0,-4 0,-6 0,0 0,0 0,0 1,0 1,0 2,0 0,0 0,0 0,0 0,1 0,2 0,3zm-1 -6c1,0 1,1 1,2 0,0 0,0 -1,0 -1,0 -1,0 -1,-1 0,0 1,-1 1,-1z"/>
 </g>
</svg>
