<?xml version="1.0" encoding="UTF-8"?>
<!DOCTYPE svg PUBLIC "-//W3C//DTD SVG 1.1//EN" "http://www.w3.org/Graphics/SVG/1.1/DTD/svg11.dtd">
<!-- Creator: CorelDRAW X8 -->
<svg xmlns="http://www.w3.org/2000/svg" xml:space="preserve" width="5.6375mm" height="5.6376mm" version="1.1" style="shape-rendering:geometricPrecision; text-rendering:geometricPrecision; image-rendering:optimizeQuality; fill-rule:evenodd; clip-rule:evenodd"
viewBox="0 0 14 14"
 xmlns:xlink="http://www.w3.org/1999/xlink">
 <defs>
  <style type="text/css">
   <![CDATA[
    .fil1 {fill:#31A3DD;fill-rule:nonzero}
    .fil0 {fill:white;fill-rule:nonzero}
   ]]>
  </style>
 </defs>
 <g id="Capa_x0020_1">
  <metadata id="CorelCorpID_0Corel-Layer"/>
  <g id="_1920496960464">
   <path class="fil0" d="M0 10l0 -6c0,-2 2,-4 4,-4l6 0c2,0 4,2 4,4l0 6c0,2 -2,4 -4,4l-6 0c-2,0 -4,-2 -4,-4zm5 -7c0,0 0,1 0,1 0,1 0,1 0,1 -1,0 -1,0 -1,-1 0,0 0,-1 1,-1zm1 3l1 0 0 0 0 0c1,0 1,0 2,0 1,0 1,0 1,2l0 2 -1 0 0 -2c0,-1 0,-1 -1,-1 0,0 0,0 0,1l0 2 -2 0 0 -4zm-2 0l1 0 0 4 -1 0 0 -4z"/>
   <path class="fil1" d="M5 3c0,0 0,1 0,1 0,1 0,1 0,1 -1,0 -1,0 -1,-1 0,0 0,-1 1,-1zm1 3l1 0 0 0 0 0c1,0 1,0 2,0 1,0 1,0 1,2l0 2 -1 0 0 -2c0,-1 0,-1 -1,-1 0,0 0,0 0,1l0 2 -2 0 0 -4zm-2 0l1 0 0 4 -1 0 0 -4z"/>
  </g>
 </g>
</svg>
