<?xml version="1.0" encoding="UTF-8"?>
<!DOCTYPE svg PUBLIC "-//W3C//DTD SVG 1.1//EN" "http://www.w3.org/Graphics/SVG/1.1/DTD/svg11.dtd">
<!-- Creator: CorelDRAW X8 -->
<svg xmlns="http://www.w3.org/2000/svg" xml:space="preserve" width="5.6376mm" height="5.6376mm" version="1.1" style="shape-rendering:geometricPrecision; text-rendering:geometricPrecision; image-rendering:optimizeQuality; fill-rule:evenodd; clip-rule:evenodd"
viewBox="0 0 15 15"
 xmlns:xlink="http://www.w3.org/1999/xlink">
 <defs>
  <style type="text/css">
   <![CDATA[
    .fil1 {fill:#31A3DD}
    .fil0 {fill:white;fill-rule:nonzero}
   ]]>
  </style>
 </defs>
 <g id="Capa_x0020_1">
  <metadata id="CorelCorpID_0Corel-Layer"/>
  <g id="_1920496959344">
   <path class="fil0" d="M0 11l0 -7c0,-2 2,-4 4,-4l7 0c2,0 4,2 4,4l0 7c0,2 -2,4 -4,4l-7 0c-2,0 -4,-2 -4,-4z"/>
   <path class="fil1" d="M7 9l0 0c-1,1 -1,2 -1,2 0,0 0,1 0,1l-1 0c0,0 0,0 0,0 0,0 0,-1 0,-1 0,-1 0,-1 1,-4l0 0c0,0 0,-1 0,-1 0,-1 1,-1 2,0 0,0 -1,1 -1,2 0,0 1,1 2,0 0,0 1,-1 1,-2 -1,-2 -2,-2 -4,-2 -1,1 -1,3 -1,3 0,1 0,1 0,1 0,0 0,0 0,0 0,0 0,0 0,0 0,0 0,0 -1,0 0,-1 0,-2 0,-3 1,-1 3,-2 4,-2 2,0 3,1 3,3 0,0 0,2 -1,3 -1,1 -2,1 -3,0 0,0 0,0 0,0z"/>
  </g>
 </g>
</svg>
