<?xml version="1.0" encoding="UTF-8"?>
<!DOCTYPE svg PUBLIC "-//W3C//DTD SVG 1.1//EN" "http://www.w3.org/Graphics/SVG/1.1/DTD/svg11.dtd">
<!-- Creator: CorelDRAW X8 -->
<svg xmlns="http://www.w3.org/2000/svg" xml:space="preserve" width="5.6376mm" height="5.6376mm" version="1.1" style="shape-rendering:geometricPrecision; text-rendering:geometricPrecision; image-rendering:optimizeQuality; fill-rule:evenodd; clip-rule:evenodd"
viewBox="0 0 13 13"
 xmlns:xlink="http://www.w3.org/1999/xlink">
 <defs>
  <style type="text/css">
   <![CDATA[
    .fil1 {fill:#31A3DD;fill-rule:nonzero}
    .fil0 {fill:white;fill-rule:nonzero}
   ]]>
  </style>
 </defs>
 <g id="Capa_x0020_1">
  <metadata id="CorelCorpID_0Corel-Layer"/>
  <g id="_1920307476592">
   <path class="fil0" d="M0 10l0 -7c0,-1 2,-3 3,-3l7 0c1,0 3,2 3,3l0 7c0,1 -2,3 -3,3l-7 0c-1,0 -3,-2 -3,-3zm8 -3c0,0 0,0 0,0 0,0 -1,0 -1,0 0,0 0,0 0,0 0,0 -1,0 -1,-1 0,0 0,0 0,0 0,0 0,0 0,0 0,-1 0,-1 0,-1 0,0 0,0 0,0 0,0 -1,0 -1,0 0,0 0,0 0,1 0,0 0,0 0,0 0,0 0,0 0,0 0,0 0,1 0,1 1,0 1,0 2,1 0,0 0,0 0,0 0,0 1,0 1,0 0,0 0,0 1,0 0,-1 0,-1 0,-1 0,0 -1,0 -1,0zm-3 2l0 0c1,0 1,0 2,0 1,0 3,-1 3,-3 0,-1 -2,-3 -3,-3 -2,0 -3,2 -3,3 0,1 0,1 0,2l0 0 0 1 1 0zm-2 1l1 -2c-1,0 -1,-1 -1,-2 0,-2 2,-3 4,-3 2,0 4,1 4,3 0,2 -2,4 -4,4 -1,0 -1,0 -2,0l-2 0z"/>
   <path class="fil1" d="M5 9l0 0c1,0 1,0 2,0 1,0 3,-1 3,-3 0,-1 -2,-3 -3,-3 -2,0 -3,2 -3,3 0,1 0,1 0,2l0 0 0 1 1 0zm-2 1l1 -2c-1,0 -1,-1 -1,-2 0,-2 2,-3 4,-3 2,0 4,1 4,3 0,2 -2,4 -4,4 -1,0 -1,0 -2,0l-2 0z"/>
  </g>
 </g>
</svg>
