<?xml version="1.0" encoding="UTF-8"?>
<!DOCTYPE svg PUBLIC "-//W3C//DTD SVG 1.1//EN" "http://www.w3.org/Graphics/SVG/1.1/DTD/svg11.dtd">
<!-- Creator: CorelDRAW X8 -->
<svg xmlns="http://www.w3.org/2000/svg" xml:space="preserve" width="4.8289mm" height="4.8289mm" version="1.1" style="shape-rendering:geometricPrecision; text-rendering:geometricPrecision; image-rendering:optimizeQuality; fill-rule:evenodd; clip-rule:evenodd"
viewBox="0 0 101 101"
 xmlns:xlink="http://www.w3.org/1999/xlink">
 <defs>
  <style type="text/css">
   <![CDATA[
    .fil0 {fill:white}
   ]]>
  </style>
 </defs>
 <g id="Capa_x0020_1">
  <metadata id="CorelCorpID_0Corel-Layer"/>
  <path class="fil0" d="M101 50c0,28 -23,51 -51,51 -27,0 -50,-23 -50,-51 0,-27 23,-50 50,-50 28,0 51,23 51,50zm-34 -16c2,0 5,0 7,0 0,0 1,0 1,1 0,3 0,3 -3,3 -4,0 -8,0 -12,0 0,0 -1,0 0,-1 0,-1 -1,-2 0,-3 0,0 2,0 2,0 2,0 4,0 5,0zm-20 15c-1,0 -1,0 -2,0 0,-1 0,-1 0,-1 4,-2 5,-4 5,-8 -1,-4 -3,-6 -6,-8 -1,0 -3,0 -4,0 -6,0 -12,0 -19,0 0,0 0,0 0,0 0,12 0,24 0,36 0,0 0,1 1,1 5,0 10,0 15,0 2,0 5,-1 7,-1 4,-2 7,-4 7,-9 1,-4 -1,-7 -4,-10zm-18 -11l0 0c3,0 6,0 9,0 3,0 5,4 3,7 -1,1 -2,1 -3,1 -1,0 -3,0 -4,0 -2,0 -3,0 -5,0 0,0 0,0 0,0 0,-3 0,-5 0,-7 0,-1 0,-1 0,-1zm10 24l0 0c0,0 -1,0 -1,0 -3,0 -6,0 -9,0 0,0 -1,0 -1,0 0,-3 0,-6 0,-9 0,0 1,-1 1,-1 2,0 3,0 4,0 3,1 4,0 6,1 3,0 4,2 4,4 0,3 -1,5 -4,5zm23 -5c3,0 6,0 9,0 3,0 5,0 8,0 1,0 2,0 1,-1 0,-1 0,-2 0,-4 0,-4 -2,-7 -6,-9 -2,-2 -5,-2 -8,-2 -5,1 -9,3 -11,8 -2,4 -2,9 0,13 1,3 3,5 5,6 4,1 7,2 11,1 4,-1 7,-4 9,-8 0,0 0,-1 -1,-1 -2,0 -3,0 -5,0 -1,0 -1,0 -1,1 -1,2 -4,3 -7,3 -3,-1 -4,-3 -5,-6 0,-1 1,-1 1,-1zm-1 -6l0 0c1,-3 5,-5 9,-4 1,1 3,3 3,5 0,0 0,0 -1,0 -1,0 -3,0 -5,0 -1,0 -3,0 -5,0 -1,0 -1,0 -1,-1z"/>
 </g>
</svg>
