<?xml version="1.0" encoding="UTF-8"?>
<!DOCTYPE svg PUBLIC "-//W3C//DTD SVG 1.1//EN" "http://www.w3.org/Graphics/SVG/1.1/DTD/svg11.dtd">
<!-- Creator: CorelDRAW X8 -->
<svg xmlns="http://www.w3.org/2000/svg" xml:space="preserve" width="4.829mm" height="4.829mm" version="1.1" style="shape-rendering:geometricPrecision; text-rendering:geometricPrecision; image-rendering:optimizeQuality; fill-rule:evenodd; clip-rule:evenodd"
viewBox="0 0 30 30"
 xmlns:xlink="http://www.w3.org/1999/xlink">
 <defs>
  <style type="text/css">
   <![CDATA[
    .fil0 {fill:white}
   ]]>
  </style>
 </defs>
 <g id="Capa_x0020_1">
  <metadata id="CorelCorpID_0Corel-Layer"/>
  <path class="fil0" d="M0 15c0,1 0,2 0,4 1,0 1,2 1,2 1,2 1,2 2,3 0,0 0,0 1,1 0,1 2,2 3,3 1,0 1,0 2,1 1,0 3,1 6,1l0 0c3,0 6,-1 9,-3 0,0 0,0 0,0 1,-1 2,-2 3,-3 1,-1 1,-1 2,-3 0,0 0,-1 0,-1 1,-1 1,-3 1,-5 0,-1 0,-2 -1,-4 0,-3 -2,-6 -4,-7 -1,-1 -2,-2 -3,-2 0,0 0,0 -1,-1 -1,0 -4,-1 -6,-1 -2,0 -3,0 -5,1 -2,0 -3,1 -5,3 0,0 -1,1 -2,2 -1,2 -2,3 -3,5 0,1 0,2 0,4zm12 -4l-2 0 0 4 2 0 0 9 4 0 0 -9 2 0 1 -4 -3 0c0,-1 0,-2 0,-3 1,0 2,0 3,0l0 -3c-3,0 -6,0 -7,3 0,1 0,2 0,3z"/>
 </g>
</svg>
