<?xml version="1.0" encoding="UTF-8"?>
<!DOCTYPE svg PUBLIC "-//W3C//DTD SVG 1.1//EN" "http://www.w3.org/Graphics/SVG/1.1/DTD/svg11.dtd">
<!-- Creator: CorelDRAW X8 -->
<svg xmlns="http://www.w3.org/2000/svg" xml:space="preserve" width="4.8293mm" height="4.829mm" version="1.1" style="shape-rendering:geometricPrecision; text-rendering:geometricPrecision; image-rendering:optimizeQuality; fill-rule:evenodd; clip-rule:evenodd"
viewBox="0 0 39 39"
 xmlns:xlink="http://www.w3.org/1999/xlink">
 <defs>
  <style type="text/css">
   <![CDATA[
    .fil0 {fill:white}
   ]]>
  </style>
 </defs>
 <g id="Capa_x0020_1">
  <metadata id="CorelCorpID_0Corel-Layer"/>
  <path class="fil0" d="M7 20c0,-7 5,-12 12,-13 7,0 12,5 13,12 0,7 -5,12 -12,13 -7,0 -12,-5 -13,-12zm12 -8c-3,0 -4,1 -6,2 -1,2 -2,4 -1,6 0,4 4,8 8,7 4,0 8,-4 7,-8 0,-4 -4,-8 -8,-7zm13 -8c1,0 3,1 3,2 0,2 -1,3 -2,4 -4,1 -5,-5 -1,-6zm-32 12c0,4 0,12 0,15 0,1 1,2 1,3 1,1 1,2 2,3 1,0 2,1 3,1 3,1 8,1 11,1 4,0 9,0 13,0 2,0 3,-1 5,-1 5,-3 4,-10 4,-15l0 -7c0,-6 1,-13 -5,-15 -3,-1 -9,-1 -12,-1l-6 0c-6,0 -11,0 -13,3 -1,1 -1,1 -2,2 -1,3 -1,8 -1,11z"/>
 </g>
</svg>
