<?xml version="1.0" encoding="UTF-8"?>
<!DOCTYPE svg PUBLIC "-//W3C//DTD SVG 1.1//EN" "http://www.w3.org/Graphics/SVG/1.1/DTD/svg11.dtd">
<!-- Creator: CorelDRAW X8 -->
<svg xmlns="http://www.w3.org/2000/svg" xml:space="preserve" width="4.8289mm" height="4.8289mm" version="1.1" style="shape-rendering:geometricPrecision; text-rendering:geometricPrecision; image-rendering:optimizeQuality; fill-rule:evenodd; clip-rule:evenodd"
viewBox="0 0 56 56"
 xmlns:xlink="http://www.w3.org/1999/xlink">
 <defs>
  <style type="text/css">
   <![CDATA[
    .fil0 {fill:white}
   ]]>
  </style>
 </defs>
 <g id="Capa_x0020_1">
  <metadata id="CorelCorpID_0Corel-Layer"/>
  <path class="fil0" d="M56 28c0,16 -12,28 -28,28 -15,0 -28,-12 -28,-28 0,-15 13,-28 28,-28 16,0 28,13 28,28zm-26 -2c0,-1 0,-1 0,-1 2,-2 5,-3 8,-3 4,1 6,3 7,7 0,1 0,2 0,3 0,4 0,8 0,12 0,0 0,0 -1,0 -2,0 -4,0 -6,0 0,0 0,0 0,0 0,-4 0,-8 0,-11 0,-1 -1,-2 -1,-3 0,-2 -3,-3 -5,-1 -2,0 -2,2 -2,3 0,4 0,7 0,10 0,1 0,1 0,2 0,0 0,0 0,0 -3,0 -5,0 -7,0 0,0 0,0 0,0 0,-3 0,-6 0,-10 0,-3 0,-7 0,-11 0,0 0,0 0,0 2,0 4,0 7,0 0,0 0,0 0,0 0,1 0,2 0,3zm-11 7c0,4 0,7 0,11 0,0 0,0 -1,0 -2,0 -4,0 -6,0 0,0 0,0 0,0 0,-7 0,-14 0,-21 0,0 0,0 0,0 2,0 4,0 6,0 1,0 1,0 1,0 0,4 0,7 0,10zm-4 -21c3,0 5,2 4,5 0,2 -2,3 -5,3 -2,-1 -3,-3 -3,-6 1,-1 2,-2 4,-2z"/>
 </g>
</svg>
