<?xml version="1.0" encoding="UTF-8"?>
<!DOCTYPE svg PUBLIC "-//W3C//DTD SVG 1.1//EN" "http://www.w3.org/Graphics/SVG/1.1/DTD/svg11.dtd">
<!-- Creator: CorelDRAW X8 -->
<svg xmlns="http://www.w3.org/2000/svg" xml:space="preserve" width="10.0491mm" height="10.0492mm" version="1.1" style="shape-rendering:geometricPrecision; text-rendering:geometricPrecision; image-rendering:optimizeQuality; fill-rule:evenodd; clip-rule:evenodd"
viewBox="0 0 51 51"
 xmlns:xlink="http://www.w3.org/1999/xlink">
 <defs>
  <style type="text/css">
   <![CDATA[
    .fil0 {fill:white}
   ]]>
  </style>
 </defs>
 <g id="Capa_x0020_1">
  <metadata id="CorelCorpID_0Corel-Layer"/>
  <path class="fil0" d="M51 25c0,14 -12,26 -26,26 -14,0 -25,-12 -25,-26 0,-14 11,-25 25,-25 14,0 26,11 26,25zm-17 -8c1,0 2,0 3,0 0,0 1,0 1,1 0,1 0,1 -2,1 -2,0 -4,0 -6,0 0,0 0,0 0,0 0,-1 0,-2 0,-2 0,0 1,0 1,0 1,0 2,0 3,0zm-10 8c-1,0 -1,0 -1,-1 0,0 0,0 0,0 2,-1 2,-2 2,-4 0,-2 -1,-3 -3,-4 -1,0 -1,0 -2,0 -3,0 -6,0 -9,0 -1,0 -1,0 -1,0 0,6 0,12 0,18 0,0 0,1 1,1 2,0 5,0 8,0 1,0 2,-1 3,-1 2,-1 3,-2 4,-4 0,-2 -1,-4 -2,-5zm-9 -6l0 0c1,0 3,0 4,0 2,0 3,2 2,3 -1,1 -1,1 -2,1 -1,0 -1,0 -2,0 -1,0 -1,0 -2,0 0,0 -1,0 -1,0 0,-1 0,-2 0,-4 0,0 0,0 1,0zm5 12l0 0c0,0 -1,0 -1,0 -1,0 -3,0 -4,0 -1,0 -1,0 -1,0 0,-1 0,-3 0,-4 0,-1 0,-1 1,-1 0,0 1,0 2,0 1,0 2,0 3,1 1,0 2,1 2,2 0,1 -1,2 -2,2zm11 -2c2,0 3,0 5,0 1,0 2,0 4,0 0,0 1,0 1,-1 -1,-1 -1,-1 -1,-2 0,-2 -1,-4 -3,-5 -1,0 -2,0 -4,0 -2,0 -4,1 -5,4 -1,2 -1,4 0,6 0,2 1,3 2,3 2,1 4,1 6,1 2,-1 3,-2 4,-4 0,0 0,-1 0,-1 -1,0 -2,0 -3,0 0,0 0,0 0,1 -1,1 -2,1 -4,1 -1,0 -2,-1 -2,-3 0,0 0,0 0,0zm0 -3l0 0c0,-2 2,-3 4,-2 1,0 2,1 2,2 0,0 0,0 -1,0 0,0 -1,0 -2,0 -1,0 -2,0 -3,0 0,0 0,0 0,0z"/>
 </g>
</svg>
