<?xml version="1.0" encoding="UTF-8"?>
<!DOCTYPE svg PUBLIC "-//W3C//DTD SVG 1.1//EN" "http://www.w3.org/Graphics/SVG/1.1/DTD/svg11.dtd">
<!-- Creator: CorelDRAW X8 -->
<svg xmlns="http://www.w3.org/2000/svg" xml:space="preserve" width="8.2334mm" height="6.1637mm" version="1.1" style="shape-rendering:geometricPrecision; text-rendering:geometricPrecision; image-rendering:optimizeQuality; fill-rule:evenodd; clip-rule:evenodd"
viewBox="0 0 103 77"
 xmlns:xlink="http://www.w3.org/1999/xlink">
 <defs>
  <style type="text/css">
   <![CDATA[
    .fil0 {fill:white}
   ]]>
  </style>
 </defs>
 <g id="Capa_x0020_1">
  <metadata id="CorelCorpID_0Corel-Layer"/>
  <path class="fil0" d="M0 39c1,1 0,4 4,9 2,2 5,5 8,6 4,2 7,2 12,2 5,0 10,-1 14,0l0 21c6,-4 26,-21 28,-21l11 0c5,0 9,0 13,-2 6,-2 10,-8 12,-13l0 -3c0,0 0,0 0,0 1,-1 0,1 1,0l0 -1 0 -11c0,0 0,-1 0,-2l0 -4c0,-11 -9,-20 -20,-20l-63 0c-11,0 -20,9 -20,20l0 0 0 4 0 15z"/>
 </g>
</svg>
