<?xml version="1.0" encoding="UTF-8"?>
<!DOCTYPE svg PUBLIC "-//W3C//DTD SVG 1.1//EN" "http://www.w3.org/Graphics/SVG/1.1/DTD/svg11.dtd">
<!-- Creator: CorelDRAW X8 -->
<svg xmlns="http://www.w3.org/2000/svg" xml:space="preserve" width="113.565mm" height="25.3333mm" version="1.1" style="shape-rendering:geometricPrecision; text-rendering:geometricPrecision; image-rendering:optimizeQuality; fill-rule:evenodd; clip-rule:evenodd"
viewBox="0 0 11044 2464"
 xmlns:xlink="http://www.w3.org/1999/xlink">
 <defs>
  <style type="text/css">
   <![CDATA[
    .fil0 {fill:#C8C8C8;fill-rule:nonzero}
    .fil1 {fill:red;fill-rule:nonzero}
   ]]>
  </style>
 </defs>
 <g id="Capa_x0020_1">
  <metadata id="CorelCorpID_0Corel-Layer"/>
  <g id="_1745700334944">
   <path class="fil0" d="M412 722l-79 508 -333 0 187 -1230 1033 0c44,0 87,10 128,30 50,25 76,57 76,97 0,6 -1,11 -2,16l-65 434c-6,42 -36,78 -90,108 -47,24 -94,37 -140,37l-715 0zm620 -236l40 -252 -585 0 -38 252 583 0zm1541 568l-334 0 151 -711 -590 0 -151 711 -333 0 187 -878 1033 0c40,0 80,6 121,19 55,18 83,41 83,71 0,4 -56,267 -167,788zm1316 0l-1256 0 186 -878 1257 0 -36 167 -922 0 -41 181 589 0 -36 168 -588 0 -40 195 922 0 -35 167zm1109 2l-843 0c-41,0 -79,-7 -115,-19 -47,-18 -70,-44 -70,-78 0,-5 1,-10 2,-16l162 -767 336 0 -152 711 588 0 152 -711 334 0 -164 776c-7,33 -39,59 -97,79 -46,17 -91,25 -133,25zm1524 -2l-334 0 151 -711 -113 0 -151 711 -333 0 151 -711 -144 0 -151 711 -333 0 187 -878 1033 0c40,0 80,6 121,19 55,18 83,41 83,71 0,4 -56,267 -167,788zm1316 0l-334 0 78 -364 -590 0 -78 364 -334 0 165 -774c7,-35 42,-63 104,-83 46,-15 93,-23 141,-23l811 0c41,0 82,7 121,20 56,17 83,41 83,72 0,4 -56,267 -167,788zm-225 -531l40 -180 -584 0 -38 180 582 0zm1692 -180l-447 0 -151 711 -333 0 152 -711 -477 0 35 -167 1257 0 -36 167zm242 711l-333 0 187 -878 334 0 -188 878zm1122 2l-842 0c-38,0 -76,-7 -115,-21 -49,-18 -74,-42 -74,-72 0,-5 49,-233 146,-683 7,-34 42,-61 104,-81 47,-15 94,-23 141,-23l811 0c41,0 82,6 122,19 55,18 82,41 82,71 0,4 -9,51 -28,139l-336 0 14 -62 -589 0 -115 544 587 0 15 -62 334 0 -26 127c-7,33 -39,59 -97,79 -47,17 -91,25 -134,25z"/>
   <path class="fil1" d="M3434 2464l-334 0 151 -996 -589 0 -151 996 -333 0 186 -1230 1033 0c45,0 88,10 129,30 50,24 75,56 75,96 0,6 0,11 -1,16l-166 1088zm1109 -175l-843 0c-38,0 -76,-7 -114,-21 -50,-17 -74,-41 -74,-72 0,-4 48,-232 146,-683 7,-34 41,-61 104,-81 46,-15 93,-22 140,-22l812 0c41,0 81,6 121,19 55,18 83,41 83,70 0,5 -48,234 -145,687 -7,32 -39,59 -96,79 -47,16 -92,24 -134,24zm-93 -168l116 -544 -585 0 -116 544 585 0zm1509 -280c122,6 183,36 183,89 0,4 -25,123 -75,358l-335 0 78 -365 -590 0 -77 365 -333 0 187 -878 1033 0c42,0 83,5 121,17 55,17 83,41 83,72 0,20 -7,60 -21,118 -10,41 -19,82 -28,123 -6,31 -38,56 -95,76 -45,15 -88,24 -131,25zm-116 -85l39 -179 -585 0 -38 179 584 0zm1691 -179l-447 0 -151 711 -333 0 152 -711 -477 0 35 -167 1256 0 -35 167zm1165 711l-1256 0 186 -878 1257 0 -35 167 -923 0 -40 181 588 0 -35 167 -589 0 -40 196 923 0 -36 167z"/>
  </g>
 </g>
</svg>
