<?xml version="1.0" encoding="UTF-8"?>
<!DOCTYPE svg PUBLIC "-//W3C//DTD SVG 1.1//EN" "http://www.w3.org/Graphics/SVG/1.1/DTD/svg11.dtd">
<!-- Creator: CorelDRAW X8 -->
<svg xmlns="http://www.w3.org/2000/svg" xml:space="preserve" width="138.194mm" height="30.8272mm" version="1.1" style="shape-rendering:geometricPrecision; text-rendering:geometricPrecision; image-rendering:optimizeQuality; fill-rule:evenodd; clip-rule:evenodd"
viewBox="0 0 13506 3013"
 xmlns:xlink="http://www.w3.org/1999/xlink">
 <defs>
  <style type="text/css">
   <![CDATA[
    .fil1 {fill:red;fill-rule:nonzero}
    .fil0 {fill:white;fill-rule:nonzero}
   ]]>
  </style>
 </defs>
 <g id="Capa_x0020_1">
  <metadata id="CorelCorpID_0Corel-Layer"/>
  <g id="_1745700347712">
   <path class="fil0" d="M504 882l-97 622 -407 0 228 -1504 1263 0c55,0 107,12 157,37 62,30 93,69 93,118 0,7 -1,14 -2,19l-80 532c-7,51 -44,95 -109,131 -58,30 -115,45 -172,45l-874 0zm758 -288l49 -308 -716 0 -46 308 713 0zm1884 695l-408 0 184 -869 -721 0 -185 869 -406 0 228 -1074 1263 0c49,0 98,8 148,24 68,21 102,50 102,86 0,6 -69,327 -205,964zm1610 0l-1537 0 228 -1074 1537 0 -43 205 -1128 0 -50 221 719 0 -43 205 -719 0 -49 239 1128 0 -43 204zm1356 2l-1031 0c-50,0 -97,-8 -140,-24 -58,-21 -86,-53 -86,-94 0,-6 0,-12 2,-20l198 -938 412 0 -186 870 718 0 186 -870 409 0 -201 949c-8,40 -48,73 -118,97 -57,20 -112,30 -163,30zm1863 -2l-408 0 184 -869 -137 0 -186 869 -406 0 185 -869 -177 0 -185 869 -406 0 228 -1074 1263 0c49,0 98,8 148,24 68,21 102,50 102,86 0,6 -69,327 -205,964zm1610 0l-408 0 94 -445 -721 0 -95 445 -409 0 202 -947c9,-43 51,-77 127,-101 56,-19 114,-28 173,-28l992 0c50,0 99,8 148,24 67,21 101,51 101,88 0,6 -68,327 -204,964zm-275 -650l49 -219 -715 0 -47 219 713 0zm2069 -219l-546 0 -186 869 -406 0 185 -869 -583 0 43 -205 1536 0 -43 205zm295 869l-406 0 228 -1074 409 0 -231 1074zm1373 2l-1031 0c-45,0 -92,-8 -139,-26 -61,-21 -91,-51 -91,-88 0,-6 60,-284 179,-835 8,-41 51,-74 127,-99 57,-18 115,-28 172,-28l992 0c50,0 100,8 148,24 68,21 102,50 102,86 0,6 -12,62 -35,170l-411 0 17 -75 -720 0 -140 665 718 0 18 -76 408 0 -32 155c-8,40 -48,73 -118,97 -58,20 -112,30 -164,30z"/>
   <path class="fil1" d="M4200 3013l-410 0 186 -1218 -721 0 -185 1218 -407 0 228 -1504 1263 0c55,0 107,12 157,36 62,30 93,70 93,118 0,8 -1,14 -2,20l-202 1330zm1355 -213l-1031 0c-45,0 -92,-9 -139,-26 -61,-22 -91,-51 -91,-88 0,-6 60,-284 179,-835 8,-42 51,-75 127,-99 57,-19 115,-28 172,-28l992 0c50,0 100,8 148,23 68,22 102,51 102,86 0,6 -59,286 -177,840 -8,40 -48,72 -118,97 -58,20 -112,30 -164,30zm-114 -207l142 -665 -714 0 -142 665 714 0zm1847 -342c149,7 223,44 223,110 0,4 -30,150 -92,437l-409 0 95 -446 -721 0 -95 446 -407 0 228 -1074 1264 0c51,0 101,7 148,21 68,20 101,50 101,88 0,25 -8,73 -26,145 -11,50 -23,100 -34,150 -7,38 -46,68 -116,93 -55,18 -108,29 -159,30zm-142 -103l47 -220 -715 0 -47 220 715 0zm2067 -220l-546 0 -185 870 -407 0 185 -870 -583 0 43 -204 1536 0 -43 204zm1425 870l-1536 0 228 -1074 1536 0 -43 204 -1128 0 -50 222 720 0 -43 204 -720 0 -48 239 1127 0 -43 205z"/>
  </g>
 </g>
</svg>
