<?xml version="1.0" encoding="utf-8"?>
<!-- Generator: Adobe Illustrator 23.0.3, SVG Export Plug-In . SVG Version: 6.00 Build 0)  -->
<svg version="1.1" id="Layer_1" xmlns="http://www.w3.org/2000/svg" xmlns:xlink="http://www.w3.org/1999/xlink" x="0px" y="0px"
	 viewBox="0 0 289.1 169.1" style="enable-background:new 0 0 289.1 169.1;" xml:space="preserve">
<style type="text/css">
	.st0{fill:#F9F9F9;}
</style>
<title>logo</title>
<path class="st0" d="M135.3,169.1c-1.8-1.1-2-1.4-2.3-3c1.1,0,2.3-0.4,3.3,0.6c0.9,0.8,2.3,0,2.5-1.2c0-0.5,0-1.1,0-1.6
	c-0.2,0.1-0.3,0.2-0.5,0.3c-1.2,1.3-3.2,1.3-4.5,0.1c-0.3-0.3-0.6-0.7-0.8-1.1c-0.9-1.7-1-3.8-0.4-5.6c0.9-3.1,3.5-3.9,5.6-2.1
	l3.1-0.8c0,4.1,0.1,7.9,0,11.7c0,1.5-1.3,2.2-2.6,2.8L135.3,169.1z M138.9,160.1c-0.1-0.6,0-1.1-0.1-1.4c-0.4-0.6-0.9-1.4-1.6-1.5
	c-1-0.3-1.6,0.6-1.7,1.5c-0.1,0.9-0.1,1.8,0.1,2.6c0.2,0.6,0.8,1,1.4,1.1c0.5,0,1.2-0.6,1.6-1.1
	C138.8,160.9,138.8,160.4,138.9,160.1L138.9,160.1z"/>
<path class="st0" d="M87.6,63.7l-85-0.4c-0.4,0-1,0.1-1.3-0.1c-0.5-0.3-0.8-0.7-0.9-1.3c0.1-0.5,0.5-1,1-1.1
	c1.2-0.1,2.5-0.2,3.7-0.1c29.1,0.1,58.1,0.2,87.1,0.3c7.6,0,15.2,0.1,22.7,0.2c15.5,0.2,30.9,0.5,46.4,0.7
	c6.2-0.1,12.4,0.2,18.5,0.9c7.3,1,13.6,3.8,18.2,9.8c3.1,4.1,4.7,9.1,4.7,14.2c0.1,8.3,0,16.7,0,25c0,10.3,0,20.6,0.1,30.9
	c0,2.6,0.2,5.3,0.5,7.9c0.5,5.7,4.9,10.3,10.6,11.1c4.7,0.9,9.5,1.4,14.3,1.6c13,0.2,26.1,0.1,39.1,0.1c3.6-0.1,7.2-0.9,10.5-2.4
	c1.7-0.8,3.1-2.1,4.2-3.6c2.6-3.5,3-7.5,3.3-11.7c1-15.9,1.1-31.9,1.1-47.8c0-10.5,0.1-21.1,0.2-31.6c-0.1-0.5,0-1,0.1-1.5
	c0.2-0.4,0.6-0.6,1-0.7c0.4,0.1,0.8,0.3,1,0.7c0.2,0.7,0.2,1.4,0.2,2.1c0,11.1-0.1,22.2-0.1,33.3c0,10.1,0.3,20.2,0,30.3
	c-0.2,6.8-0.7,13.6-1.5,20.4c-1,8.2-6.6,13.5-14.9,14.6c-3.4,0.4-6.8,0.6-10.2,0.5c-10.9,0.1-21.9,0.1-32.8,0
	c-5.6,0-11.2-0.2-16.6-1.8l-1.4-0.4c-6.2-1.9-9.5-6.2-10.1-12.6c-0.5-6.1-1.2-12.1-1.3-18.2c-0.1-14.6,0-29.3,0.1-44
	c0.1-3.4-0.5-6.7-1.6-9.9c-2.5-6.8-7.8-10.5-14.5-12.5c-6-1.7-12.1-2.1-18.2-2.1C139.8,64.2,113.7,63.9,87.6,63.7L87.6,63.7z"/>
<path class="st0" d="M244.3,145.6c-0.7,0.1-1.4,0.2-2.1,0.3c-5.2-0.1-10.5,0.1-15.7-0.3c-6.1-0.4-10.5-3.6-13.2-9.1
	c-3.7-7.5-2.7-14.7,1.7-21.5c2.7-4.1,7.3-6.6,12.2-6.4c11.3-0.1,22.5-0.2,33.7,0.3c7.9,0.3,14.5,6,15.8,13.8c0.2,1,0.3,1.9,0.3,2.9
	c0,6.1,0,12.2,0,18.2c-1.8,0.4-1.9,0.3-1.9-1.2c0-5.6,0.1-11.2,0-16.8c-0.1-7-4.1-12.3-10.9-14.2c-2.8-0.7-5.6-1-8.5-1
	c-8.3-0.2-16.5-0.2-24.7-0.2c-2.2,0-4.4,0.2-6.5,0.6c-5.4,1-8.7,4.5-10.3,9.5c-2.2,6-1.2,12.6,2.5,17.7c2.3,3.5,6.3,5.6,10.5,5.5
	c4.1,0,8.3,0,12.4,0c1.3,0,2.5,0.1,3.8,0.2S244.5,144.2,244.3,145.6z"/>
<path class="st0" d="M193.5,22.3c0.4,1.3,0,1.9-1.4,1.9c-2.7-0.1-5.5,0-8.2,0c-4.9-0.1-8.6,1.7-11.1,6.3c-3.1,5.7-2.8,13.2,1.3,18.3
	c2,2.5,4.8,3.6,7.9,4.2c1,0.2,1.9,0.3,2.9,0.3c4.2,0,8.3,0,12.5,0h1.8V2.5c1.7-0.5,1.9,0.3,1.9,1.3c0,10.8,0.1,21.6,0.1,32.4
	c0,5.9-0.1,11.7-0.1,17.6c0,0.3,0,0.7-0.1,1.3c-1.1,0.1-2.2,0.3-3.3,0.3c-5.3-0.2-10.6-0.1-15.8-0.6c-5.6-0.5-9.6-3.7-11.7-9
	c-2.6-6.5-1.7-12.7,2.2-18.4c2.2-3.3,5.7-4.7,9.4-5C185.7,22,189.7,22.3,193.5,22.3z"/>
<path class="st0" d="M271.4,144c-1.3,0-1.6-0.5-1.6-1.5c0-5,0-9.9-0.1-14.9c0-1.8-0.2-3.6-0.6-5.3c-1.1-3.4-3.9-5-7.2-5.6
	c-2.2-0.4-4.5-0.6-6.8-0.6c-8.9,0-17.8,0-26.8,0.1c-3,0-5.8,0.8-7.7,3.4c-2.2,2.9-3.1,6.6-2.3,10.2c1.3,5.9,4.8,8.7,10.9,8.8
	c4.1,0,8.1-0.1,12.2-0.2c1.9,0,2.6,0.3,3,1.8c-0.3,0.1-0.7,0.2-1,0.3c-5.6,0-11.2,0-16.8-0.2c-5.2-0.2-8.8-3.9-9.9-8.7
	c-1.2-5.1-0.7-9.9,3-13.9c2.1-2.2,5.1-3.4,8.1-3.2c10.1-0.1,20.2-0.1,30.3,0c3.9,0,7.7,0.7,10.5,3.8c1.9,2,3,4.6,3,7.4
	c0,4.9,0,9.8,0,14.7C271.6,141.4,271.5,142.6,271.4,144z"/>
<path class="st0" d="M197.1,50.8c-1.3,0-2.6,0-3.9,0c-3.5-0.1-7-0.1-10.5-0.3c-4.1-0.3-6.6-3-8.1-6.6c-2.3-5.4-0.7-11.7,3.9-15.4
	c1.3-0.9,2.8-1.5,4.4-1.5c3.2-0.2,6.5-0.1,9.8-0.1c1.3,0,1.7,0.5,1.3,1.9c-2.6,0-5.3,0-8,0c-1.3,0-2.7,0.1-4,0.3
	c-1.8,0.2-3.4,1.3-4.3,2.9c-3,4.8-2.7,10.5,0.5,14.2c2,2.3,4.6,2.6,7.3,2.7s5.3,0,7.9,0.1c1.4,0,1.5-0.7,1.5-1.7
	c0.1-13.3,0.1-26.5,0.2-39.8c0-1.2,0-2.4,0-3.6s0-1.1,1.4-1.4c0.1,0.4,0.2,0.8,0.2,1.2c0,8.5,0,16.9,0,25.4c0,6.1,0,12.2,0,18.3
	C196.9,48.3,197,49.4,197.1,50.8z"/>
<path class="st0" d="M99.1,37.7c0.1,7.8-6.3,15.7-14.4,16.3c-5.8,0.6-11.5-1.9-14.9-6.7c-1.4-2.1-2.4-4.6-2.7-7.2
	c-1.5-8,3.7-16.5,11.3-18.6C87,19.1,95.9,24,98.3,32.6c0.1,0.4,0.2,0.8,0.3,1.1C98.8,35,98.9,36.4,99.1,37.7z M83.5,22.9
	c-4.8-0.2-8.4,0.9-11,3.9c-4.3,5-5.5,13.4-1,19.5c4.7,6.4,13.9,7.9,20.1,3c3.2-2.5,4.8-6,5.6-9.9c0.8-3.2,0.2-6.6-1.7-9.4
	C92.9,25.9,88.4,23.3,83.5,22.9z"/>
<path class="st0" d="M64.4,54.2c-1.2,0.1-2.3,0.2-3.5,0.3c-4.7-0.1-9.3-0.2-14-0.5c-4.5-0.2-8.6-2.7-10.8-6.8
	c-3.7-6.7-3.8-13.4,0.7-19.8c2.2-3.5,6-5.7,10.1-5.9c5.8-0.3,11.6-0.1,17.5-0.1v2c-0.7,0.1-1.4,0.2-2.1,0.2
	c-4.4-0.1-8.9-0.2-13.3-0.2c-3-0.1-5.9,0.8-8.3,2.6c-2.8,2.4-4.6,5.8-5,9.5c-0.5,3-0.2,6.1,1,8.9c2,4.6,5.4,7.6,10.6,7.8
	s10.5,0.2,15.7,0.3C64.3,52.4,64.8,52.8,64.4,54.2z"/>
<path class="st0" d="M241.9,94.1c0-4.1,0-8.2,0-12.2c0-0.8,0.2-1.4,1.1-1.4c6.8,0,13.6-0.7,20.4,0.6c7.1,1.4,11.3,6.1,13.1,13
	c1.5,5.8,0.3,11.3-2.7,16.5c-0.3,0.5-1.2,1-1.5,0.8c-0.9-0.3-0.5-1.2-0.2-1.8c0.9-2.3,2.3-4.5,2.7-6.9c1.4-7.7-0.7-14.2-7.9-18.3
	c-2-1.1-4.2-1.7-6.5-1.8c-5-0.3-10-0.2-15-0.4c-1.3,0-1.6,0.5-1.6,1.6c0,2.2,0,4.3,0,6.4c0,5.2,0,10.5,0,15.7c0,0.2,0.1,0.5,0,0.7
	c-0.3,0.4-0.6,0.8-1,1.2c-0.3-0.4-0.8-0.7-0.8-1.1c-0.1-0.9-0.1-1.8,0-2.7L241.9,94.1L241.9,94.1z"/>
<path class="st0" d="M30.8,23.1h-6c-3.2,0-6.5-0.2-9.7,0c-3.3,0-6.5,1.2-8.9,3.5c-2.9,2.8-4.5,6.7-4.4,10.7
	c-0.1,5.5,1.8,10,6.6,13.1c2.6,1.7,5.6,1.8,8.5,1.9c4,0.1,8-0.1,12-0.1c1.5,0,1.9,0.4,1.6,2c-5.3,0-10.7,0.1-16.1-0.1
	c-2.9-0.1-5.7-1-8-2.8C1.6,47.8-0.1,42.7,0,37c-0.1-4.6,1.9-9.1,5.4-12.1c2.4-2.2,5.6-3.5,8.9-3.7c5.1-0.1,10.1,0,15.2-0.1
	C30.8,21.1,31.2,21.6,30.8,23.1z"/>
<path class="st0" d="M128.1,27.1c0.2-0.7,0.5-1.3,0.8-2c3.1-4.8,3.3-14.6-2-19.4c-2.7-2.3-6-3.6-9.6-3.7c-4.2-0.2-8.3-0.2-12.5-0.3
	c-2,0-2.1,0.1-2.1,2c0,6,0,12.1,0,18.1v1.8H101c-0.1-0.5-0.1-1-0.1-1.5c0-6.8,0-13.5,0-20.3c0-1.2,0.3-1.9,1.6-1.9
	c2.7,0,5.5-0.2,8.2-0.1c3.2-0.1,6.4,0.1,9.6,0.5c8.2,1.4,14,10,12.7,18.2c-0.4,2.6-1.2,5.1-2.4,7.5
	C130.1,27.3,129.5,27.7,128.1,27.1z"/>
<path class="st0" d="M120.8,165h-2.6v-9.6H118c-0.7,3.2-1.4,6.4-2.1,9.6c-0.1,0-0.2,0.1-0.3,0.1c-2.6,0.1-2.6,0.1-3.1-2.4
	s-1.1-4.9-1.8-7.3v9.6H108v-13.8h4.1c0.7,3.1,1.5,6.3,2.3,9.8l2.3-9.9h4.1L120.8,165z"/>
<path class="st0" d="M64.5,26.1v1.7c-1.5,0.1-2.9,0.3-4.3,0.3c-3.4,0-6.9-0.2-10.3-0.1c-5,0.1-8,2.3-9.3,7
	C38.9,40.3,41.8,45.9,47,47c2.3,0.4,4.6,0.6,6.9,0.6c3.2,0.1,6.4,0,9.5-0.1h1l0.1,1.8c-0.9,0.1-1.9,0.2-2.8,0.3
	c-4.7-0.1-9.3-0.1-14-0.3c-4.5-0.2-8.5-4.3-9.3-9.2c-0.9-4.3,0.6-8.8,3.9-11.7c1.8-1.5,4.1-2.4,6.4-2.3C54,26,59.2,26.1,64.5,26.1z"
	/>
<path class="st0" d="M30.8,47.7l-0.2,1.5c-0.1,0.1-0.2,0.2-0.3,0.2c-5.4,0-10.8,0.3-16.1-0.1c-4.9-0.3-8.2-3.4-9.2-8.2
	c-1-4.5-0.4-8.8,2.9-12.3c2.2-2.3,5-2.8,8-2.9c4.4-0.1,8.9,0.1,13.3,0.2c0.3,0,0.6,0.1,0.9,0.2c0.3,0.2,0.7,0.6,0.7,0.8
	c-0.1,0.4-0.4,0.6-0.8,0.8c-0.4,0.1-0.9,0.1-1.3,0.1c-4.4,0-8.8,0-13.2,0c-7.3,0-9.8,6.8-9,11.5c0.7,3.9,2.7,6.7,6.6,7.7
	c1.7,0.3,3.4,0.5,5.1,0.4c4,0.1,8.1,0,12.1,0C30.5,47.6,30.7,47.6,30.8,47.7z"/>
<path class="st0" d="M268.6,109c-1.7-0.6-1.7-0.9-0.8-2.5c3.1-5.4,2.5-10.5-1-15.4c-1.7-2.4-4.3-3.1-6.9-3.2c-3.5-0.1-7.1,0-10.8,0
	v19.6c-1.6,0.4-2.1,0.2-2.1-1.1c0-6.2,0.1-12.4,0.2-18.5c0-1.9,0.7-2.2,2.6-2.1c3,0.2,6.1,0.2,9.1,0.2c3.7-0.1,7,0.8,9.4,3.9
	c2.5,3.1,3.6,7.1,3.2,11.1C271.4,103.8,270.4,106.7,268.6,109z"/>
<path class="st0" d="M165.9,54.7c-1.3,0.4-1.9,0-1.9-1.3c0-2.9,0-5.7-0.1-8.6c0-3.2,0.4-6.4-0.2-9.5c-1.2-6.6-4.4-9.3-9.9-10
	c-4-0.5-8-0.5-12-0.7c-1.5-0.1-3,0-4.6,0v-1.9c1.6,0,3.2,0,4.8,0c4.1,0.1,8.1,0.1,12.2,0.6c6.2,0.8,10.6,4.9,11.3,11.2
	s0.4,12.7,0.6,19C166.1,53.9,166.1,54.3,165.9,54.7z"/>
<path class="st0" d="M214.5,112.6c-0.9-1-1.7-2.2-2.3-3.4c-3.5-7.9-3.1-15.6,1.5-22.9c2.4-3.8,6.2-5.4,10.4-5.6
	c4-0.3,8-0.1,11.9-0.1c0.9-0.1,1.9-0.1,2.8-0.1c0.5,0.1,0.9,0.6,1.4,1c-0.4,0.3-0.8,0.7-1.2,0.8c-3.8,0.3-7.7,0.3-11.5,0.1
	c-8.8-0.8-13.8,4.8-15.3,12.2c-1,5.3-0.5,10.6,2.5,15.3C215.6,111.1,215.5,111.3,214.5,112.6z"/>
<path class="st0" d="M254.8,55.7c-4.3,0-8.7,0-13.1,0c-0.6,0-1.3-0.1-1.9-0.1c-3-0.1-4.2-0.9-4.3-3.8c-0.2-4.2-0.1-8.5,0.1-12.7
	c0.1-1.9,1.1-2.5,3-2.6c2,0,4.1-0.2,6.1-0.6c2.9-0.6,5.2-2.8,6-5.7c0.5-1,0.1-2.3-0.9-2.8c-0.2-0.1-0.3-0.1-0.5-0.2
	c-0.8-0.3-1.6-0.4-2.5-0.5c-1.4-0.1-2.8-0.1-4.2,0c-1.6,0.1-3.1,0.3-4.8,0.4c-0.4-1.1,0.1-1.9,1.5-1.9c2.6,0,5.3,0,7.9,0.1
	c4,0.2,5.6,2.7,4.1,6.5c-1.1,3-3.6,4.5-6.5,5.3c-1.7,0.4-3.4,0.6-5.2,0.6c-2.9,0.1-3,0.1-2.9,2.9c0,3.6,0,7.2,0,10.7
	c0,2,0.5,2.5,2.5,2.5c4.2,0,8.3,0,12.5,0c0.7,0,1.3,0.1,2,0.1S255.2,54.5,254.8,55.7z"/>
<path class="st0" d="M101,128.4v-13.8c2,0,4-0.1,5.9,0c2.1,0.1,3.8,1.6,4.1,3.6c0.4,1.9,0.4,3.9,0.2,5.8c-0.4,2.8-2.2,4.2-5,4.3
	C104.5,128.5,102.8,128.4,101,128.4z M104,125.5c1.4,0,3,0.4,3.8-1c1-1.8,1-4.1,0-5.9c-0.8-1.5-2.3-1.2-3.8-1.1L104,125.5z"/>
<path class="st0" d="M107.5,6.8v17h-1.7c-0.1-0.7-0.2-1.3-0.2-2c0-5.2,0-10.5,0.1-15.7c0-0.4,0.6-1,0.9-1c4.5,0,9.1-0.2,13.5,0.4
	c4.1,0.5,6.2,3.8,7.4,7.5c1.4,4.4,1,8.6-2.2,12.3l-1.3-0.9c1.6-2.5,2.3-5.5,2.2-8.5c-0.2-4.1-3.1-8-6.6-8.7
	C115.6,6.3,111.5,6.2,107.5,6.8z"/>
<path class="st0" d="M255,52.3c-0.5,0.1-1.1,0.2-1.6,0.3c-3.8,0.1-7.6,0.1-11.4,0.1c-2.8,0-3.7-0.8-3.7-3.7c0-2.4,0-4.8,0.1-7.3
	c0.1-1.8,0.7-2.3,2.5-2.4c3.1-0.1,6.2-0.5,8.8-2.3c2.5-1.6,4.1-4.4,4.4-7.3c0.3-3.3-1.3-5.4-4.7-5.6c-3.7-0.2-7.3-0.2-11-0.3
	c-0.9-0.2-1.8,0.4-1.9,1.3c0,0.2,0,0.4,0,0.6c0,0,0,0.1,0,0.1c-0.3,0.6-0.5,1.2-0.8,1.8c-0.3-0.6-0.6-1.3-0.7-2
	c0-2.1,0.8-2.9,2.9-2.9c3.7,0,7.3-0.1,11,0c4.8,0.2,7.5,4,6.3,8.6c-1.4,5-5.7,8.6-10.9,9.2c-0.9,0.1-1.9,0.2-2.8,0.3
	c-1.1,0-1.7,0.5-1.7,1.5c-0.1,2.4-0.1,4.7-0.1,7.1c0,1.5,0.8,1.9,2.1,1.9c3.9,0,7.8,0,11.7,0c0.6,0.1,1.1,0.2,1.7,0.4L255,52.3z"/>
<path class="st0" d="M149.4,35.9c-1.7-0.1-3.5-0.1-5.2,0c-3.3,0.3-6,2.8-6.6,6c-1,4.6,1.6,9.4,5.9,10.2c2,0.3,4.1,0.3,6.1,0.3
	c1.9,0,3.8,0.1,5.6,0.1c0.8,0,1.2,0.4,1,1.1c-0.1,0.5-0.7,1.1-1.1,1.1c-4,0-8-0.2-12-0.7c-4.7-0.7-8-5.6-7.6-10.7
	c0-3.8,2.4-7.2,6-8.6c1.4-0.5,2.8-0.7,4.2-0.7c2.9-0.1,5.7-0.1,8.6,0c0.7,0,1.9-0.2,1.9,0.9s-1.1,0.9-1.9,0.9
	C152.6,35.9,151,35.9,149.4,35.9L149.4,35.9z"/>
<path class="st0" d="M101,25.5c3.2,0,6.3,0,9.4,0c3.4,0,6.7,0.2,10.1,0.2c6.2,0,12.6,5.7,12.6,12.5c0,4.8,0,9.6,0,14.4
	c0,0.5-0.4,1-0.6,1.4c-0.4-0.5-1.1-0.9-1.1-1.4c-0.1-2.2,0-4.5,0-6.7c0.1-2.9,0-5.8-0.2-8.7c-0.7-5.3-4.2-8.3-9.3-9.3
	c-3.6-0.5-7.2-0.7-10.8-0.7c-2.9-0.1-5.7,0.1-8.6,0.1C101.7,27.3,100.7,27.2,101,25.5z"/>
<path class="st0" d="M124.1,127.3c-3.2,2.2-5.9,1-6.3-2.8c-0.1-1.2,0-2.4,0.2-3.6c0.7-2.8,3.6-4.1,6-1.7l0.3-0.9h2.3v11.3
	c0,0,0,0.1,0,0.1c-0.4,1.9-2.1,2.9-4.7,2.8c-2.3-0.1-3.4-1-3.6-3.1c1.1,0,2.1-0.5,3.2,0.5c0.7,0.5,1.7,0.4,2.2-0.3
	c0.2-0.2,0.3-0.5,0.3-0.8C124.1,128.4,124.1,127.8,124.1,127.3z M124.1,123.1c0-0.3,0.1-0.8-0.1-1.1c-0.4-0.6-1-1.4-1.6-1.5
	c-0.9-0.2-1.5,0.6-1.6,1.4c-0.1,0.7-0.1,1.5,0,2.3c0.1,0.9,0.6,1.7,1.6,1.7s1.5-0.8,1.7-1.7C124.1,123.9,124.1,123.6,124.1,123.1
	L124.1,123.1z"/>
<path class="st0" d="M2.4,25.5c-1.4-2.3-2.2-5-2.2-7.7C-0.3,12.9,1.4,8,4.8,4.4C7,2,10.1,0.6,13.4,0.5c5.3-0.3,10.6-0.2,16-0.3
	C30,0.2,30.9,0,31,1.1s-0.9,1.1-1.6,1.1C25.2,2.2,21.1,2,17,2.1c-2.8,0-5.7,0.3-8.2,1.8c-5.3,3.1-7.4,8.6-6.8,14.4
	c0.2,1.8,0.7,3.5,1.2,5.2c0.4,0.8,0,1.7-0.8,2.1C2.5,25.5,2.4,25.5,2.4,25.5z"/>
<path class="st0" d="M162,54.6c-1.6,0.3-1.9-0.3-1.9-1.4c0-4.9,0.1-9.8,0-14.7c-0.1-1.5-0.3-2.9-0.6-4.4c-0.6-2.7-2.5-4-5-4.7
	c-3.9-1.1-7.8-0.8-11.7-0.7c-1.4,0-2.8,0-4.1-0.2c-0.4,0-0.7-0.6-1.1-0.9c0.3-0.4,0.7-0.7,1.1-1c0.3-0.1,0.6-0.2,0.9-0.1
	c3.8,0,7.5-0.1,11.3,0.2c2.2,0.2,4.3,0.8,6.3,1.7c2.7,1.2,4.5,3.8,4.5,6.8c0.3,4.7,0.3,9.4,0.4,14.1C162,51.1,162,52.9,162,54.6z"/>
<path class="st0" d="M71.1,129.4c1.2,0.1,2.2-0.3,3.2,0.6c0.8,0.8,2.2,0,2.4-1.2c0-0.5,0-1,0-1.5c-2.9,2.1-5.3,1.1-6-2.3
	c-0.2-1.1-0.2-2.3,0.1-3.4c0.7-3.4,3.2-4.3,5.9-2.1c0.4-1.6,1.6-0.7,2.6-0.9c0,3.7,0.2,7.3-0.1,10.9c-0.1,2.3-2.5,3.4-5.3,2.9
	C72.1,132,71.3,131.3,71.1,129.4z M76.7,123.4c0-0.1,0-0.3,0-0.4c-0.1-1.4-0.7-2.3-1.6-2.2c-1.3,0.1-1.6,1.1-1.7,2.2v0.4
	c0,1.6,0.6,2.6,1.6,2.7S76.7,125.1,76.7,123.4L76.7,123.4z"/>
<path class="st0" d="M128.1,53.8c-1.6,0.3-2-0.4-2-1.6c0-4.2,0-8.3,0-12.5s-2-6.4-6.2-6.9c-4-0.3-8-0.4-12.1-0.3c-2,0-3.9,0-5.9-0.1
	c-0.4-0.1-0.8-0.4-1-0.8c-0.2-0.7,0.3-1,1-1c6.1,0.1,12.3,0,18.4,0.3c4,0.2,7.2,3.4,7.6,7.4c0.3,3.5,0.1,7,0.2,10.5
	C128.1,50.4,128.1,52.1,128.1,53.8z"/>
<path class="st0" d="M240.4,86.2V88h-8.3c-2.5,0-5.1,0-7.6,0c-3.1,0.1-5.1,2-6.5,4.5c-2.6,4.5-1.9,11.4,1.3,14.9
	c0.5,0.6,1,1.3,0.2,1.8c-0.6,0.1-1.2-0.1-1.7-0.5c-1.8-1.9-2.5-4.3-3-6.8c-0.9-4.4,0.1-9,3-12.5c1.7-2.2,4.4-3.5,7.2-3.4
	c4.8-0.1,9.6,0,14.4,0C239.6,86,240,86.1,240.4,86.2z"/>
<path class="st0" d="M39.3,93.4c1.3,0.5,2.2,0.8,3.2,1.2c0.8,0.4,1.8,0.1,2.2-0.7c0.1-0.1,0.1-0.2,0.1-0.4c0.1-0.5,0.1-1.1,0.2-1.6
	c-0.2,0-0.3-0.1-0.3,0c-1.8,2-4.9,1.3-5.5-1.8c-0.3-1.5-0.3-3.1,0.1-4.6c0.8-3,3.7-3.6,5.6-1.5c0.4-1.6,1.6-0.8,2.6-0.9
	c0.1,0.3,0.1,0.6,0.2,0.9c0,3.2,0,6.4-0.1,9.7c-0.1,2-1.4,3.1-3.5,3.3s-3.8-0.6-4.4-2.2C39.3,94.3,39.3,93.8,39.3,93.4z M44.8,87.9
	c0-1.6-0.6-2.7-1.6-2.7s-1.7,1-1.7,2.6s0.6,2.7,1.6,2.7S44.8,89.5,44.8,87.9z"/>
<path class="st0" d="M183.8,114.6h2.8v13.9c-1-0.3-2.3,0.8-3-0.9c-1.1,1-2.3,1.7-3.8,0.9c-1.4-0.8-2.3-2.3-2.3-3.9
	c-0.1-1.3,0-2.7,0.4-4c1-3.1,3.9-3.4,5.9-1.3L183.8,114.6z M180.4,123.3c0,1.8,0.6,2.7,1.7,2.8c1.1,0,1.8-0.9,1.8-2.8
	s-0.7-2.9-1.8-2.8C181,120.5,180.4,121.6,180.4,123.3L180.4,123.3z"/>
<path class="st0" d="M39,128.4h-2.5l-0.2-0.9c-0.1,0-0.2,0.1-0.3,0.2c-1.7,1.6-3.8,1.3-4.9-0.8c-1.1-2.1-1.1-4.7,0-6.8
	c1.1-2.2,3-2.5,5.4-0.7v-4.4H39L39,128.4z M36.4,123.4c0-1.7-0.6-2.8-1.7-2.8s-1.6,1.1-1.6,2.8s0.6,2.6,1.6,2.7
	S36.4,125.2,36.4,123.4L36.4,123.4z"/>
<path class="st0" d="M214.9,34.7c0.6-0.2,1.2-0.4,1.8-0.5c3.5,0.1,7.1,0,10.6,0.5c6.6,1.1,8.9,9.5,6.2,14.3
	c-1.9,3.8-5.9,6.1-10.2,5.8c-3.3-0.1-7.3-3.6-7.8-6.8c0-0.7,0.1-1.3,0.3-1.9h0.4c0.2,0.3,0.4,0.6,0.5,0.9c0.6,3.2,3.2,5.8,6.5,6.3
	c3.7,0.6,7.4-1.4,9-4.7c2.7-5.3,0-11.5-5.7-12.6c-2-0.2-4-0.3-6-0.2c-1.5,0-2.9-0.1-4.4-0.3C215.8,35.3,215.5,35,214.9,34.7z"/>
<path class="st0" d="M156.2,49.1V51c-1.3,0-2.6,0-3.9,0c-2.9,0-5.7-0.2-8.5-0.6c-3.3-0.6-4.7-3.2-4.5-6.8c0.2-3.2,2.2-5.6,5.4-5.8
	c3.8-0.3,7.6-0.1,11.5-0.1v1.6c-1.7,0-3.5,0-5.2,0c-2,0-4,0.1-6,0.3c-2.3,0.2-4,2.1-3.9,4.4c-0.2,2.4,1.6,4.5,4,4.7c0,0,0,0,0,0
	c2.4,0.3,4.9,0.2,7.4,0.3C153.7,49.1,154.9,49.1,156.2,49.1z"/>
<path class="st0" d="M30.8,5.4c0.3,1.4-0.2,1.8-1.5,1.8c-4-0.1-8-0.3-12.1-0.2c-1.6,0-3.2,0.2-4.8,0.6c-3.5,1-5.3,3.7-5.8,8
	c-0.2,1.6,0.4,3.3,0.5,5c0,0.5-0.5,1.1-0.8,1.6c-0.4-0.3-0.9-0.5-1-0.9C3.6,16.3,5,10.7,9,7.2c1.9-1.4,4.2-2.2,6.6-2.1
	c4.4-0.1,8.9,0,13.3,0C29.6,5.1,30.2,5.2,30.8,5.4z"/>
<path class="st0" d="M143.7,154.7c1.1,0.4,2.4-0.7,3,1c0.3-0.3,0.6-0.5,0.9-0.7c1.7-1.1,4.2-0.3,4.3,1.6c0.2,2.7,0.1,5.5,0.1,8.3
	h-2.7v-4.2c0-0.5,0-1.1,0-1.6c-0.1-0.9,0-2-1.2-2c-1.2,0-1.5,1.1-1.5,2.1c0,1.9,0,3.8,0,5.8h-2.9L143.7,154.7L143.7,154.7z"/>
<path class="st0" d="M162.3,161.7c-0.6,2.4-2,3.6-4.1,3.6c-2,0.2-3.9-1.1-4.3-3.1c-0.3-1.5-0.3-3.1,0-4.6c0.4-1.9,2.1-3.2,4-3.1
	c2-0.1,3.7,1.1,4.2,3.1c0.2,1,0.4,2.1,0.5,3.1h-6.5c0.6,0.9,0.9,1.9,1.4,2.1c0.6,0.2,1.3-0.4,2-0.6
	C160.4,162,161.3,161.8,162.3,161.7z M159.7,158.8c0-1.5-0.6-2.2-1.7-2.1s-1.5,0.8-1.4,2.1H159.7z"/>
<path class="st0" d="M131.1,165c-0.9-0.3-2.2,0.7-2.9-0.7c-0.7,0.4-1.5,0.8-2.3,1c-1.4,0.3-2.7-0.5-3.1-1.8c0,0,0,0,0-0.1
	c-0.6-1.6,0.1-3.3,1.6-4c0.8-0.3,1.8-0.4,2.6-0.7c0.5-0.2,0.9-0.5,1.2-0.9c0.1-0.1-0.3-0.8-0.6-0.9c-0.5-0.1-1.4-0.1-1.6,0.2
	c-0.9,1.3-1.9,0.6-3,0.7c0.3-2.4,1.6-3.4,4.3-3.3c2.3,0,3.4,1,3.6,3.3c0.1,1.4,0,2.9,0.1,4.3C131,163,131.1,164,131.1,165z
	 M128.5,160.2c-0.7,0.1-1.5,0.3-2.1,0.6c-0.4,0.2-0.8,0.6-0.9,1.1c0,0.5,0.3,0.9,0.6,1.1c0.5,0.1,1.1,0,1.6-0.4
	C128,161.9,128.3,161.1,128.5,160.2L128.5,160.2z"/>
<path class="st0" d="M147.8,128.4c-1-0.3-2.3,0.8-3-0.9l-0.6,0.4c-1,0.8-2.4,1-3.5,0.3c-1.5-1.1-1.7-3.1-0.7-4.6
	c0.4-0.6,1-1,1.7-1.2c0.7-0.1,1.3-0.3,2-0.4c0.5-0.2,0.9-0.5,1.2-0.9c0.1-0.1-0.3-0.9-0.5-0.9c-0.5-0.1-1.4-0.1-1.6,0.2
	c-0.9,1.2-1.9,0.7-3,0.7c0.4-2.3,1.6-3.3,4.2-3.3c2.3,0,3.4,0.9,3.6,3.2c0.1,1.6,0.1,3.2,0.1,4.8
	C147.6,126.7,147.8,127.5,147.8,128.4z M145.1,123.7c-0.7,0.1-1.4,0.3-2,0.6c-0.5,0.3-0.8,0.7-1,1.2c0,0.5,0.3,0.9,0.7,1.1
	c0.6,0.1,1.1-0.1,1.5-0.4C144.7,125.3,145,124.5,145.1,123.7z"/>
<path class="st0" d="M192.7,165c-2.5,0.2-2.5,0.2-3-0.8c-0.4,0.2-0.7,0.5-1.1,0.7c-1.3,0.9-3.1,0.5-3.9-0.8c0-0.1-0.1-0.1-0.1-0.2
	c-0.8-1.6-0.3-3.6,1.3-4.4c0,0,0.1,0,0.1-0.1c0.8-0.3,1.7-0.4,2.6-0.7c0.5-0.2,0.8-0.5,1.1-0.9c0.1-0.1-0.2-0.8-0.4-0.8
	c-0.5-0.1-1.4-0.2-1.6,0.1c-0.9,1.2-1.9,0.7-3.2,0.8c0.1-0.5,0.3-1.1,0.6-1.6c0.8-1.4,2.9-2.1,4.9-1.6c1.7,0.4,2.4,1.3,2.5,3.2
	c0.1,1.4,0,2.9,0.1,4.3C192.5,163,192.6,164,192.7,165z M189.6,160.2c-1,0.6-2.8,0.1-2.6,2c0,0.4,0.8,0.9,1.3,0.9
	C189.4,163.1,189.8,162.2,189.6,160.2L189.6,160.2z"/>
<path class="st0" d="M69.4,123.5c0,3.4-1.7,5.4-4.8,5.2c-1.7,0-3.2-1-3.7-2.6c-0.7-1.6-0.7-3.4-0.2-5c0.7-2.2,2.4-3.2,4.9-2.9
	c2.1,0.3,3.7,2,3.8,4.1C69.4,122.7,69.4,123.1,69.4,123.5z M63.2,123.5c0,1.9,0.6,2.9,1.7,2.9s1.7-1.1,1.7-2.8s-0.6-2.9-1.7-2.9
	S63.2,121.6,63.2,123.5L63.2,123.5z"/>
<path class="st0" d="M45.5,123.4c0-3.6,2.1-5.6,5.4-5.1c0.3,0,0.5,0.1,0.8,0.2c2.4,0.9,3.6,4,2.6,7.2c-0.7,2.3-3.1,3.7-5.4,3
	C46.7,128.2,45.4,126.3,45.5,123.4z M51.7,123.5c0-1.9-0.6-2.9-1.7-2.8s-1.7,1.1-1.7,2.9s0.6,2.8,1.7,2.8S51.7,125.3,51.7,123.5
	L51.7,123.5z"/>
<path class="st0" d="M49.6,160.4c-0.1,4-2.9,6.3-6.3,4.9c-2.1-0.8-3-3.1-2.7-6.3c0.1-2.1,1.7-3.8,3.8-4.1
	C47.6,154.5,49.7,156.7,49.6,160.4z M46.8,160.2c0-1.8-0.7-2.9-1.8-2.9s-1.7,1.1-1.7,2.9s0.7,2.9,1.8,2.9S46.8,162,46.8,160.2z"/>
<path class="st0" d="M168.1,121.3c0-0.4,0.1-0.7,0.1-1.1c0.6-1.7,2.4-2.6,4.8-2.3c1.7,0.1,2.9,1.5,2.9,3.1c0,0.1,0,0.1,0,0.2
	c0,1.4,0,2.8,0,4.2c0,1,0.2,1.9,0.3,3c-1-0.2-2.3,0.7-3-0.8c-0.2,0.2-0.5,0.4-0.7,0.5c-1,0.8-2.4,0.9-3.5,0.2
	c-1.2-0.8-1.3-2-1.1-3.2c0.1-1.3,1-2.3,2.3-2.5c0.6-0.2,1.3-0.2,1.9-0.5c0.5-0.2,0.9-0.5,1.1-0.9c0.1-0.1-0.3-0.8-0.5-0.9
	c-0.5-0.1-1.4-0.1-1.6,0.2C170.2,121.7,169.2,121.2,168.1,121.3z M173.5,123.6c-0.7,0.1-1.4,0.3-2.1,0.6c-0.4,0.2-0.8,0.6-0.9,1.1
	c-0.1,0.4,0.3,1.1,0.6,1.1c0.5,0.1,1.1,0,1.6-0.4C173.1,125.3,173.4,124.5,173.5,123.6L173.5,123.6z"/>
<path class="st0" d="M196.7,128.5c-0.9-0.4-2.2,0.7-3-0.9c-0.3,0.2-0.6,0.4-0.9,0.6c-1.3,0.9-3.1,0.6-4-0.6
	c-0.1-0.1-0.1-0.2-0.2-0.2c-0.9-1.6-0.3-3.6,1.3-4.4c0.1,0,0.1-0.1,0.2-0.1c0.8-0.3,1.7-0.4,2.4-0.7c0.5-0.2,0.9-0.5,1.2-0.9
	c0.1-0.1-0.3-0.9-0.5-0.9c-0.5-0.1-1.4-0.1-1.6,0.2c-0.8,1.1-1.9,0.7-3,0.7c0-0.4,0.1-0.7,0.2-1.1c0.6-1.7,2.4-2.5,4.8-2.2
	c1.6,0.1,2.9,1.6,2.8,3.2c0.1,1.5,0,2.9,0.1,4.4C196.5,126.5,196.6,127.4,196.7,128.5z M193.9,123.7c-0.6,0.1-1.2,0.2-1.8,0.5
	c-0.5,0.3-0.8,0.8-1,1.3c-0.1,0.3,0.6,1.1,0.8,1c0.6-0.1,1.2-0.3,1.6-0.8C193.8,125.3,193.7,124.5,193.9,123.7z"/>
<path class="st0" d="M53.9,165.2h-2.6v-9.9c1,0.2,2.3-0.9,2.8,0.9c0.5-0.4,1-0.7,1.6-1c1.3-0.6,2.8-0.1,3.4,1.2
	c0.2,0.3,0.3,0.7,0.3,1.1c0.2,2.5,0,5.1,0,7.7h-2.6c0-1.4,0-2.8,0-4.2c0.1-0.7,0-1.4-0.1-2.1c-0.1-0.6-0.5-1-1-1.3
	c-0.8-0.3-1.4,0.3-1.4,1.2c-0.1,1.6-0.1,3.1-0.2,4.7C53.8,163.9,53.9,164.5,53.9,165.2z"/>
<path class="st0" d="M30.1,161h-6.2c0.5,0.9,0.7,1.8,1.2,2s1.3-0.3,2-0.5c0.9-0.2,1.7-0.4,2.7-0.6c-0.1,1.8-1.6,3.3-3.4,3.6
	c-1.9,0.4-3.7-0.7-4.5-2.4c-0.7-1.7-0.8-3.6-0.1-5.4c0.5-1.7,2.2-2.9,4-2.8c1.8,0,3.4,1.2,3.9,2.9C29.9,158.9,30,160,30.1,161z
	 M24.1,159h3.2c0-1.1-0.4-1.9-1.5-2S24.3,157.9,24.1,159L24.1,159z"/>
<path class="st0" d="M257.5,22.9c0.1,0.8,0.2,1.7,0.2,2.5c0,7.3,0,14.7,0,22c0,0.9,0.1,1.8,0.4,2.7c0.4,2.3,2.4,3.9,4.7,3.8
	c2.5,0.2,4.9,0.2,7.4,0.1c0.9,0,1.6,0,1.8,1.4c-0.7,0.2-1.4,0.3-2.1,0.3c-2.7-0.1-5.4-0.2-8-0.6c-3.1-0.4-5.3-3.2-5.3-6.8
	c-0.1-8,0-16,0-24.1c0.1-0.6,0.3-1.1,0.6-1.6L257.5,22.9z"/>
<path class="st0" d="M37.7,87.3c0,4.3-1.9,6.3-5.1,6c-1.6-0.1-3-1.3-3.4-2.8c-0.7-2.4-0.7-4.8,1.2-6.7c1.2-1.2,3.1-1.5,4.7-0.7
	C36.8,83.7,37.8,85.4,37.7,87.3z M35,88c0-1.8-0.6-2.9-1.7-2.9s-1.7,1.1-1.7,2.9s0.6,2.8,1.7,2.8S34.9,89.8,35,88z"/>
<path class="st0" d="M69,165.2c-2.2,0.3-2.3,0.3-3-0.7l-0.5,0.4c-0.9,0.8-2.3,0.9-3.4,0.4c-1-0.6-1.5-1.8-1.3-3c0-1.3,1-2.4,2.3-2.6
	c0.7-0.1,1.3-0.3,2-0.5c0.4-0.2,0.8-0.5,1.1-0.9c0.1-0.1-0.2-0.8-0.4-0.8c-0.5-0.1-1.3-0.2-1.5,0c-0.8,1.2-1.9,0.8-3.1,0.8
	c0.1-1.5,0.7-2.6,2.1-2.9c1.2-0.2,2.4-0.3,3.6-0.1c1.1,0.2,1.9,1.1,1.9,2.2c0.1,1.7,0.1,3.4,0.2,5.1C68.9,163.4,69,164.3,69,165.2z
	 M66.3,160.6c-0.7,0.1-1.3,0.3-1.9,0.6c-0.4,0.3-0.7,0.8-0.9,1.3c0.1,0.4,0.3,0.8,0.7,0.9c0.5,0.1,1.1-0.1,1.5-0.5
	C66.1,162.2,66.3,161.4,66.3,160.6z"/>
<path class="st0" d="M21.1,121.4c0.7-3,4.4-4.3,6.5-2.4c0.6,0.8,1,1.7,1.1,2.8c0.1,1.3,0.1,2.6,0.1,3.9c0,0.9,0.1,1.8,0.2,2.9
	l-2.9-0.4v-0.4c-0.3,0.2-0.5,0.3-0.8,0.5c-1,0.7-2.4,0.8-3.4,0.1c-0.9-0.7-1.4-1.9-1.1-3c0.1-1.3,1-2.3,2.3-2.5
	c0.7-0.1,1.3-0.3,1.9-0.5c0.4-0.2,0.8-0.5,1.1-0.8c0.1-0.1-0.2-0.8-0.4-0.8c-0.5-0.1-1.3-0.2-1.5,0.1
	C23.3,121.8,22.2,121.5,21.1,121.4z M26,123.9c-2.3,0.6-2.9,0.9-2.5,1.8c0.3,0.5,0.8,0.8,1.3,0.9C25.8,126.6,26.2,125.7,26,123.9
	L26,123.9z"/>
<path class="st0" d="M102.8,165.3c-0.9-0.2-2.2,0.7-2.9-0.8l-0.6,0.4c-0.9,0.8-2.3,1-3.4,0.4c-1.3-0.7-1.4-2-1.2-3.3
	c0.1-1.2,1-2.2,2.2-2.4c0.6-0.1,1.2-0.3,1.8-0.5c0.5-0.2,0.9-0.5,1.2-0.9c0.1-0.1-0.2-0.8-0.4-0.8c-0.5-0.1-1.4-0.1-1.6,0.1
	c-0.8,1.2-1.9,0.6-3,0.8c0.1-1.5,0.7-2.7,2.1-3c1.2-0.2,2.4-0.3,3.6-0.1c1.2,0.2,2,1.2,1.9,2.4c0.1,1.4,0,2.8,0.1,4.2
	C102.6,163,102.7,164.1,102.8,165.3z M99.9,160.7c-2.3,0.5-2.9,0.9-2.6,1.8c0.3,0.5,0.8,0.8,1.3,0.9
	C99.7,163.4,100.1,162.4,99.9,160.7z"/>
<path class="st0" d="M78.8,165.2h-2.7c0-2.1,0-4.2,0-6.3c0-1.3-1.1-2-1.9-1.2c-0.4,0.5-0.7,1.1-0.7,1.8c-0.1,1.3,0,2.6,0,3.9v1.8
	h-2.6v-9.9c1,0.3,2.2-0.8,2.7,0.7c0.8-0.4,1.7-0.7,2.6-0.9c1.2-0.3,2.4,0.4,2.6,1.6c0.1,0.2,0.1,0.4,0.1,0.7
	C78.9,159.9,78.8,162.5,78.8,165.2z"/>
<path class="st0" d="M56,86c0.3-2.3,1.6-3.2,3.8-3.2s3.3,0.9,3.5,3c0.1,1.4,0.1,2.9,0.1,4.3c0,0.9,0.1,1.8,0.2,3l-2.9-0.4v-0.4
	l-0.5,0.4c-0.9,0.8-2.3,0.9-3.4,0.3c-1.2-0.7-1.3-2-1.2-3.2c0.1-1.2,1-2.2,2.2-2.4c0.6-0.1,1.2-0.3,1.8-0.5c0.4-0.2,0.8-0.4,1.1-0.8
	c0.1-0.2-0.2-0.9-0.5-0.9C59.8,85,59,85,58.8,85.3C58.1,86.4,57.1,85.9,56,86z M60.7,88.3c-1,0.6-2.7,0.2-2.4,2
	c0,0.3,0.8,0.8,1.2,0.8C60.6,91.1,61,90.1,60.7,88.3z"/>
<path class="st0" d="M93.7,128.4c-0.7-0.1-1.9,0.7-2.7-0.7l-0.5,0.4c-1,0.8-2.3,0.9-3.4,0.3c-1.2-0.7-1.4-1.9-1.2-3.2
	c0.1-1.2,1-2.2,2.2-2.4c0.7-0.1,1.3-0.3,1.9-0.5c0.4-0.2,0.8-0.5,1.1-0.9c0.1-0.1-0.3-0.8-0.5-0.8c-0.5-0.1-1.3-0.1-1.5,0.1
	c-0.8,1.1-1.9,0.7-2.9,0.7c-0.1-1.4,0.8-2.6,2.1-2.9c3.3-1.1,5.4,0.4,5.4,3.9C93.7,124.4,93.7,126.4,93.7,128.4z M91,123.9
	c-2.4,0.5-2.9,0.9-2.6,1.9c0.3,0.5,0.7,0.8,1.3,0.8C90.8,126.6,91.2,125.6,91,123.9z"/>
<path class="st0" d="M80.3,92.2c-0.3,0.2-0.5,0.4-0.7,0.5c-1.6,1-3.3,0.7-4-0.8c-0.8-1.6-0.2-3.6,1.3-4.4c0,0,0,0,0.1,0
	c0.7-0.3,1.6-0.3,2.3-0.7c0.4-0.2,0.8-0.5,1.1-0.9c0.1-0.1-0.3-0.7-0.5-0.8c-0.5-0.1-1-0.1-1.5,0.2c-1.2,0.8-1.2,0.8-2.8,0.6
	c-0.1-1.1,0.5-2.1,1.5-2.6c1.3-0.8,3-0.8,4.4,0c0.7,0.5,1.2,1.3,1.4,2.2C83,87,83,88.5,83,89.9c0,1,0.2,1.9,0.2,3
	C82.3,92.7,81.1,93.5,80.3,92.2z M80.3,88.3c-0.9,0.5-2.6,0-2.5,1.8c0,0.3,0.8,0.9,1.3,0.9C80.1,91.1,80.5,90.1,80.3,88.3L80.3,88.3
	z"/>
<path class="st0" d="M163.1,120.6h-4v-2.3h7.5c0.4,1.2,0.1,2.4-0.7,3.3c-1.2,1.3-2.3,2.7-3.6,4.4h4.4v2.4h-7.9
	c-0.4-1.2-0.1-2.5,0.8-3.5C160.8,123.6,161.8,122.2,163.1,120.6z"/>
<path class="st0" d="M39.4,157.7c-1.5-0.1-2.6,0.4-3.5-0.7c-0.2-0.2-1.1,0.1-1.7,0.2c0.3,0.4,0.4,1.1,0.8,1.3
	c0.8,0.4,1.6,0.7,2.5,0.9c1.6,0.6,2.3,2.4,1.7,4c-0.1,0.3-0.3,0.6-0.6,0.9c-1.5,1.8-5.6,1.7-6.9-0.3c-0.3-0.6-0.5-1.1-0.7-1.7
	c1.3,0.1,2.5-0.6,3.3,0.8c0.3,0.3,0.8,0.5,1.2,0.4c0.4-0.1,0.8-0.5,1.1-0.7c-0.3-0.4-0.4-0.9-0.8-1.1c-1-0.5-2-0.7-3-1.2
	c-1.4-0.8-1.9-2.6-1.1-4c0.2-0.4,0.5-0.7,0.9-1c1.7-1,3.7-0.9,5.3,0.2C38.5,156.4,39,157,39.4,157.7z"/>
<path class="st0" d="M183.1,161.3c-0.3,2.4-1.6,3.8-3.6,4c-2.1,0.3-4.1-1-4.6-3c-0.6-1.8-0.5-3.7,0.2-5.4c0.8-1.9,2.9-2.9,4.9-2.4
	c1.8,0.3,2.9,1.5,3.2,3.8c-1.2-0.2-2.4,0.7-3.3-1c-0.4-0.7-1.3-0.6-1.8,0.1c-0.7,0.9-0.8,3.9-0.1,4.8c0.6,0.7,1.5,0.8,1.8,0.1
	C180.6,160.8,181.9,161.4,183.1,161.3z"/>
<path class="st0" d="M88.7,158.8c-1.2,0-2.4,0.5-3.2-1c-0.4-0.7-1.7-0.4-1.9,0.5c-0.2,1.3-0.2,2.6,0,3.9c0,0.3,0.8,0.9,1,0.8
	c0.7-0.3,1.2-0.7,1.6-1.4h2.4c0.1,1.7-0.9,3.2-2.4,3.7c-1.7,0.7-3.6,0.1-4.7-1.3c-1.4-2.3-1.4-5.2,0-7.5c1.1-1.5,3.1-2,4.8-1.4
	C87.8,155.7,88.8,157.2,88.7,158.8z"/>
<path class="st0" d="M221.9,37.3c1.1,0.1,2.3,0.2,3.4,0.2c3.3-0.4,5.7,2.6,6.2,5.2c0.8,4.7-1.7,9.3-7.4,9.1c-2.3,0-4.4-1.4-5.4-3.5
	c-0.2-0.4-0.3-0.9-0.3-1.4c0-0.3,0.4-0.5,0.6-0.8c0.3,0.2,0.7,0.4,0.7,0.7c0.5,3.6,5.7,4.5,8.4,2.3c2.3-1.8,2.8-4.2,1.7-7.4
	c-0.7-1.9-2.4-3-5.1-3c-2.2,0-4.4,0-6.6,0c-0.5,0-1,0-1.5-0.1c-0.4-0.1-0.7-0.3-1-0.6c0.4-0.2,0.7-0.7,1.1-0.7
	C218.3,37.2,220,37.3,221.9,37.3z"/>
<path class="st0" d="M27.8,89.3c-0.2,2.3-1.4,3.6-3.2,3.9c-1.9,0.4-3.9-0.8-4.5-2.7c-0.6-1.7-0.6-3.5,0-5.1c0.6-2,2.6-3.2,4.6-2.7
	c1.8,0.2,2.9,1.4,3.2,3.7c-1.2,0-2.4,0.6-3.2-1c-0.3-0.7-1.6-0.4-1.8,0.4c-0.2,1.3-0.2,2.7,0,4c0,0.6,0.5,1,1.1,0.9
	c0.3,0,0.7-0.2,0.8-0.5C25.5,88.9,26.6,89.3,27.8,89.3z"/>
<path class="st0" d="M2.5,79.2c3.8-3.3,8.3-2.3,12.7-2.3c0.2,0,0.4,0.2,0.7,0.3c-0.6,1.3-1.7,1.2-2.7,1.1c-1.6,0-3.1-0.2-4.7-0.2
	c-5.4,0.1-7.3,4.3-6.5,8.4c0.5,3.2,3.4,5.5,6.6,5.4c1.3,0,2.7-0.1,4-0.2c1.2-0.3,2.5,0.1,3.5,1c-1,0.2-2,0.3-3,0.4
	c-2,0-3.9-0.1-5.9-0.2c-3-0.1-4.7-1.8-5.8-4.4C0,85.4,0,82.5,2.2,79.7C2.3,79.5,2.4,79.3,2.5,79.2L2.5,79.2z"/>
<path class="st0" d="M14.4,152.1c0.3-0.9,0.7-1.8,1-2.7c1.3-3.8,0.5-8.2-4.7-9.7c-2.8-0.8-5.7-0.6-8.8-0.5v10.9
	c-1,0-1.3-0.4-1.3-1.2c0-3.2,0-6.4,0-9.5c0-0.9,0.3-1.3,1.3-1.3c2.9,0.1,5.9-0.1,8.8,0.3c4.9,0.7,7.5,4.8,6.5,9.6
	c-0.2,0.9-0.5,1.7-0.7,2.6c-0.1,0.9-0.9,1.5-1.8,1.4C14.5,152.1,14.4,152.1,14.4,152.1L14.4,152.1z"/>
<path class="st0" d="M14.9,115.7c0-0.6-0.3-1.4,0-1.9c2.7-4.9,0.4-10.1-5.2-10.9c-2.5-0.4-5.1-0.4-7.8-0.6v11.2
	c-1,0-1.4-0.3-1.4-1.2c0-3.2,0-6.4,0-9.7c0-0.6,0.1-1.2,0.9-1.1c3.1,0.1,6.3-0.2,9.4,0.3c4.7,0.8,7.2,4.8,6.3,9.6
	c-0.1,0.7-0.3,1.5-0.5,2.2C16.4,114.6,15.8,115.4,14.9,115.7L14.9,115.7z"/>
<path class="st0" d="M260.5,22.9c0.1,0.9,0.3,1.9,0.3,2.8c0.1,7.4,0.1,14.8,0.1,22.2c-0.1,1.6,1,2.9,2.6,3.1c0.1,0,0.1,0,0.2,0
	c1.9,0.3,3.8,0.2,5.8,0.3c0.8,0,1.6,0.2,2.4,0.4v0.4c-0.4,0.2-0.9,0.4-1.4,0.4c-2.3,0-4.7,0-7-0.3c-2.2,0-4-1.8-4-4c0,0,0-0.1,0-0.1
	c-0.2-2.5-0.1-4.9-0.2-7.4c0-5.1,0-10.3,0-15.5c0.1-0.8,0.2-1.6,0.4-2.4L260.5,22.9z"/>
<path class="st0" d="M163.3,156.5c-0.2-0.9-0.3-1.8,1.1-1.9V152h2.8c0,0.9,0.1,1.8,0.1,2.7l1.3,0.3v1.7l-1.3,0.3c0,1.7-0.1,3.3,0,5
	c0,0.5,0.7,0.9,1,1.4l0.3-0.2v1.8c-2.7,0.9-3.9,0.2-4.2-2.5c-0.1-1.4-0.1-2.9-0.1-4.3C164.4,156.9,164.4,156.9,163.3,156.5z"/>
<path class="st0" d="M138.4,126.6v1.7c-2.6,1-4.1,0.2-4.2-2.5c-0.1-1.4-0.1-2.8,0-4.1c0-0.9,0-1.6-1.2-1.5v-1.6c2.2-0.2,0.7-2,1.4-3
	h2.5l0.1,2.8l1.4,0.2v1.7l-1.4,0.3c0,1.7-0.1,3.3,0,4.9c0,0.5,0.7,0.9,1,1.4L138.4,126.6z"/>
<path class="st0" d="M68.1,83.1l1.7,0.3V85l-1.3,0.3v7.6h-2.8c0-2.2,0-4.3,0-6.4c-0.1-0.6-0.4-1.1-0.9-1.5c-0.3-0.8-0.6-1.8,0.8-1.8
	c0.1-0.6,0.1-1.2,0.2-1.7c0.2-1.4,1.6-2.4,3-2.2c0.2,0,0.3,0.1,0.4,0.1c0.3,0.2,0.5,0.4,0.5,0.7c-0.1,0.5-0.2,0.9-0.5,1.3
	C69,82,68.6,82.6,68.1,83.1z"/>
<path class="st0" d="M152.3,128.4h-2.6v-13.8h2.6V128.4z"/>
<path class="st0" d="M15.9,80c-1.3,0.8-2.8,0.5-4.3,0.5c-1.5-0.1-3,0-4.5,0.2c-2,0.6-3.3,2.7-3,4.8c0.4,2.5,1.9,4,4.2,4.1
	c1.8,0,3.7,0,5.5,0c0.7,0,1.4,0.1,2.1,0.3c0.1,1.1-0.5,1.3-1.2,1.3c-2.3-0.1-4.7-0.1-7-0.3c-2.7-0.3-4.8-2.5-4.7-5.3
	c-0.1-2.4,0.3-4.6,2.8-5.7c0.7-0.3,1.4-0.5,2.2-0.5c2-0.1,3.9-0.2,5.9-0.2c0.7,0.1,1.4,0.2,2.1,0.4V80z"/>
<path class="st0" d="M56.1,115h2.6v13.3c-0.3,0-0.5,0.1-0.7,0.1h-1.9V115z"/>
<path class="st0" d="M14.4,152.1c1.7,1,2.7,2.8,2.9,4.8c0.2,2.8,0,5.6,0,8.4c-1.3,0.1-1.4-0.7-1.4-1.5c0-2.1,0.1-4.3,0-6.4
	c0.1-2.2-1.5-4.2-3.7-4.6c-1.7-0.3-3.4-0.5-5.2-0.6c-1.5-0.1-3,0-4.4,0c-0.7-0.1-1.3-0.2-2-0.4C2.3,150.2,11.5,150.6,14.4,152.1
	L14.4,152.1z"/>
<path class="st0" d="M14.9,115.7c1.8,1.8,2.8,4.3,2.6,6.9c0,2,0,4,0,6.1c-1.4,0.1-1.5-0.7-1.5-1.4c0-1.6,0-3.1,0.1-4.7
	c0.2-4.5-1.8-6.8-6.3-6.9c-2.2-0.1-4.4,0-6.6,0c-0.9-0.1-1.8-0.2-2.6-0.4C2.3,113.6,11.7,114.2,14.9,115.7L14.9,115.7z"/>
<path class="st0" d="M3,104c3.1-0.3,5.8-0.5,8.4,0.4c2.3,0.8,3.1,2.9,3.3,5.1c0.1,1.2-0.1,2.5-0.6,3.6c-0.2,0.6-0.9,0.9-1.4,1.4
	l-0.4-0.3c0.2-0.6,0.4-1.2,0.6-1.7c1.5-4.1-0.5-7.2-4.9-7.3c-3.8-0.2-3.8-0.2-3.8,3.7c0,1.6-0.2,3.3-0.2,4.9l-0.5,0.1
	c-0.2-0.3-0.5-0.7-0.5-1C3,109.7,3,106.9,3,104z"/>
<path class="st0" d="M3.6,150.4c-0.3-0.5-0.6-0.9-0.6-1.2c0-2.8,0-5.6,0-8.5c2.6-0.3,5.3-0.3,7.9,0.1c3.5,0.6,5,6.4,3.2,9.2
	c-0.4,0.4-0.8,0.8-1.3,1.1l-0.3-0.3c0.2-0.5,0.3-1.1,0.5-1.6c1.7-4.4-0.3-7.4-5-7.6c-3.6-0.2-3.6-0.2-3.6,3.4c0,1.6-0.2,3.1-0.3,4.7
	C4,149.9,3.8,150,3.6,150.4z"/>
<path class="st0" d="M51.9,92.9h-2.4v-9.8h2.3l0.2,1.1l2.7-1.7v3.3c-2.4,0.6-2.5,0.7-2.6,3.3v3.5C52.1,92.6,52,92.8,51.9,92.9z"/>
<path class="st0" d="M14.1,128.8c-0.3-0.5-0.4-1.1-0.5-1.7c-0.1-1.6,0-3.1,0-4.7c-0.1-2.8-1.6-4.4-4.5-4.4c-1.9,0-3.7,0.2-5.6,0.3
	c-1.1,0.2-2.3-0.2-2.9-1.2c0.6-0.3,1.3-0.5,2-0.6c2.4,0,4.8,0.1,7.2,0.3c3.7,0.5,4.7,1.4,5.2,5.1c0.1,2.2,0.1,4.4-0.1,6.6
	L14.1,128.8z"/>
<path class="st0" d="M0.6,153.8c0.4-0.2,0.8-0.6,1.3-0.6c3,0.1,5.9,0.1,8.8,0.4c2.6,0.3,3.8,2.1,4.2,4.6c0.3,2.3,0.2,4.7-0.3,7
	l-0.4,0.1c-0.3-0.5-0.5-1.1-0.6-1.6c-0.1-1.5,0-3,0-4.6c-0.1-3-1.5-4.5-4.5-4.6c-1.7,0-3.5,0.3-5.2,0.3c-1.1-0.1-2.1-0.2-3.2-0.4
	L0.6,153.8z"/>
<path class="st0" d="M233.1,23.6c-1.9,0.8-3.8,0.4-5.8,0.4c-1.6,0-3.3,0.1-4.9,0.4c-3.2,0.7-4.8,3-5.3,6.1c-0.2,1-0.4,1.9-0.6,2.8
	l-0.5,0.1c-0.2-0.3-0.6-0.7-0.5-1.1c0.5-6.6,3.5-9.6,10.2-9.9c1.8-0.1,3.7-0.1,5.5,0c0.7,0.1,1.4,0.3,2,0.6L233.1,23.6z"/>
<path class="st0" d="M2.5,79.1c-0.4-0.4-1.2-0.8-1.4-1.4c-1.7-4.3,0.5-10.9,7-11.1c2.1-0.1,4.2-0.1,6.3,0c0.6,0.1,1.1,0.3,1.6,0.5
	v0.5c-1,0.1-2,0.3-3.1,0.4c-1.9,0.1-3.9,0-5.8,0.2c-3.5,0.6-5.9,3.9-5.3,7.4C1.9,76,2,76.3,2.1,76.6C2.3,77.5,2.4,78.3,2.5,79.1
	L2.5,79.1z"/>
<path class="st0" d="M129,128.4v-10.1h2.7v10.1H129z"/>
<path class="st0" d="M157.2,128.4h-2.7v-10.1h2.7V128.4z"/>
<path class="st0" d="M172.9,154.9v10h-2.7v-10H172.9z"/>
<path class="st0" d="M116,118.3v10.1h-2.7v-10.1H116z"/>
<path class="st0" d="M219.2,33.4c-1.7-2.4,0.2-6.9,3.2-7.4c3.1-0.4,6.2-0.6,9.3-0.6c0.5,0,1,0.4,1.5,0.6v0.5
	c-0.7,0.2-1.4,0.3-2.1,0.4c-2.4,0.1-4.9,0-7.3,0.3s-3.2,1.3-3.8,3.8C219.8,31.7,219.5,32.6,219.2,33.4z"/>
<path class="st0" d="M84.1,118.6v9.8h-2.6v-9.8H84.1z"/>
<path class="st0" d="M71.1,83.1h2.5v9.8h-2.5V83.1z"/>
<path class="st0" d="M93,155.4v9.8h-2.6v-9.8H93z"/>
<path class="st0" d="M43.8,128.4h-2.5v-9.8h2.5L43.8,128.4z"/>
<path class="st0" d="M15.8,70.2c-1.4,0-2.8,0-4.1,0c-1.5,0-3,0.1-4.5,0.4c-2.2,0.7-3.5,3-3,5.3c0.1,0.5,0.1,1,0.2,1.6
	c-1.5-0.4-1.5-1.5-1.5-2.4c-0.3-3.1,2-5.8,5-6c0.2,0,0.4,0,0.5,0c2.1-0.1,4.2-0.1,6.3,0c0.4,0,0.9,0.4,1.3,0.7L15.8,70.2z"/>
<path class="st0" d="M129,114.6h2.7v2.5H129V114.6z"/>
<path class="st0" d="M157.2,117.1h-2.6v-2.5h2.6V117.1z"/>
<path class="st0" d="M172.9,151.2v2.5h-2.7v-2.5H172.9z"/>
<path class="st0" d="M116,117.1h-2.6v-2.5h2.6V117.1z"/>
<path class="st0" d="M90.4,154.2v-2.5H93v2.5L90.4,154.2z"/>
<path class="st0" d="M43.8,117.4h-2.5v-2.3h2.5L43.8,117.4z"/>
<path class="st0" d="M156.8,153.5c0.9-3.4,1.2-3.7,3.6-3.4C159.2,151.3,158.9,153.2,156.8,153.5z"/>
<path class="st0" d="M81.7,117.1c1.1-3.2,1.1-3.2,3.2-3.1C84,116,82.8,117.2,81.7,117.1z"/>
<path class="st0" d="M74.6,78.6c-1.3,1.1-1.6,2.9-3.4,3.3C72.1,78.4,72.3,78.3,74.6,78.6z"/>
<path class="st0" d="M44.8,87.9c0,1.6-0.7,2.7-1.7,2.6s-1.7-1.1-1.6-2.7s0.7-2.7,1.7-2.6S44.8,86.2,44.8,87.9z"/>
<path class="st0" d="M66.3,160.6c-0.1,0.8-0.3,1.6-0.6,2.3c-0.4,0.4-1,0.5-1.5,0.5c-0.4-0.2-0.6-0.5-0.7-0.9c0.1-0.5,0.4-1,0.9-1.3
	C65,160.9,65.7,160.7,66.3,160.6z"/>
<path class="st0" d="M94.2,37.8c0,6.7-4.5,11.4-10.9,11.6c-7.2,0.2-11.9-5.6-12-12.1s5.3-11.7,12.2-11.7
	C89.7,25.6,94.2,30.8,94.2,37.8z M73.2,37.5c-0.2,5.9,4.2,9.8,9.9,10c5.6,0.1,9.4-4,9.4-9.8s-3.9-10-9.4-10
	c-5.3-0.2-9.7,3.9-9.9,9.2C73.1,37,73.1,37.2,73.2,37.5z"/>
</svg>
