<svg id="Layer_1" data-name="Layer 1" xmlns="http://www.w3.org/2000/svg" viewBox="0 0 289.1 169.07">
  <defs>
    <style>
      .cls-1 {
        fill: #03a65a;
      }
    </style>
  </defs>
  <title>logo</title>
  <path class="cls-1" d="M174.2,182.38c-1.83-1.09-2-1.35-2.31-3,1.15,0,2.25-.4,3.33.6.87.8,2.32,0,2.47-1.21a14,14,0,0,0,0-1.6,4.66,4.66,0,0,0-.46.3,3.17,3.17,0,0,1-5.24-1,7.43,7.43,0,0,1-.39-5.61c.89-3.08,3.53-3.86,5.6-2.11l3.13-.79c0,4.11.08,7.9-.05,11.68,0,1.48-1.34,2.21-2.59,2.79Zm3.55-9c-.05-.57.05-1.07-.15-1.35-.43-.6-.94-1.39-1.56-1.54-1-.25-1.56.59-1.66,1.51a6.77,6.77,0,0,0,.13,2.62,1.9,1.9,0,0,0,1.38,1.15c.55,0,1.16-.63,1.57-1.14C177.73,174.25,177.68,173.66,177.75,173.34Z" transform="translate(-38.9 -13.31)"/>
  <path class="cls-1" d="M126.49,77.05l-85-.44c-.44,0-1,.13-1.31-.08a1.92,1.92,0,0,1-.89-1.26,1.5,1.5,0,0,1,1-1.12A24.66,24.66,0,0,1,44,74q43.58.17,87.14.35,11.37,0,22.72.18c15.46.21,30.92.53,46.38.68a139.38,139.38,0,0,1,18.5.93c7.27,1,13.62,3.82,18.21,9.76a23.19,23.19,0,0,1,4.71,14.17c.12,8.33,0,16.66,0,25,0,10.31,0,20.62.06,30.93a74.69,74.69,0,0,0,.54,7.9,12.36,12.36,0,0,0,10.59,11.15,89,89,0,0,0,14.26,1.57c13,.22,26.08.13,39.12.11a26.75,26.75,0,0,0,10.55-2.35,10.44,10.44,0,0,0,4.19-3.64c2.63-3.49,3-7.54,3.3-11.68,1-15.94,1.07-31.89,1.13-47.85,0-10.53.13-21.06.2-31.59a3.49,3.49,0,0,1,.13-1.46,1.39,1.39,0,0,1,1-.69,1.3,1.3,0,0,1,1,.71,7.94,7.94,0,0,1,.17,2.13c0,11.12-.11,22.23-.11,33.35,0,10.08.28,20.17.05,30.25a201,201,0,0,1-1.53,20.35c-1,8.22-6.59,13.52-14.88,14.59a84.42,84.42,0,0,1-10.19.54q-16.4.11-32.81,0c-5.59,0-11.2-.22-16.64-1.81l-1.41-.44c-6.23-1.92-9.55-6.18-10.06-12.64-.49-6.06-1.24-12.13-1.3-18.21-.14-14.65,0-29.31.1-44a27.26,27.26,0,0,0-1.62-9.88C235,85.61,229.72,81.87,223,79.9c-6-1.74-12.09-2.05-18.23-2.12q-39.12-.45-78.25-.82Z" transform="translate(-38.9 -13.31)"/>
  <path class="cls-1" d="M283.22,158.93a14.32,14.32,0,0,1-2.06.26c-5.24-.06-10.49.05-15.71-.28-6.12-.38-10.48-3.58-13.21-9.1-3.72-7.52-2.68-14.71,1.67-21.46a14,14,0,0,1,12.23-6.41c11.25-.09,22.51-.23,33.74.25A16.56,16.56,0,0,1,315.67,136a16.91,16.91,0,0,1,.3,2.92c0,6.09,0,12.18,0,18.23-1.76.37-1.89.29-1.89-1.24,0-5.6.09-11.2,0-16.8-.14-7-4.1-12.33-10.9-14.21a34.29,34.29,0,0,0-8.47-1c-8.25-.16-16.5-.18-24.74-.15a36.87,36.87,0,0,0-6.54.63c-5.37,1-8.68,4.55-10.33,9.48a18.9,18.9,0,0,0,2.53,17.74,12.32,12.32,0,0,0,10.48,5.51c4.12,0,8.25,0,12.37,0,1.25,0,2.5.12,3.75.24S283.38,157.51,283.22,158.93Z" transform="translate(-38.9 -13.31)"/>
  <path class="cls-1" d="M232.44,35.58c.4,1.34,0,1.89-1.37,1.86-2.73-.06-5.47,0-8.2,0-4.93-.08-8.61,1.72-11.06,6.26-3.1,5.74-2.82,13.21,1.27,18.29,2,2.46,4.81,3.63,7.85,4.24a15.8,15.8,0,0,0,2.92.29c4.17,0,8.34,0,12.51,0h1.84V15.77c1.72-.48,1.86.3,1.87,1.33,0,10.8.12,21.6.14,32.41,0,5.87-.08,11.74-.13,17.61,0,.35,0,.71-.06,1.26-1.13.09-2.23.27-3.32.25-5.28-.15-10.58-.11-15.83-.6-5.61-.53-9.56-3.7-11.68-9-2.62-6.53-1.67-12.71,2.21-18.44,2.2-3.25,5.67-4.68,9.41-5S228.57,35.58,232.44,35.58Z" transform="translate(-38.9 -13.31)"/>
  <path class="cls-1" d="M310.28,157.27c-1.25,0-1.6-.49-1.6-1.48,0-5,0-9.95-.06-14.92a19.4,19.4,0,0,0-.65-5.28c-1.07-3.45-3.92-5-7.22-5.62a36.89,36.89,0,0,0-6.79-.62q-13.38-.07-26.76.05c-3,0-5.84.82-7.7,3.36a12.49,12.49,0,0,0-2.31,10.17c1.25,5.92,4.79,8.74,10.89,8.79,4.08,0,8.15-.11,12.23-.21,1.91,0,2.6.29,3.05,1.75a3.21,3.21,0,0,1-1,.28c-5.6,0-11.2,0-16.79-.17-5.18-.18-8.83-3.94-9.93-8.69-1.18-5.08-.7-9.86,3-13.91a10.51,10.51,0,0,1,8.11-3.21c10.08-.07,20.17-.1,30.25,0,3.88,0,7.7.74,10.53,3.83a10.47,10.47,0,0,1,3,7.38c0,4.89,0,9.77,0,14.66C310.53,154.69,310.37,155.93,310.28,157.27Z" transform="translate(-38.9 -13.31)"/>
  <path class="cls-1" d="M236,64.07c-1.3,0-2.6,0-3.88,0-3.5-.09-7-.06-10.47-.35-4.09-.35-6.57-2.95-8.05-6.58a13.15,13.15,0,0,1,3.89-15.37,8.51,8.51,0,0,1,4.43-1.55c3.24-.24,6.51-.07,9.77-.13,1.32,0,1.68.55,1.28,1.87-2.62,0-5.29,0-8,0a28.41,28.41,0,0,0-4,.33,5.9,5.9,0,0,0-4.29,2.88c-3,4.76-2.71,10.45.54,14.22,2,2.3,4.61,2.58,7.3,2.72s5.28,0,7.92.08c1.37,0,1.5-.66,1.5-1.74q.1-19.89.24-39.79c0-1.21,0-2.42,0-3.62s0-1.09,1.41-1.44a7.8,7.8,0,0,1,.2,1.24q0,12.7,0,25.4c0,6.09,0,12.19,0,18.28C235.79,61.65,235.9,62.76,236,64.07Z" transform="translate(-38.9 -13.31)"/>
  <path class="cls-1" d="M138,51c.14,7.78-6.28,15.72-14.42,16.31a16.17,16.17,0,0,1-14.89-6.69A16.69,16.69,0,0,1,106,53.46c-1.48-8,3.73-16.46,11.31-18.62a16.12,16.12,0,0,1,20.21,12.21C137.72,48.36,137.81,49.7,138,51ZM122.41,36.26c-4.78-.23-8.39.89-11,3.94-4.35,5-5.48,13.39-1,19.5,4.67,6.42,13.94,7.87,20.07,3,3.17-2.53,4.79-6.05,5.62-9.94a12,12,0,0,0-1.67-9.37A15.65,15.65,0,0,0,122.41,36.26Z" transform="translate(-38.9 -13.31)"/>
  <path class="cls-1" d="M103.32,67.48a34.18,34.18,0,0,1-3.47.26c-4.66-.12-9.31-.23-14-.5a12.63,12.63,0,0,1-10.75-6.77c-3.72-6.69-3.75-13.41.69-19.8a12.84,12.84,0,0,1,10.07-5.9c5.79-.27,11.61-.07,17.5-.07v2a20.65,20.65,0,0,1-2.07.18c-4.43-.07-8.87-.23-13.3-.24a12.75,12.75,0,0,0-8.28,2.57,14.07,14.07,0,0,0-5,9.45,16.1,16.1,0,0,0,1,8.94c2,4.58,5.38,7.58,10.59,7.8s10.47.22,15.7.28C103.21,65.66,103.7,66.1,103.32,67.48Z" transform="translate(-38.9 -13.31)"/>
  <path class="cls-1" d="M280.75,107.4q0-6.11,0-12.23c0-.81.17-1.43,1.12-1.44,6.8,0,13.63-.67,20.36.63,7.15,1.38,11.3,6.14,13.12,13,1.55,5.82.29,11.32-2.69,16.45-.27.46-1.16,1-1.53.85-.93-.33-.48-1.16-.22-1.82.92-2.31,2.26-4.53,2.69-6.92,1.37-7.67-.66-14.21-7.88-18.29a15.63,15.63,0,0,0-6.5-1.76c-5-.32-10-.22-15-.38-1.25,0-1.57.53-1.58,1.56q0,3.23,0,6.45,0,7.86,0,15.72c0,.23.08.51,0,.66-.28.42-.64.79-1,1.18-.29-.38-.78-.73-.84-1.14a18.38,18.38,0,0,1,0-2.68V107.4Z" transform="translate(-38.9 -13.31)"/>
  <path class="cls-1" d="M69.69,36.38h-6c-3.22,0-6.46-.17-9.68,0a13.22,13.22,0,0,0-8.9,3.47,14.55,14.55,0,0,0-4.39,10.71c-.1,5.5,1.85,10,6.61,13.13,2.6,1.69,5.58,1.83,8.51,1.89,4,.07,8-.06,12-.14,1.5,0,1.93.44,1.57,2-5.34,0-10.71.12-16.08-.06a13.93,13.93,0,0,1-8-2.76C40.53,61.06,38.84,56,38.9,50.3a15.65,15.65,0,0,1,5.36-12.14,14,14,0,0,1,8.86-3.66c5.06-.13,10.13,0,15.19-.07C69.67,34.41,70.09,34.92,69.69,36.38Z" transform="translate(-38.9 -13.31)"/>
  <path class="cls-1" d="M167,40.4a11.51,11.51,0,0,1,.8-1.95c3.12-4.83,3.31-14.56-2-19.37a15,15,0,0,0-9.56-3.67c-4.16-.24-8.33-.24-12.5-.28-2,0-2.09.13-2.09,2q0,9.07,0,18.14v1.76h-1.71c-.05-.52-.14-1-.14-1.47,0-6.77,0-13.54,0-20.3,0-1.17.25-1.87,1.62-1.86,2.73,0,5.46-.17,8.19-.12a67.17,67.17,0,0,1,9.64.49c8.23,1.35,14.05,10,12.68,18.2a28.28,28.28,0,0,1-2.39,7.48C169,40.56,168.43,41,167,40.4Z" transform="translate(-38.9 -13.31)"/>
  <path class="cls-1" d="M159.73,178.27h-2.6V168.7l-.2,0c-.71,3.2-1.43,6.41-2.13,9.57a3.09,3.09,0,0,1-.34.1c-2.61.13-2.6.13-3.15-2.4s-1.06-4.87-1.81-7.28v9.62h-2.64V164.54H151c.73,3.13,1.47,6.3,2.3,9.82l2.33-9.88h4.08Z" transform="translate(-38.9 -13.31)"/>
  <path class="cls-1" d="M103.38,39.39v1.74c-1.49.09-2.9.25-4.32.25-3.45,0-6.9-.15-10.35-.11-5,.06-8,2.34-9.32,7-1.55,5.38,1.34,10.94,6.52,12.09a36.44,36.44,0,0,0,6.93.59c3.18.07,6.36-.05,9.54-.09h1l.08,1.75a26.62,26.62,0,0,1-2.84.27c-4.66-.06-9.32-.08-14-.27-4.48-.18-8.49-4.32-9.28-9.17A12.37,12.37,0,0,1,81.26,41.7a9.41,9.41,0,0,1,6.43-2.28C92.88,39.32,98.07,39.39,103.38,39.39Z" transform="translate(-38.9 -13.31)"/>
  <path class="cls-1" d="M69.68,61l-.15,1.46c-.11.08-.18.17-.25.17-5.37,0-10.76.25-16.11-.1-4.91-.33-8.15-3.39-9.2-8.17-1-4.52-.44-8.81,2.94-12.34,2.16-2.26,5-2.84,8-2.89,4.43-.07,8.86.12,13.29.21a1.77,1.77,0,0,1,.89.2c.3.19.74.57.7.77a1.36,1.36,0,0,1-.78.78,4.19,4.19,0,0,1-1.33.09c-4.39,0-8.77,0-13.15,0-7.33.05-9.81,6.79-9,11.52.66,3.87,2.69,6.72,6.62,7.73a21.9,21.9,0,0,0,5.07.4c4,.06,8.06,0,12.09,0A1.74,1.74,0,0,1,69.68,61Z" transform="translate(-38.9 -13.31)"/>
  <path class="cls-1" d="M307.5,122.31c-1.66-.63-1.73-.86-.81-2.47,3.08-5.36,2.47-10.5-1-15.43-1.67-2.38-4.25-3.06-6.93-3.16-3.53-.13-7.06,0-10.76,0v19.62c-1.63.44-2.1.19-2.09-1.12,0-6.18.06-12.36.16-18.53,0-1.91.67-2.19,2.58-2.08,3,.17,6.08.21,9.12.16,3.73-.06,7,.85,9.44,3.86a15.47,15.47,0,0,1,3.22,11.05A14.19,14.19,0,0,1,307.5,122.31Z" transform="translate(-38.9 -13.31)"/>
  <path class="cls-1" d="M204.83,68c-1.33.36-1.91,0-1.91-1.32,0-2.86,0-5.72-.07-8.58,0-3.18.38-6.43-.16-9.51-1.17-6.57-4.39-9.3-9.85-10-4-.51-8-.48-12-.65-1.52-.07-3,0-4.64,0V36.08c1.6,0,3.21,0,4.81,0,4.06.14,8.15.08,12.18.56,6.24.75,10.64,4.87,11.29,11.21s.44,12.69.59,19A5.1,5.1,0,0,1,204.83,68Z" transform="translate(-38.9 -13.31)"/>
  <path class="cls-1" d="M253.42,125.86a22.28,22.28,0,0,1-2.33-3.37c-3.49-7.87-3.12-15.56,1.49-22.88C255,95.84,258.75,94.23,263,94c4-.25,8-.09,11.94-.13a18.92,18.92,0,0,1,2.81-.06c.49.07.92.62,1.37,1-.39.26-.78.73-1.18.75a103.24,103.24,0,0,1-11.53.13c-8.83-.76-13.82,4.83-15.26,12.21-1,5.34-.55,10.59,2.53,15.35C254.52,124.45,254.45,124.6,253.42,125.86Z" transform="translate(-38.9 -13.31)"/>
  <path class="cls-1" d="M293.72,69c-4.34,0-8.71,0-13.09,0-.62,0-1.25-.11-1.87-.13-2.95-.1-4.19-.88-4.34-3.77a125.76,125.76,0,0,1,.15-12.73c.09-1.87,1.07-2.45,3-2.57a41.43,41.43,0,0,0,6.11-.56,7.81,7.81,0,0,0,6-5.66,2.09,2.09,0,0,0-1.4-3,8.8,8.8,0,0,0-2.48-.49,38.49,38.49,0,0,0-4.16,0c-1.57.07-3.13.26-4.79.41-.36-1.12.08-1.86,1.53-1.87,2.64,0,5.28,0,7.92.11,4,.18,5.6,2.72,4.14,6.52-1.14,3-3.6,4.49-6.49,5.25a24,24,0,0,1-5.16.6c-2.91.11-2.95.1-2.94,2.93,0,3.58,0,7.16,0,10.74,0,2,.52,2.46,2.49,2.49,4.16,0,8.33,0,12.49,0,.67,0,1.34.06,2,.1S294.13,67.78,293.72,69Z" transform="translate(-38.9 -13.31)"/>
  <path class="cls-1" d="M139.87,141.74V127.92c2,0,4-.11,5.92,0a4.29,4.29,0,0,1,4.12,3.63,17.84,17.84,0,0,1,.18,5.83c-.41,2.77-2.22,4.17-5,4.31C143.38,141.81,141.68,141.74,139.87,141.74Zm3-2.92c1.45,0,3,.45,3.75-1a6.2,6.2,0,0,0,0-5.91c-.78-1.53-2.33-1.16-3.79-1.1Z" transform="translate(-38.9 -13.31)"/>
  <path class="cls-1" d="M146.39,20.08v17h-1.66a16.66,16.66,0,0,1-.21-2c0-5.23,0-10.46.13-15.69,0-.35.58-1,.88-1,4.51,0,9.07-.18,13.53.37,4.11.51,6.21,3.82,7.35,7.52,1.36,4.41,1,8.63-2.23,12.35l-1.27-.94a14.61,14.61,0,0,0,2.18-8.52c-.19-4.08-3.05-8-6.57-8.66A33.62,33.62,0,0,0,146.39,20.08Z" transform="translate(-38.9 -13.31)"/>
  <path class="cls-1" d="M293.9,65.6a10.13,10.13,0,0,1-1.63.29c-3.8.07-7.61.12-11.41.13-2.81,0-3.69-.84-3.73-3.67,0-2.41,0-4.83.11-7.25.07-1.8.66-2.33,2.48-2.4,3.11-.11,6.16-.52,8.79-2.35A9.64,9.64,0,0,0,292.88,43c.27-3.35-1.33-5.37-4.66-5.58-3.66-.23-7.34-.23-11-.32A1.64,1.64,0,0,0,275.28,39a.57.57,0,0,1,0,.13c-.26.6-.53,1.19-.79,1.79a6.25,6.25,0,0,1-.67-2c0-2.11.83-2.89,2.93-2.89,3.67,0,7.34-.11,11,0,4.78.17,7.5,4,6.26,8.6a12.65,12.65,0,0,1-10.88,9.17,26.33,26.33,0,0,1-2.79.27c-1.11,0-1.69.46-1.72,1.54-.08,2.36-.11,4.73-.15,7.09,0,1.47.84,1.9,2.15,1.9,3.9,0,7.8,0,11.69,0a6.31,6.31,0,0,1,1.66.45Z" transform="translate(-38.9 -13.31)"/>
  <path class="cls-1" d="M188.34,49.24a50.67,50.67,0,0,0-5.23,0,7.6,7.6,0,0,0-6.65,6c-1,4.57,1.56,9.37,5.91,10.19a39.12,39.12,0,0,0,6.14.27c1.88,0,3.75.1,5.62.12.76,0,1.18.4,1,1.06C195,67.41,194.4,68,194,68a104.53,104.53,0,0,1-12-.71c-4.71-.72-8-5.61-7.64-10.65a9.33,9.33,0,0,1,6-8.6,12.29,12.29,0,0,1,4.21-.65c2.86-.1,5.73-.07,8.59,0,.73,0,1.9-.19,1.9.89s-1.13.92-1.91.93c-1.62,0-3.23,0-4.84,0Z" transform="translate(-38.9 -13.31)"/>
  <path class="cls-1" d="M139.93,38.81c3.16,0,6.28,0,9.41,0,3.36,0,6.71.22,10.07.21,6.19,0,12.61,5.66,12.64,12.48q0,7.18,0,14.38c0,.47-.42,1-.65,1.42-.39-.47-1.1-.92-1.11-1.39-.09-2.24.05-4.48,0-6.71a66.46,66.46,0,0,0-.23-8.71c-.74-5.28-4.19-8.35-9.26-9.25a76,76,0,0,0-10.8-.72c-2.86-.09-5.72.1-8.59.08C140.61,40.61,139.59,40.55,139.93,38.81Z" transform="translate(-38.9 -13.31)"/>
  <path class="cls-1" d="M163,140.59c-3.24,2.23-5.87,1-6.31-2.79a10.79,10.79,0,0,1,.23-3.58c.68-2.81,3.6-4.12,6-1.68l.34-.93h2.3v11.32a.59.59,0,0,1,0,.13c-.42,1.92-2.08,2.89-4.74,2.78-2.25-.09-3.35-1-3.65-3.06,1.11,0,2.15-.48,3.2.52a1.57,1.57,0,0,0,2.53-1.05A16.46,16.46,0,0,0,163,140.59Zm0-4.13c0-.32.08-.82-.13-1.1-.43-.59-1-1.36-1.58-1.51-.87-.21-1.47.55-1.6,1.44a10,10,0,0,0,0,2.25c.09.92.57,1.67,1.58,1.68s1.53-.78,1.69-1.74C163,137.17,163,136.86,163,136.46Z" transform="translate(-38.9 -13.31)"/>
  <path class="cls-1" d="M41.27,38.86a15.19,15.19,0,0,1-2.2-7.74,17.38,17.38,0,0,1,4.62-13.4,12.34,12.34,0,0,1,8.57-3.91c5.32-.27,10.65-.24,16-.29.64,0,1.57-.18,1.61.91s-.9,1.09-1.62,1.09c-4.12,0-8.24-.2-12.35-.15-2.82,0-5.66.29-8.17,1.76-5.26,3.08-7.44,8.59-6.77,14.39a28.71,28.71,0,0,0,1.23,5.18A1.58,1.58,0,0,1,41.27,38.86Z" transform="translate(-38.9 -13.31)"/>
  <path class="cls-1" d="M200.88,67.92c-1.56.34-1.94-.28-1.94-1.39,0-4.88.06-9.77,0-14.65a23.09,23.09,0,0,0-.6-4.37c-.55-2.69-2.51-4-5-4.72-3.86-1.12-7.8-.85-11.74-.7a28.62,28.62,0,0,1-4.14-.17c-.4,0-.74-.59-1.11-.9a8.3,8.3,0,0,1,1.11-1,1.85,1.85,0,0,1,.92-.12c3.76.05,7.54-.06,11.28.24A20.12,20.12,0,0,1,196,41.79a7.46,7.46,0,0,1,4.52,6.8c.27,4.69.28,9.39.38,14.09C200.92,64.42,200.88,66.16,200.88,67.92Z" transform="translate(-38.9 -13.31)"/>
  <path class="cls-1" d="M110,142.66c1.16.1,2.2-.31,3.21.63.85.79,2.21,0,2.37-1.16a12.07,12.07,0,0,0,0-1.48c-2.93,2.07-5.33,1.15-6-2.32a8.85,8.85,0,0,1,.07-3.44c.72-3.38,3.19-4.25,5.94-2.14.42-1.63,1.64-.71,2.61-.92,0,3.71.16,7.33-.06,10.92-.14,2.3-2.54,3.45-5.3,2.91C111,145.3,110.24,144.58,110,142.66Zm5.59-6c0-.14,0-.27,0-.41-.06-1.38-.68-2.28-1.62-2.22-1.34.09-1.6,1.09-1.68,2.18l0,.41c0,1.63.57,2.65,1.58,2.7S115.59,138.36,115.58,136.66Z" transform="translate(-38.9 -13.31)"/>
  <path class="cls-1" d="M167,67.13c-1.6.26-2-.4-2-1.64,0-4.17,0-8.33,0-12.5s-2-6.38-6.24-6.9a115.26,115.26,0,0,0-12.06-.34c-2,0-3.94,0-5.91-.06a1.34,1.34,0,0,1-1-.8c-.18-.68.25-1,1-1,6.13.09,12.27.05,18.4.25a8.15,8.15,0,0,1,7.61,7.38c.25,3.47.12,7,.15,10.45C167.05,63.69,167,65.38,167,67.13Z" transform="translate(-38.9 -13.31)"/>
  <path class="cls-1" d="M279.3,99.51v1.78H271c-2.55,0-5.1,0-7.64,0-3.11.09-5.1,2-6.54,4.48-2.55,4.46-1.9,11.36,1.27,14.87.5.56,1,1.29.17,1.8a1.89,1.89,0,0,1-1.66-.47c-1.82-1.87-2.48-4.3-3-6.76a15,15,0,0,1,2.95-12.49,8.76,8.76,0,0,1,7.24-3.41c4.79-.1,9.58,0,14.37,0A6.49,6.49,0,0,1,279.3,99.51Z" transform="translate(-38.9 -13.31)"/>
  <path class="cls-1" d="M78.19,106.71c1.29.47,2.24.76,3.15,1.16a1.61,1.61,0,0,0,2.3-1.05,11.75,11.75,0,0,0,.17-1.58c-.16,0-.29-.08-.32,0-1.75,2-4.87,1.32-5.51-1.82a10.39,10.39,0,0,1,.07-4.61c.78-3,3.72-3.59,5.58-1.51.39-1.57,1.59-.77,2.56-.94a6.06,6.06,0,0,1,.15.94c0,3.22,0,6.44-.1,9.66-.07,2-1.39,3.11-3.54,3.33s-3.85-.6-4.39-2.24A8.32,8.32,0,0,1,78.19,106.71Zm5.55-5.52c0-1.64-.63-2.67-1.63-2.69s-1.68,1-1.71,2.64S81,103.8,82,103.82,83.74,102.79,83.74,101.19Z" transform="translate(-38.9 -13.31)"/>
  <path class="cls-1" d="M222.71,127.9h2.78v13.86c-1-.33-2.31.79-3-.95-1.07,1-2.3,1.67-3.8.89a4.27,4.27,0,0,1-2.26-3.86,11.92,11.92,0,0,1,.39-4c1-3.07,3.93-3.4,5.86-1.28Zm-3.4,8.68c0,1.77.58,2.74,1.66,2.79s1.79-.93,1.8-2.79-.68-2.87-1.8-2.82S219.31,134.87,219.31,136.58Z" transform="translate(-38.9 -13.31)"/>
  <path class="cls-1" d="M77.91,141.71H75.4l-.23-.86a1.63,1.63,0,0,0-.35.17c-1.74,1.56-3.83,1.29-4.9-.76a7.24,7.24,0,0,1,0-6.84c1.1-2.21,3-2.46,5.38-.69v-4.36h2.65Zm-2.59-5c0-1.73-.62-2.77-1.68-2.76S72,135.07,72,136.78s.57,2.62,1.62,2.66S75.31,138.55,75.32,136.76Z" transform="translate(-38.9 -13.31)"/>
  <path class="cls-1" d="M253.83,48a7.21,7.21,0,0,1,1.78-.52c3.53.13,7.11,0,10.56.55,6.58,1.13,8.88,9.47,6.24,14.26a10.43,10.43,0,0,1-10.18,5.81c-3.25-.11-7.25-3.61-7.79-6.8a6,6,0,0,1,.3-1.92l.44,0a3,3,0,0,1,.47.87,7.87,7.87,0,0,0,6.47,6.28,8.59,8.59,0,0,0,9-4.74c2.69-5.29,0-11.54-5.66-12.61a40.12,40.12,0,0,0-6-.21c-1.47,0-2.94-.12-4.41-.25C254.71,48.64,254.43,48.33,253.83,48Z" transform="translate(-38.9 -13.31)"/>
  <path class="cls-1" d="M195.11,62.42v1.91c-1.31,0-2.59,0-3.87,0a61.94,61.94,0,0,1-8.53-.59c-3.27-.63-4.74-3.18-4.5-6.75.21-3.2,2.18-5.6,5.38-5.81,3.78-.25,7.58-.06,11.47-.06v1.64c-1.73,0-3.46,0-5.2,0a50.19,50.19,0,0,0-6,.3A4.17,4.17,0,0,0,180,57.42a4.35,4.35,0,0,0,4,4.7c2.43.28,4.91.22,7.36.29C192.56,62.44,193.77,62.42,195.11,62.42Z" transform="translate(-38.9 -13.31)"/>
  <path class="cls-1" d="M69.74,18.67c.29,1.38-.23,1.81-1.47,1.78-4-.12-8-.25-12.07-.23a18.21,18.21,0,0,0-4.76.65c-3.5,1-5.3,3.68-5.75,8-.17,1.63.39,3.33.45,5,0,.52-.49,1.06-.75,1.59-.36-.29-.89-.51-1-.88A12.8,12.8,0,0,1,47.9,20.5a10.41,10.41,0,0,1,6.63-2.1c4.43-.11,8.86,0,13.3,0A14.42,14.42,0,0,1,69.74,18.67Z" transform="translate(-38.9 -13.31)"/>
  <path class="cls-1" d="M182.56,168c1.13.38,2.45-.67,3,1,.32-.26.6-.53.92-.74,1.72-1.13,4.17-.32,4.32,1.61.22,2.74.06,5.52.06,8.34h-2.67V174c0-.53,0-1.07,0-1.61-.06-.88,0-2-1.21-2s-1.5,1.06-1.52,2.09c0,1.91,0,3.83,0,5.81h-2.88V168Z" transform="translate(-38.9 -13.31)"/>
  <path class="cls-1" d="M201.24,175c-.62,2.44-2,3.61-4.08,3.65a3.93,3.93,0,0,1-4.29-3.09,12.54,12.54,0,0,1,0-4.61,3.83,3.83,0,0,1,4-3.13,4,4,0,0,1,4.19,3.06,22.42,22.42,0,0,1,.47,3.14H195c.62.94.9,1.85,1.45,2.08s1.28-.41,2-.58C199.3,175.27,200.19,175.15,201.24,175Zm-2.63-2.87c0-1.48-.59-2.17-1.66-2.09s-1.49.8-1.37,2.09Z" transform="translate(-38.9 -13.31)"/>
  <path class="cls-1" d="M170,178.33c-.93-.32-2.23.73-2.94-.73a11.08,11.08,0,0,1-2.29,1,2.54,2.54,0,0,1-3.1-1.89,3.2,3.2,0,0,1,1.63-4c.83-.32,1.75-.39,2.58-.69a2.82,2.82,0,0,0,1.16-.92c.08-.11-.31-.84-.55-.88-.53-.08-1.38-.09-1.59.21-.85,1.25-1.95.65-3,.72.34-2.4,1.6-3.35,4.25-3.3,2.3,0,3.38,1,3.56,3.27.11,1.43,0,2.86.09,4.29C169.86,176.35,170,177.27,170,178.33Zm-2.63-4.83a10.75,10.75,0,0,0-2.14.62,2,2,0,0,0-.92,1.12,1.31,1.31,0,0,0,.65,1.12,1.85,1.85,0,0,0,1.55-.37A9.47,9.47,0,0,0,167.39,173.5Z" transform="translate(-38.9 -13.31)"/>
  <path class="cls-1" d="M186.74,141.75c-1-.31-2.27.75-3-.85l-.62.45a3.1,3.1,0,0,1-3.53.32,3.28,3.28,0,0,1,1.06-5.78,17.82,17.82,0,0,0,2-.45,2.8,2.8,0,0,0,1.17-.9c.09-.12-.3-.85-.53-.89-.53-.08-1.38-.1-1.59.21-.86,1.24-1.94.68-3,.67.36-2.34,1.59-3.28,4.16-3.25,2.33,0,3.45.93,3.64,3.19.14,1.6.05,3.22.09,4.83C186.55,140,186.66,140.79,186.74,141.75ZM184,137a8.93,8.93,0,0,0-2,.56,2.25,2.25,0,0,0-1,1.21,1.31,1.31,0,0,0,.73,1.07,1.8,1.8,0,0,0,1.53-.44A9.05,9.05,0,0,0,184,137Z" transform="translate(-38.9 -13.31)"/>
  <path class="cls-1" d="M231.57,178.27c-2.5.18-2.5.18-3-.76-.38.23-.73.5-1.12.7a2.83,2.83,0,0,1-4.05-1,3.25,3.25,0,0,1,1.44-4.46c.81-.34,1.74-.4,2.57-.7a2.77,2.77,0,0,0,1.13-.94c.08-.12-.24-.79-.44-.82-.53-.08-1.4-.16-1.59.13-.85,1.23-1.93.74-3.19.75a10.23,10.23,0,0,1,.55-1.58c.76-1.41,2.86-2.08,4.89-1.61,1.66.39,2.39,1.28,2.48,3.17.06,1.43,0,2.87.06,4.3C231.35,176.35,231.48,177.28,231.57,178.27Zm-3.1-4.73c-1,.65-2.76.12-2.57,2,0,.35.84.88,1.3.89C228.29,176.44,228.72,175.46,228.47,173.54Z" transform="translate(-38.9 -13.31)"/>
  <path class="cls-1" d="M108.28,136.82c0,3.44-1.74,5.35-4.81,5.23a3.9,3.9,0,0,1-3.73-2.58,7.09,7.09,0,0,1-.15-5c.7-2.21,2.4-3.2,4.92-2.94a4.29,4.29,0,0,1,3.76,4.08A9.61,9.61,0,0,1,108.28,136.82Zm-6.18,0c0,1.86.61,2.87,1.72,2.85s1.67-1.06,1.7-2.77-.61-2.88-1.69-2.91S102.11,134.88,102.1,136.77Z" transform="translate(-38.9 -13.31)"/>
  <path class="cls-1" d="M84.36,136.69c0-3.63,2.08-5.58,5.42-5.13a3.47,3.47,0,0,1,.77.19c2.42.87,3.56,4,2.59,7.23a4.38,4.38,0,0,1-5.4,3C85.57,141.49,84.35,139.58,84.36,136.69Zm6.22.1c0-1.88-.58-2.85-1.71-2.84s-1.73,1.06-1.7,2.87.63,2.77,1.67,2.8S90.58,138.62,90.58,136.79Z" transform="translate(-38.9 -13.31)"/>
  <path class="cls-1" d="M88.51,173.69c-.09,4-2.94,6.25-6.33,4.91-2.09-.83-3-3.08-2.66-6.3a4.31,4.31,0,0,1,3.81-4.06C86.47,167.8,88.6,170,88.51,173.69Zm-2.8-.14c0-1.8-.65-2.86-1.75-2.86s-1.73,1.09-1.72,2.89.67,2.89,1.75,2.88S85.7,175.34,85.71,173.55Z" transform="translate(-38.9 -13.31)"/>
  <path class="cls-1" d="M207,134.62a8.1,8.1,0,0,1,.15-1.06c.61-1.74,2.41-2.58,4.81-2.25a3,3,0,0,1,2.86,3.28c0,1.39,0,2.78,0,4.17,0,1,.17,1.92.26,3-1-.21-2.26.72-3-.79-.24.18-.45.35-.67.49a3.13,3.13,0,0,1-3.54.2c-1.19-.75-1.27-2-1.13-3.23A2.77,2.77,0,0,1,209,135.9c.64-.18,1.33-.22,1.95-.46a2.85,2.85,0,0,0,1.15-.91c.09-.12-.3-.84-.53-.88-.52-.07-1.36-.08-1.58.23C209.14,135.05,208.09,134.48,207,134.62Zm5.45,2.29a10.87,10.87,0,0,0-2.09.62,1.93,1.93,0,0,0-.93,1.11c-.06.35.33,1.08.62,1.13a1.83,1.83,0,0,0,1.55-.37A9.89,9.89,0,0,0,212.43,136.91Z" transform="translate(-38.9 -13.31)"/>
  <path class="cls-1" d="M235.63,141.79c-.94-.39-2.24.67-3-.86-.28.18-.6.41-.93.61a2.9,2.9,0,0,1-4.2-.88,3.26,3.26,0,0,1,1.48-4.54c.78-.32,1.66-.38,2.45-.67a2.65,2.65,0,0,0,1.18-.89c.09-.12-.28-.86-.5-.9-.52-.08-1.36-.1-1.59.2-.83,1.15-1.88.69-3,.71a7.67,7.67,0,0,1,.21-1.08c.65-1.73,2.45-2.53,4.83-2.17a3,3,0,0,1,2.77,3.2c.07,1.47,0,2.95.07,4.43C235.39,139.82,235.52,140.7,235.63,141.79ZM232.75,137a7,7,0,0,0-1.78.49,2.41,2.41,0,0,0-1,1.28c-.07.29.57,1.07.83,1a2.48,2.48,0,0,0,1.63-.81C232.72,138.58,232.63,137.85,232.75,137Z" transform="translate(-38.9 -13.31)"/>
  <path class="cls-1" d="M92.76,178.55H90.12v-9.9c1,.19,2.25-.85,2.78.85a7.32,7.32,0,0,1,1.56-1,2.54,2.54,0,0,1,3.64,2.31c.15,2.53,0,5.08,0,7.71H95.48c0-1.39,0-2.8,0-4.21a8.44,8.44,0,0,0-.09-2.14,2,2,0,0,0-1-1.3c-.8-.25-1.39.32-1.45,1.16-.11,1.55-.13,3.11-.18,4.67C92.75,177.26,92.76,177.83,92.76,178.55Z" transform="translate(-38.9 -13.31)"/>
  <path class="cls-1" d="M69,174.35H62.76c.48.86.7,1.77,1.2,2s1.3-.31,2-.47c.86-.2,1.72-.36,2.68-.55a3.88,3.88,0,0,1-3.41,3.55,4,4,0,0,1-4.46-2.44,7.23,7.23,0,0,1-.1-5.37,4,4,0,0,1,4-2.83,3.91,3.91,0,0,1,3.87,2.94A24.73,24.73,0,0,1,69,174.35Zm-6-2h3.15c0-1.12-.39-1.91-1.46-2S63.15,171.19,63,172.39Z" transform="translate(-38.9 -13.31)"/>
  <path class="cls-1" d="M296.36,36.21c.07.84.19,1.68.2,2.51,0,7.35,0,14.7,0,22a11.27,11.27,0,0,0,.35,2.65,4.75,4.75,0,0,0,4.72,3.84c2.45.18,4.91.15,7.37.14.88,0,1.62,0,1.77,1.37a10.83,10.83,0,0,1-2.15.35c-2.68-.13-5.37-.23-8-.56-3.08-.39-5.31-3.22-5.34-6.77-.07-8,0-16,0-24.06a5.32,5.32,0,0,1,.56-1.59Z" transform="translate(-38.9 -13.31)"/>
  <path class="cls-1" d="M76.6,100.56c0,4.34-1.94,6.31-5.11,6a3.75,3.75,0,0,1-3.37-2.85c-.7-2.39-.72-4.76,1.19-6.65A4.08,4.08,0,0,1,74,96.33,4.33,4.33,0,0,1,76.6,100.56Zm-2.73.77c0-1.82-.6-2.88-1.7-2.88s-1.73,1.09-1.68,2.89.64,2.78,1.69,2.77S73.84,103.08,73.87,101.33Z" transform="translate(-38.9 -13.31)"/>
  <path class="cls-1" d="M107.92,178.5c-2.21.26-2.25.25-3-.68l-.54.38a3,3,0,0,1-3.39.35,2.85,2.85,0,0,1-1.29-3,2.79,2.79,0,0,1,2.28-2.64,14.23,14.23,0,0,0,2-.48,2.45,2.45,0,0,0,1.06-.85c.09-.14-.21-.79-.41-.84-.49-.11-1.32-.2-1.49,0-.81,1.22-1.93.79-3.09.84.11-1.47.72-2.62,2.1-2.93a10.08,10.08,0,0,1,3.55-.06,2.22,2.22,0,0,1,1.86,2.19c.11,1.7.11,3.4.18,5.09C107.77,176.73,107.86,177.57,107.92,178.5Zm-2.67-4.59a7.93,7.93,0,0,0-1.93.57,2.3,2.3,0,0,0-.88,1.28,1.18,1.18,0,0,0,.69.93,2,2,0,0,0,1.51-.49A7.94,7.94,0,0,0,105.25,173.91Z" transform="translate(-38.9 -13.31)"/>
  <path class="cls-1" d="M60,134.75c.67-3,4.43-4.34,6.53-2.39a4.84,4.84,0,0,1,1.09,2.75,35.75,35.75,0,0,1,.07,3.88c0,.88.1,1.76.17,2.87l-2.91-.43,0-.45c-.26.17-.5.34-.76.5a3,3,0,0,1-3.4.12,2.88,2.88,0,0,1-1.1-3,2.76,2.76,0,0,1,2.25-2.52,14.12,14.12,0,0,0,1.94-.49,2.61,2.61,0,0,0,1.09-.82c.09-.12-.21-.78-.42-.83-.48-.12-1.28-.21-1.47.05C62.22,135.13,61.14,134.78,60,134.75Zm4.94,2.46c-2.35.57-2.86.9-2.54,1.79a1.73,1.73,0,0,0,1.3.88C64.73,139.87,65.1,139,64.91,137.21Z" transform="translate(-38.9 -13.31)"/>
  <path class="cls-1" d="M141.7,178.58c-.91-.22-2.16.66-2.95-.78l-.55.4a3,3,0,0,1-3.4.35c-1.3-.73-1.35-2-1.21-3.31a2.65,2.65,0,0,1,2.23-2.36,15.14,15.14,0,0,0,1.82-.46,3.36,3.36,0,0,0,1.19-.89c.08-.1-.24-.8-.43-.83-.54-.07-1.41-.14-1.6.15-.81,1.21-1.9.6-3,.8.15-1.52.72-2.67,2.09-3a9.62,9.62,0,0,1,3.55-.06,2.34,2.34,0,0,1,1.93,2.42c.07,1.39,0,2.78.09,4.17C141.51,176.31,141.62,177.41,141.7,178.58Zm-2.94-4.53c-2.28.48-2.88.86-2.56,1.76a1.73,1.73,0,0,0,1.31.9C138.58,176.72,139,175.72,138.76,174.05Z" transform="translate(-38.9 -13.31)"/>
  <path class="cls-1" d="M117.73,178.55H115c0-2.14,0-4.22,0-6.31,0-1.32-1.08-2-1.89-1.2a2.91,2.91,0,0,0-.72,1.78c-.11,1.28,0,2.59,0,3.88v1.81h-2.64V168.6c1,.28,2.21-.79,2.7.73a10.68,10.68,0,0,1,2.57-.93,2.19,2.19,0,0,1,2.7,2.28C117.82,173.25,117.73,175.84,117.73,178.55Z" transform="translate(-38.9 -13.31)"/>
  <path class="cls-1" d="M94.9,99.28c.34-2.27,1.57-3.24,3.84-3.22s3.33.91,3.52,3c.14,1.42.06,2.86.1,4.29,0,.92.1,1.85.17,3l-2.86-.42,0-.45-.53.37a2.92,2.92,0,0,1-3.38.32c-1.21-.73-1.32-2-1.16-3.2a2.64,2.64,0,0,1,2.2-2.39,12.67,12.67,0,0,0,1.81-.47,2.26,2.26,0,0,0,1.06-.8c.1-.17-.24-.87-.46-.92-.48-.1-1.28-.11-1.47.17C97,99.7,96,99.22,94.9,99.28Zm4.72,2.32c-1,.61-2.66.19-2.41,2,0,.33.8.8,1.22.8C99.48,104.38,99.86,103.45,99.62,101.6Z" transform="translate(-38.9 -13.31)"/>
  <path class="cls-1" d="M132.58,141.67c-.67-.13-1.9.67-2.71-.71l-.53.4a3,3,0,0,1-3.4.34c-1.23-.68-1.36-1.91-1.23-3.17a2.65,2.65,0,0,1,2.17-2.42,17.79,17.79,0,0,0,1.94-.5,3.18,3.18,0,0,0,1.14-.92c.07-.08-.28-.75-.5-.78-.48-.09-1.27-.14-1.47.13-.83,1.13-1.88.71-2.91.71a2.88,2.88,0,0,1,2.11-2.93c3.3-1.06,5.35.4,5.39,3.85C132.6,137.67,132.58,139.66,132.58,141.67Zm-2.66-4.43c-2.37.51-2.92.88-2.55,1.85a1.63,1.63,0,0,0,1.25.81C129.67,139.91,130.11,138.94,129.92,137.24Z" transform="translate(-38.9 -13.31)"/>
  <path class="cls-1" d="M119.21,105.47c-.3.21-.51.37-.74.51-1.56,1-3.32.66-4-.77a3.27,3.27,0,0,1,1.42-4.46c.74-.29,1.57-.35,2.31-.65a2.86,2.86,0,0,0,1.12-.93c.07-.08-.29-.74-.51-.77a2.27,2.27,0,0,0-1.49.17c-1.18.77-1.15.82-2.82.63a2.7,2.7,0,0,1,1.5-2.6,4.28,4.28,0,0,1,4.36,0,3.59,3.59,0,0,1,1.39,2.23,34.14,34.14,0,0,1,.13,4.42c0,1,.15,1.93.23,3C121.18,106.05,120,106.82,119.21,105.47Zm0-3.82c-.93.53-2.56,0-2.48,1.81,0,.34.82.91,1.27.92C119,104.39,119.43,103.39,119.2,101.65Z" transform="translate(-38.9 -13.31)"/>
  <path class="cls-1" d="M202,133.88H198v-2.26h7.52a3.45,3.45,0,0,1-.73,3.32c-1.21,1.29-2.25,2.74-3.55,4.35h4.4v2.35h-7.89a3.54,3.54,0,0,1,.78-3.48C199.69,136.9,200.71,135.5,202,133.88Z" transform="translate(-38.9 -13.31)"/>
  <path class="cls-1" d="M78.27,171.05c-1.47-.05-2.57.43-3.47-.69-.18-.23-1.08.11-1.65.2.25.44.39,1.07.76,1.28a23.37,23.37,0,0,0,2.5.94,3.05,3.05,0,0,1,1.16,4.87c-1.52,1.81-5.61,1.68-6.95-.27a9.83,9.83,0,0,1-.72-1.73c1.32.12,2.52-.64,3.28.84a1.42,1.42,0,0,0,1.2.4c.41-.07.76-.48,1.14-.73-.25-.37-.42-.89-.77-1.07-1-.48-2-.73-3-1.24a2.94,2.94,0,0,1-.18-5,5,5,0,0,1,5.32.21A10,10,0,0,1,78.27,171.05Z" transform="translate(-38.9 -13.31)"/>
  <path class="cls-1" d="M222,174.59c-.32,2.42-1.58,3.79-3.6,4a4.13,4.13,0,0,1-4.65-3,7.46,7.46,0,0,1,.23-5.38,4.2,4.2,0,0,1,4.87-2.41c1.83.29,2.89,1.51,3.17,3.79-1.17-.2-2.44.69-3.31-1-.38-.71-1.26-.55-1.81.12-.74.89-.77,3.91-.05,4.75.56.66,1.49.82,1.83.13C219.5,174.07,220.77,174.7,222,174.59Z" transform="translate(-38.9 -13.31)"/>
  <path class="cls-1" d="M127.6,172.06c-1.22,0-2.42.47-3.18-1-.37-.73-1.71-.41-1.87.51a15.73,15.73,0,0,0,0,3.94c0,.32.78.9,1,.82a3.14,3.14,0,0,0,1.6-1.37h2.4a3.6,3.6,0,0,1-2.45,3.72,4,4,0,0,1-4.7-1.31,7.1,7.1,0,0,1,0-7.49,4.28,4.28,0,0,1,4.82-1.42A3.58,3.58,0,0,1,127.6,172.06Z" transform="translate(-38.9 -13.31)"/>
  <path class="cls-1" d="M260.77,50.59a20.52,20.52,0,0,0,3.4.15c3.26-.36,5.74,2.59,6.18,5.21.78,4.68-1.67,9.27-7.38,9.12a6,6,0,0,1-5.36-3.47,2.8,2.8,0,0,1-.25-1.41c0-.27.37-.51.56-.77.25.22.67.41.7.65.5,3.62,5.66,4.5,8.36,2.29,2.25-1.83,2.76-4.19,1.66-7.39-.67-1.94-2.41-3-5.15-3-2.2,0-4.39,0-6.58,0a6.05,6.05,0,0,1-1.48-.08,4.24,4.24,0,0,1-1.05-.59c.36-.24.7-.66,1.07-.68C257.15,50.55,258.85,50.59,260.77,50.59Z" transform="translate(-38.9 -13.31)"/>
  <path class="cls-1" d="M66.68,102.62c-.22,2.27-1.4,3.64-3.22,3.89A3.92,3.92,0,0,1,59,103.85a7.25,7.25,0,0,1,0-5.13A3.91,3.91,0,0,1,63.59,96c1.8.21,2.86,1.42,3.17,3.69-1.16,0-2.39.63-3.18-1-.34-.7-1.63-.43-1.78.43a12.51,12.51,0,0,0,0,4,1,1,0,0,0,1.88.4C64.36,102.18,65.49,102.65,66.68,102.62Z" transform="translate(-38.9 -13.31)"/>
  <path class="cls-1" d="M41.4,92.48c3.78-3.35,8.35-2.34,12.74-2.29.2,0,.4.18.72.33-.58,1.29-1.72,1.15-2.73,1.14-1.57,0-3.13-.2-4.7-.19-5.36.06-7.29,4.35-6.5,8.37a6.46,6.46,0,0,0,6.58,5.37c1.34,0,2.68-.12,4-.21a3.78,3.78,0,0,1,3.45,1,24.81,24.81,0,0,1-3,.41c-2,0-3.93-.09-5.89-.17-2.95-.12-4.74-1.83-5.83-4.41-1.31-3.09-1.33-6.07.86-8.83a3.7,3.7,0,0,0,.29-.6Z" transform="translate(-38.9 -13.31)"/>
  <path class="cls-1" d="M53.31,165.4c.34-.89.72-1.76,1-2.66,1.25-3.79.55-8.17-4.72-9.68-2.85-.82-5.73-.61-8.82-.49v10.91c-1,0-1.34-.39-1.33-1.23q0-4.77,0-9.54c0-.9.32-1.3,1.26-1.27,2.94.11,5.93-.13,8.82.32,4.86.74,7.45,4.83,6.48,9.64-.17.87-.45,1.72-.68,2.58a1.65,1.65,0,0,1-2.07,1.38Z" transform="translate(-38.9 -13.31)"/>
  <path class="cls-1" d="M53.8,129c0-.63-.27-1.38,0-1.86,2.65-4.91.42-10.07-5.17-10.89-2.5-.37-5.06-.38-7.79-.56v11.17c-1,0-1.37-.31-1.37-1.17,0-3.23,0-6.45,0-9.68,0-.64.09-1.17.93-1.14,3.12.09,6.29-.17,9.35.32,4.71.76,7.18,4.83,6.28,9.56-.14.74-.34,1.48-.53,2.21a2.55,2.55,0,0,1-1.75,2Z" transform="translate(-38.9 -13.31)"/>
  <path class="cls-1" d="M299.4,36.25c.09.93.27,1.87.28,2.8.06,7.39.06,14.78.13,22.17a2.84,2.84,0,0,0,2.77,3.07c1.9.26,3.83.19,5.75.32.82,0,1.62.24,2.43.37l0,.44a4.64,4.64,0,0,1-1.38.45c-2.32,0-4.66,0-7-.25a4,4,0,0,1-4-4.13c-.17-2.45-.15-4.92-.16-7.38q0-7.72,0-15.46a15.39,15.39,0,0,1,.35-2.41Z" transform="translate(-38.9 -13.31)"/>
  <path class="cls-1" d="M202.19,169.83c-.21-.92-.32-1.79,1.07-1.85v-2.71h2.8c0,.87.09,1.75.14,2.7l1.32.26v1.68l-1.34.26c0,1.69-.08,3.34,0,5,0,.49.66.94,1,1.41l.28-.16v1.81c-2.72.87-3.92.17-4.17-2.53-.14-1.42-.06-2.86-.08-4.29C203.25,170.21,203.25,170.21,202.19,169.83Z" transform="translate(-38.9 -13.31)"/>
  <path class="cls-1" d="M177.32,139.88v1.69c-2.64,1-4.07.17-4.19-2.54-.07-1.38-.08-2.77,0-4.15,0-.89,0-1.63-1.22-1.52v-1.65c2.17-.17.74-2,1.42-3h2.52l.12,2.75,1.41.2v1.68l-1.43.31c0,1.66-.08,3.3,0,4.94,0,.49.66.93,1,1.4Z" transform="translate(-38.9 -13.31)"/>
  <path class="cls-1" d="M107,96.36l1.67.32v1.66l-1.26.26v7.55h-2.75c0-2.16,0-4.3,0-6.43a2.57,2.57,0,0,0-.89-1.49c-.25-.78-.62-1.77.82-1.78.07-.61.12-1.15.21-1.67a2.61,2.61,0,0,1,3.43-2.06,1,1,0,0,1,.5.74,3.25,3.25,0,0,1-.47,1.35A17,17,0,0,1,107,96.36Z" transform="translate(-38.9 -13.31)"/>
  <path class="cls-1" d="M191.22,141.72h-2.65V127.94h2.65Z" transform="translate(-38.9 -13.31)"/>
  <path class="cls-1" d="M54.78,93.29c-1.34.75-2.81.52-4.26.49A20.62,20.62,0,0,0,46,94a4.34,4.34,0,0,0-3,4.79c.39,2.54,1.88,4,4.2,4.05,1.83,0,3.67,0,5.5,0a20.17,20.17,0,0,1,2.07.25c.11,1.09-.45,1.34-1.21,1.31-2.32-.08-4.65-.08-7-.29a5.22,5.22,0,0,1-4.72-5.26c-.06-2.41.3-4.6,2.8-5.71a6.53,6.53,0,0,1,2.18-.54c2-.14,3.93-.23,5.89-.24a10.17,10.17,0,0,1,2.07.43Z" transform="translate(-38.9 -13.31)"/>
  <path class="cls-1" d="M95,128.35h2.58v13.34c-.29,0-.5.06-.72.06H95Z" transform="translate(-38.9 -13.31)"/>
  <path class="cls-1" d="M53.27,165.36a6,6,0,0,1,2.87,4.75c.16,2.8,0,5.61,0,8.42-1.35.14-1.36-.73-1.37-1.46,0-2.15.08-4.3,0-6.45A4.51,4.51,0,0,0,51.1,166a30.63,30.63,0,0,0-5.17-.56c-1.47-.09-3,0-4.43,0a15.49,15.49,0,0,1-2-.36c1.66-1.56,10.93-1.2,13.85.35Z" transform="translate(-38.9 -13.31)"/>
  <path class="cls-1" d="M53.76,129a8.75,8.75,0,0,1,2.61,6.9c0,2,0,4,0,6.07-1.4.1-1.53-.67-1.54-1.42,0-1.56,0-3.13.07-4.7.22-4.5-1.8-6.78-6.34-6.95-2.19-.08-4.39,0-6.58,0a20,20,0,0,1-2.63-.42c1.87-1.55,11.26-1,14.46.59Z" transform="translate(-38.9 -13.31)"/>
  <path class="cls-1" d="M41.9,117.27c3.06-.29,5.8-.52,8.42.38,2.31.8,3.09,2.9,3.31,5.08a9.34,9.34,0,0,1-.56,3.64c-.17.56-.91.93-1.4,1.39l-.41-.35c.19-.57.36-1.15.58-1.71,1.55-4.1-.49-7.16-4.88-7.35-3.84-.15-3.81-.15-3.81,3.65,0,1.62-.16,3.25-.24,4.87l-.45.07c-.19-.35-.53-.69-.54-1C41.88,123.05,41.9,120.2,41.9,117.27Z" transform="translate(-38.9 -13.31)"/>
  <path class="cls-1" d="M42.51,163.68c-.25-.5-.59-.86-.59-1.22-.05-2.81,0-5.62,0-8.51a27.22,27.22,0,0,1,7.89.14c3.5.63,5,6.39,3.15,9.22a5.63,5.63,0,0,1-1.34,1.11l-.32-.25c.15-.53.27-1.07.47-1.58,1.69-4.37-.32-7.44-5-7.65-3.59-.17-3.56-.17-3.56,3.41,0,1.56-.16,3.12-.26,4.68C42.88,163.19,42.73,163.33,42.51,163.68Z" transform="translate(-38.9 -13.31)"/>
  <path class="cls-1" d="M90.84,106.2H88.45V96.39h2.33l.15,1.09,2.66-1.73V99c-2.42.6-2.53.74-2.57,3.35l0,3.48A2.56,2.56,0,0,1,90.84,106.2Z" transform="translate(-38.9 -13.31)"/>
  <path class="cls-1" d="M53,142.06a6.34,6.34,0,0,1-.54-1.7c-.08-1.56,0-3.13,0-4.69-.08-2.82-1.63-4.38-4.47-4.38-1.87,0-3.74.23-5.62.3a2.8,2.8,0,0,1-2.92-1.16,7.28,7.28,0,0,1,2-.58,57.89,57.89,0,0,1,7.22.32c3.72.51,4.72,1.45,5.2,5.14a45.64,45.64,0,0,1-.06,6.61Z" transform="translate(-38.9 -13.31)"/>
  <path class="cls-1" d="M39.47,167.1c.42-.2.84-.56,1.25-.55,3,.07,5.91.07,8.83.4,2.58.28,3.85,2.05,4.23,4.61a19.54,19.54,0,0,1-.34,7l-.44.12a5.77,5.77,0,0,1-.59-1.62c-.07-1.52,0-3,0-4.56-.06-3-1.53-4.54-4.54-4.6-1.74,0-3.47.31-5.21.32a20.21,20.21,0,0,1-3.16-.45Z" transform="translate(-38.9 -13.31)"/>
  <path class="cls-1" d="M272,36.91c-1.87.81-3.84.38-5.78.4a22.84,22.84,0,0,0-4.9.38c-3.17.74-4.82,3-5.32,6.13-.16,1-.38,1.89-.57,2.84l-.47.12c-.19-.35-.57-.72-.54-1.07.47-6.61,3.49-9.61,10.2-9.86,1.83-.06,3.67-.08,5.5,0a9.08,9.08,0,0,1,2,.57Z" transform="translate(-38.9 -13.31)"/>
  <path class="cls-1" d="M41.44,92.45C41,92,40.25,91.61,40,91.05c-1.66-4.25.55-10.88,7-11.07,2.1-.06,4.21-.07,6.31,0a6,6,0,0,1,1.6.49v.47c-1,.13-2.05.33-3.08.38-1.91.11-3.86,0-5.75.23A6.45,6.45,0,0,0,41,89.91a20.09,20.09,0,0,1,.41,2.58Z" transform="translate(-38.9 -13.31)"/>
  <path class="cls-1" d="M167.89,141.69V131.63h2.72v10.06Z" transform="translate(-38.9 -13.31)"/>
  <path class="cls-1" d="M196.13,141.7h-2.67V131.61h2.67Z" transform="translate(-38.9 -13.31)"/>
  <path class="cls-1" d="M211.79,168.23v10h-2.73v-10Z" transform="translate(-38.9 -13.31)"/>
  <path class="cls-1" d="M154.9,131.64V141.7h-2.66V131.64Z" transform="translate(-38.9 -13.31)"/>
  <path class="cls-1" d="M258.09,46.7c-1.72-2.39.16-6.86,3.23-7.44a65.21,65.21,0,0,1,9.29-.63c.49,0,1,.37,1.51.56l0,.49a15.63,15.63,0,0,1-2.11.39c-2.44.11-4.92,0-7.34.28s-3.24,1.34-3.75,3.84A25.21,25.21,0,0,1,258.09,46.7Z" transform="translate(-38.9 -13.31)"/>
  <path class="cls-1" d="M123,131.92v9.75h-2.59v-9.75Z" transform="translate(-38.9 -13.31)"/>
  <path class="cls-1" d="M110,96.36h2.46v9.8H110Z" transform="translate(-38.9 -13.31)"/>
  <path class="cls-1" d="M131.88,168.68v9.82h-2.59v-9.82Z" transform="translate(-38.9 -13.31)"/>
  <path class="cls-1" d="M82.67,141.68H80.16v-9.79h2.51Z" transform="translate(-38.9 -13.31)"/>
  <path class="cls-1" d="M54.71,83.53c-1.38,0-2.75,0-4.13,0a23.25,23.25,0,0,0-4.5.39,4.46,4.46,0,0,0-3,5.26c.11.47.12,1,.2,1.64-1.53-.43-1.51-1.51-1.52-2.42a5.55,5.55,0,0,1,5.56-6.06c2.08-.12,4.17-.06,6.26,0,.44,0,.87.43,1.31.66Z" transform="translate(-38.9 -13.31)"/>
  <path class="cls-1" d="M167.93,127.9h2.66v2.47h-2.66Z" transform="translate(-38.9 -13.31)"/>
  <path class="cls-1" d="M196.13,130.41h-2.64V127.9h2.64Z" transform="translate(-38.9 -13.31)"/>
  <path class="cls-1" d="M211.78,164.5V167h-2.72V164.5Z" transform="translate(-38.9 -13.31)"/>
  <path class="cls-1" d="M154.87,130.44h-2.62V127.9h2.62Z" transform="translate(-38.9 -13.31)"/>
  <path class="cls-1" d="M129.28,167.5V165h2.59v2.48Z" transform="translate(-38.9 -13.31)"/>
  <path class="cls-1" d="M82.67,130.73H80.16V128.4h2.51Z" transform="translate(-38.9 -13.31)"/>
  <path class="cls-1" d="M195.73,166.85c.94-3.4,1.22-3.68,3.59-3.37C198.07,164.61,197.79,166.52,195.73,166.85Z" transform="translate(-38.9 -13.31)"/>
  <path class="cls-1" d="M120.55,130.36c1.09-3.21,1.09-3.21,3.18-3.05C122.92,129.29,121.67,130.49,120.55,130.36Z" transform="translate(-38.9 -13.31)"/>
  <path class="cls-1" d="M113.49,91.87c-1.25,1.11-1.55,2.88-3.45,3.27C111,91.74,111.15,91.6,113.49,91.87Z" transform="translate(-38.9 -13.31)"/>
  <path class="cls-1" d="M83.74,101.19c0,1.6-.68,2.65-1.7,2.63s-1.66-1.09-1.64-2.68.69-2.65,1.71-2.64S83.74,99.55,83.74,101.19Z" transform="translate(-38.9 -13.31)"/>
  <path class="cls-1" d="M105.25,173.91a7.94,7.94,0,0,1-.61,2.29,2,2,0,0,1-1.51.49,1.18,1.18,0,0,1-.69-.93,2.3,2.3,0,0,1,.88-1.28A7.93,7.93,0,0,1,105.25,173.91Z" transform="translate(-38.9 -13.31)"/>
  <path class="cls-1" d="M133.13,51.14c0,6.72-4.5,11.39-10.93,11.57-7.16.21-11.87-5.59-12-12.08s5.33-11.7,12.24-11.7C128.57,38.94,133.09,44.12,133.13,51.14Zm-21.08-.37c-.21,5.94,4.22,9.84,9.93,9.95,5.55.1,9.38-4,9.38-9.81s-3.86-10-9.4-10A9.56,9.56,0,0,0,112.05,50.77Z" transform="translate(-38.9 -13.31)"/>
</svg>
