<?xml version="1.0" encoding="UTF-8"?>
<!DOCTYPE svg PUBLIC "-//W3C//DTD SVG 1.1//EN" "http://www.w3.org/Graphics/SVG/1.1/DTD/svg11.dtd">
<!-- Creator: CorelDRAW X8 -->
<svg xmlns="http://www.w3.org/2000/svg" xml:space="preserve" width="8.188mm" height="8.1881mm" version="1.1" style="shape-rendering:geometricPrecision; text-rendering:geometricPrecision; image-rendering:optimizeQuality; fill-rule:evenodd; clip-rule:evenodd"
viewBox="0 0 41 41"
 xmlns:xlink="http://www.w3.org/1999/xlink">
 <defs>
  <style type="text/css">
   <![CDATA[
    .fil0 {fill:#00AFEF}
   ]]>
  </style>
 </defs>
 <g id="Capa_x0020_1">
  <metadata id="CorelCorpID_0Corel-Layer"/>
  <path class="fil0" d="M0 20c0,2 0,3 1,5 0,1 0,3 1,4 1,2 1,2 2,4 0,0 1,0 1,0 1,2 3,4 5,5 1,0 1,1 2,1 2,1 5,2 8,2l1 0c4,0 8,-2 11,-4 0,0 1,0 1,0 1,-1 3,-3 4,-4 1,-2 1,-2 2,-4 0,-1 0,-1 1,-2 0,-2 1,-4 1,-6 0,-2 0,-3 -1,-6 -1,-4 -3,-8 -7,-10 0,-1 -1,-2 -2,-2 -1,-1 -1,-1 -2,-1 -2,-1 -5,-2 -8,-2 -3,0 -5,0 -7,1 -3,1 -5,2 -7,4 -1,1 -2,2 -3,3 -2,2 -3,5 -3,7 -1,2 -1,3 -1,5zm16 -4l-3 0 0 4 3 0 0 13 5 0 0 -13 4 0 1 -4 -5 0c0,-2 0,-4 1,-4 1,-1 3,-1 4,-1l0 -4c-4,0 -9,-1 -10,4 0,1 0,3 0,5z"/>
 </g>
</svg>
