<?xml version="1.0" encoding="UTF-8"?>
<!DOCTYPE svg PUBLIC "-//W3C//DTD SVG 1.1//EN" "http://www.w3.org/Graphics/SVG/1.1/DTD/svg11.dtd">
<!-- Creator: CorelDRAW X8 -->
<svg xmlns="http://www.w3.org/2000/svg" xml:space="preserve" width="7.5585mm" height="7.5581mm" version="1.1" style="shape-rendering:geometricPrecision; text-rendering:geometricPrecision; image-rendering:optimizeQuality; fill-rule:evenodd; clip-rule:evenodd"
viewBox="0 0 40 40"
 xmlns:xlink="http://www.w3.org/1999/xlink">
 <defs>
  <style type="text/css">
   <![CDATA[
    .fil0 {fill:#00AFEF}
   ]]>
  </style>
 </defs>
 <g id="Capa_x0020_1">
  <metadata id="CorelCorpID_0Corel-Layer"/>
  <g id="_2461405360336">
   <path class="fil0" d="M7 20c0,-7 6,-12 12,-13 7,0 13,6 13,12 1,7 -5,13 -12,13 -7,1 -12,-5 -13,-12zm25 -16c2,0 3,1 4,2 0,2 -1,3 -3,4 -3,1 -5,-5 -1,-6zm-32 12c0,4 0,12 0,15 0,2 1,3 1,4 1,1 1,1 2,2 1,1 2,1 3,2 3,1 8,1 11,1 4,0 10,0 13,-1 2,0 4,0 5,-1 5,-3 5,-10 5,-15l0 -7c0,-6 0,-13 -6,-15 -3,-1 -8,-1 -12,-1l-6 0c-5,0 -10,0 -13,3 -1,1 -1,1 -2,2 -1,3 -1,8 -1,11z"/>
   <path class="fil0" d="M19 12c-3,0 -4,1 -5,3 -2,1 -2,3 -2,6 0,4 4,7 9,7 4,-1 7,-4 7,-9 -1,-4 -4,-8 -9,-7z"/>
  </g>
 </g>
</svg>
