<?xml version="1.0" encoding="UTF-8"?>
<!DOCTYPE svg PUBLIC "-//W3C//DTD SVG 1.1//EN" "http://www.w3.org/Graphics/SVG/1.1/DTD/svg11.dtd">
<!-- Creator: CorelDRAW X8 -->
<svg xmlns="http://www.w3.org/2000/svg" xml:space="preserve" width="21.1644mm" height="21.4848mm" version="1.1" style="shape-rendering:geometricPrecision; text-rendering:geometricPrecision; image-rendering:optimizeQuality; fill-rule:evenodd; clip-rule:evenodd"
viewBox="0 0 295 300"
 xmlns:xlink="http://www.w3.org/1999/xlink">
 <defs>
  <style type="text/css">
   <![CDATA[
    .fil0 {fill:#FEFEFE;fill-rule:nonzero}
   ]]>
  </style>
 </defs>
 <g id="Capa_x0020_1">
  <metadata id="CorelCorpID_0Corel-Layer"/>
  <g id="_2650131209328">
   <path class="fil0" d="M131 131c10,0 20,4 27,11 7,7 11,17 11,27 0,11 -4,21 -11,28 -7,7 -17,11 -27,11 -11,0 -21,-4 -28,-11 -7,-7 -11,-17 -11,-28 0,-10 4,-20 11,-27 7,-7 17,-11 28,-11zm21 17c-5,-6 -13,-9 -21,-9 -9,0 -16,3 -22,9 -6,5 -9,13 -9,21 0,9 3,16 9,22 6,5 13,9 22,9 8,0 16,-4 21,-9 6,-6 9,-13 9,-22 0,-8 -3,-16 -9,-21z"/>
   <path class="fil0" d="M131 86c23,0 43,10 58,25 15,15 25,35 25,58 0,23 -10,44 -25,59 -15,15 -35,24 -58,24 -23,0 -44,-9 -59,-24 -15,-15 -24,-36 -24,-59 0,-23 9,-43 24,-58 15,-15 36,-25 59,-25zm53 30c-14,-13 -33,-22 -53,-22 -21,0 -40,9 -53,22 -14,14 -22,33 -22,53 0,21 8,40 22,53 13,14 32,22 53,22 20,0 39,-8 53,-22 13,-13 21,-32 21,-53 0,-20 -8,-39 -21,-53z"/>
   <path class="fil0" d="M131 39c36,0 68,14 92,38 24,23 38,56 38,92 0,36 -14,69 -38,93 -24,23 -56,38 -92,38 -36,0 -69,-15 -93,-38 -23,-24 -38,-57 -38,-93 0,-36 15,-69 38,-92 24,-24 57,-38 93,-38zm86 44c-22,-23 -52,-36 -86,-36 -34,0 -65,13 -87,36 -22,22 -36,52 -36,86 0,34 14,65 36,87 22,22 53,36 87,36 34,0 64,-14 86,-36 23,-22 36,-53 36,-87 0,-34 -13,-64 -36,-86z"/>
   <polygon class="fil0" points="128,166 273,23 278,28 134,172 "/>
   <path class="fil0" d="M172 70l71 -70 17 40 35 18 -70 69 -36 -17 -19 -38 2 -2zm68 -56l-60 60 15 30 29 13 58 -56 -29 -15 -13 -32z"/>
  </g>
 </g>
</svg>
