<?xml version="1.0" encoding="UTF-8"?>
<!DOCTYPE svg PUBLIC "-//W3C//DTD SVG 1.1//EN" "http://www.w3.org/Graphics/SVG/1.1/DTD/svg11.dtd">
<!-- Creator: CorelDRAW X8 -->
<svg xmlns="http://www.w3.org/2000/svg" xml:space="preserve" width="29.7044mm" height="12.7423mm" version="1.1" style="shape-rendering:geometricPrecision; text-rendering:geometricPrecision; image-rendering:optimizeQuality; fill-rule:evenodd; clip-rule:evenodd"
viewBox="0 0 880 378"
 xmlns:xlink="http://www.w3.org/1999/xlink">
 <defs>
  <style type="text/css">
   <![CDATA[
    .fil0 {fill:#FEFEFE;fill-rule:nonzero}
   ]]>
  </style>
 </defs>
 <g id="Capa_x0020_1">
  <metadata id="CorelCorpID_0Corel-Layer"/>
  <g id="_2686271087648">
   <path class="fil0" d="M442 0c112,5 194,28 261,60 67,32 118,74 169,117l8 8 -8 8c-119,122 -270,184 -423,185 -153,0 -308,-61 -440,-183l-9 -9 15 -12c104,-82 210,-167 427,-174l0 0zm252 79c-65,-31 -144,-53 -252,-58 -206,8 -309,87 -409,166 126,114 272,169 416,169 144,0 286,-57 400,-170 -46,-39 -95,-77 -155,-107z"/>
   <path class="fil0" d="M441 4c50,0 97,21 130,54 33,34 54,80 54,131 0,51 -21,97 -54,130 -33,34 -80,54 -130,54 -51,0 -98,-20 -131,-54 -33,-33 -54,-79 -54,-130 0,-51 21,-97 54,-131 33,-33 80,-54 131,-54zm115 70c-30,-30 -70,-48 -115,-48 -45,0 -86,18 -116,48 -29,29 -47,70 -47,115 0,45 18,86 47,115 30,29 71,48 116,48 45,0 85,-19 115,-48 29,-29 47,-70 47,-115 0,-45 -18,-86 -47,-115z"/>
   <path class="fil0" d="M440 74c32,0 61,13 82,34 20,20 33,49 33,81 0,31 -13,60 -33,81 -21,21 -50,33 -82,33 -30,0 -58,-12 -79,-32 -21,-20 -34,-47 -35,-78l0 -10 9 -1c16,-2 30,-10 40,-21 9,-12 15,-26 15,-43 0,-3 0,-7 0,-10 -1,-3 -2,-7 -3,-10l-3 -9 9 -4c7,-4 15,-6 23,-8 8,-2 16,-3 24,-3zm66 49c-17,-17 -40,-27 -66,-27 -6,0 -13,0 -19,2 -4,1 -8,2 -11,3 0,1 1,2 1,4 0,4 1,9 1,13 0,22 -8,42 -21,57 -11,12 -26,22 -43,26 3,22 13,41 28,55 17,16 39,26 64,26 26,0 49,-10 66,-27 17,-17 28,-40 28,-66 0,-26 -11,-49 -28,-66z"/>
  </g>
 </g>
</svg>
