<?xml version="1.0" encoding="UTF-8"?>
<!DOCTYPE svg PUBLIC "-//W3C//DTD SVG 1.1//EN" "http://www.w3.org/Graphics/SVG/1.1/DTD/svg11.dtd">
<!-- Creator: CorelDRAW X8 -->
<svg xmlns="http://www.w3.org/2000/svg" xml:space="preserve" width="6.5053mm" height="6.5053mm" version="1.1" style="shape-rendering:geometricPrecision; text-rendering:geometricPrecision; image-rendering:optimizeQuality; fill-rule:evenodd; clip-rule:evenodd"
viewBox="0 0 26 26"
 xmlns:xlink="http://www.w3.org/1999/xlink">
 <defs>
  <style type="text/css">
   <![CDATA[
    .fil0 {fill:#FF6600}
   ]]>
  </style>
 </defs>
 <g id="Capa_x0020_1">
  <metadata id="CorelCorpID_0Corel-Layer"/>
  <path class="fil0" d="M26 13c0,7 -6,13 -13,13 -7,0 -13,-6 -13,-13 0,-7 6,-13 13,-13 7,0 13,6 13,13zm-9 -4c1,0 1,0 2,0 0,0 0,0 0,0 0,1 0,1 -1,1 -1,0 -2,0 -3,0 0,0 0,0 0,-1 0,0 0,0 0,0 0,0 1,0 1,0 0,0 1,0 1,0zm-5 4c0,0 0,0 0,-1 0,0 0,0 0,0 0,0 1,-1 1,-2 0,-1 -1,-1 -2,-2 0,0 0,0 -1,0 -1,0 -3,0 -5,0 0,0 0,0 0,0 0,3 0,6 0,9 0,1 0,1 1,1 1,0 2,0 3,0 1,0 2,0 2,-1 1,0 2,-1 2,-2 0,-1 0,-2 -1,-2zm-5 -3l0 0c1,0 2,0 3,0 1,0 1,1 1,1 -1,1 -1,1 -1,1 -1,0 -1,0 -1,0 -1,0 -1,0 -1,0 -1,0 -1,0 -1,0 0,-1 0,-2 0,-2 0,0 0,0 0,0zm3 6l0 0c0,0 0,0 0,0 -1,0 -2,0 -3,0 0,0 0,0 0,0 0,-1 0,-2 0,-2 0,-1 0,-1 0,-1 1,0 1,0 1,0 1,0 2,0 2,0 1,1 1,1 1,2 0,0 0,1 -1,1zm6 -1c1,0 1,0 2,0 1,0 2,0 2,0 1,0 1,0 1,-1 0,0 0,0 0,-1 -1,-1 -1,-2 -2,-2 -1,0 -1,0 -2,0 -1,0 -2,0 -3,1 0,2 0,3 0,4 0,1 1,1 1,1 1,1 2,1 3,1 1,-1 2,-1 2,-2 0,0 0,-1 0,-1 0,0 -1,0 -1,0 0,0 0,0 0,1 -1,0 -1,0 -2,0 -1,0 -1,0 -1,-1 0,0 0,0 0,0zm0 -2l0 0c0,-1 1,-1 2,-1 0,0 1,1 1,1 0,0 0,0 -1,0 0,0 0,0 -1,0 0,0 -1,0 -1,0 0,0 0,0 0,0z"/>
 </g>
</svg>
