<?xml version="1.0" encoding="UTF-8"?>
<!DOCTYPE svg PUBLIC "-//W3C//DTD SVG 1.1//EN" "http://www.w3.org/Graphics/SVG/1.1/DTD/svg11.dtd">
<!-- Creator: CorelDRAW X8 -->
<svg xmlns="http://www.w3.org/2000/svg" xml:space="preserve" width="6.506mm" height="6.5055mm" version="1.1" style="shape-rendering:geometricPrecision; text-rendering:geometricPrecision; image-rendering:optimizeQuality; fill-rule:evenodd; clip-rule:evenodd"
viewBox="0 0 24 24"
 xmlns:xlink="http://www.w3.org/1999/xlink">
 <defs>
  <style type="text/css">
   <![CDATA[
    .fil0 {fill:#FF6600;fill-rule:nonzero}
   ]]>
  </style>
 </defs>
 <g id="Capa_x0020_1">
  <metadata id="CorelCorpID_0Corel-Layer"/>
  <g id="_2795348871488">
   <path class="fil0" d="M20 3c-2,-2 -6,-3 -9,-3l2 4c2,0 3,1 5,2 3,3 3,8 0,11l3 2c4,-5 3,-11 -1,-16z"/>
   <path class="fil0" d="M17 18c-3,3 -8,3 -11,0 -1,-2 -2,-4 -2,-5l-4 -2c0,3 1,7 3,9 5,4 11,5 16,1l-2 -3z"/>
   <path class="fil0" d="M10 0c-2,0 -5,2 -7,3 -1,2 -2,5 -3,7l4 1c0,-2 0,-4 2,-5 2,-2 4,-2 6,-2l-2 -4z"/>
   <path class="fil0" d="M10 14c1,-1 1,-1 2,-2 1,-1 1,-1 2,-2l0 0 3 7 -7 -3 0 0z"/>
  </g>
 </g>
</svg>
