<?xml version="1.0" encoding="UTF-8"?>
<!DOCTYPE svg PUBLIC "-//W3C//DTD SVG 1.1//EN" "http://www.w3.org/Graphics/SVG/1.1/DTD/svg11.dtd">
<!-- Creator: CorelDRAW X8 -->
<svg xmlns="http://www.w3.org/2000/svg" xml:space="preserve" width="4.8294mm" height="4.829mm" version="1.1" style="shape-rendering:geometricPrecision; text-rendering:geometricPrecision; image-rendering:optimizeQuality; fill-rule:evenodd; clip-rule:evenodd"
viewBox="0 0 485 485"
 xmlns:xlink="http://www.w3.org/1999/xlink">
 <defs>
  <style type="text/css">
   <![CDATA[
    .fil0 {fill:white;fill-rule:nonzero}
   ]]>
  </style>
 </defs>
 <g id="Capa_x0020_1">
  <metadata id="CorelCorpID_0Corel-Layer"/>
  <g id="_2795255736256">
   <path class="fil0" d="M414 71c-50,-50 -117,-74 -183,-71l30 75c37,4 73,20 101,48 62,62 66,162 10,228l68 32c68,-95 59,-227 -26,-312z"/>
   <path class="fil0" d="M356 367c-66,61 -169,59 -233,-5 -29,-29 -45,-66 -49,-105l-73 -30c-5,67 19,136 70,187 86,86 220,94 315,24l-30 -71z"/>
   <path class="fil0" d="M209 2c-51,7 -99,30 -138,69 -38,38 -60,85 -68,135l71 29c2,-41 18,-81 49,-112 32,-32 73,-48 115,-49l-29 -72z"/>
   <path class="fil0" d="M209 292c8,-18 19,-34 33,-48 15,-15 33,-27 52,-34l-1 0 57 139 -140 -57 -1 0z"/>
  </g>
 </g>
</svg>
