<?xml version="1.0" encoding="UTF-8"?>
<!DOCTYPE svg PUBLIC "-//W3C//DTD SVG 1.1//EN" "http://www.w3.org/Graphics/SVG/1.1/DTD/svg11.dtd">
<!-- Creator: CorelDRAW X8 -->
<svg xmlns="http://www.w3.org/2000/svg" xml:space="preserve" width="10.2403mm" height="11.4817mm" version="1.1" style="shape-rendering:geometricPrecision; text-rendering:geometricPrecision; image-rendering:optimizeQuality; fill-rule:evenodd; clip-rule:evenodd"
viewBox="0 0 62 69"
 xmlns:xlink="http://www.w3.org/1999/xlink">
 <defs>
  <style type="text/css">
   <![CDATA[
    .fil0 {fill:#9900CC;fill-rule:nonzero}
   ]]>
  </style>
 </defs>
 <g id="Capa_x0020_1">
  <metadata id="CorelCorpID_0Corel-Layer"/>
  <path class="fil0" d="M31 69c3,0 6,-2 6,-6l-1 -19 16 10c2,1 3,1 4,1 3,0 6,-3 6,-6 0,-2 -1,-4 -4,-5l-16 -9 16 -9c3,-2 4,-4 4,-6 0,-3 -3,-5 -6,-5 -1,0 -2,0 -4,0l-16 10 1 -19c0,-4 -3,-6 -6,-6 -3,0 -6,2 -6,6l0 19 -16 -10c-1,0 -2,0 -3,0 -4,0 -6,2 -6,5 0,2 1,4 4,6l16 9 -16 9c-3,1 -4,3 -4,5 0,3 2,6 6,6 1,0 2,0 3,-1l16 -9 0 18c0,4 3,6 6,6l0 0z"/>
 </g>
</svg>
