<?xml version="1.0" encoding="UTF-8"?>
<!DOCTYPE svg PUBLIC "-//W3C//DTD SVG 1.1//EN" "http://www.w3.org/Graphics/SVG/1.1/DTD/svg11.dtd">
<!-- Creator: CorelDRAW X8 -->
<svg xmlns="http://www.w3.org/2000/svg" xml:space="preserve" width="6.5055mm" height="6.5055mm" version="1.1" style="shape-rendering:geometricPrecision; text-rendering:geometricPrecision; image-rendering:optimizeQuality; fill-rule:evenodd; clip-rule:evenodd"
viewBox="0 0 37 37"
 xmlns:xlink="http://www.w3.org/1999/xlink">
 <defs>
  <style type="text/css">
   <![CDATA[
    .fil0 {fill:#FF6600}
   ]]>
  </style>
 </defs>
 <g id="Capa_x0020_1">
  <metadata id="CorelCorpID_0Corel-Layer"/>
  <path class="fil0" d="M0 18c0,2 0,3 1,5 0,1 0,2 1,3 1,2 1,2 2,4 0,0 0,0 0,0 2,2 4,4 5,5 1,0 1,0 2,0 1,1 4,2 7,2l1 0c4,0 7,-1 10,-3 0,0 1,-1 1,-1 1,-1 2,-2 3,-3 1,-2 2,-2 2,-4 1,0 1,-1 1,-1 1,-2 1,-4 1,-6 0,-2 0,-3 0,-5 -1,-4 -4,-7 -7,-10 0,0 -1,-1 -2,-2 -1,0 -1,0 -2,0 -1,-1 -4,-2 -7,-2 -3,0 -4,0 -7,1 -2,1 -4,2 -5,3 -1,1 -2,2 -3,3 -2,2 -3,4 -3,7 -1,1 -1,3 -1,4zm15 -4l-3 0 0 4 3 0 0 12 5 0 0 -12 3 0 1 -4 -4 0c0,-1 -1,-3 0,-3 1,-1 3,-1 4,-1l0 -4c-4,0 -8,0 -9,4 0,1 0,3 0,4z"/>
 </g>
</svg>
