<?xml version="1.0" encoding="UTF-8"?>
<!DOCTYPE svg PUBLIC "-//W3C//DTD SVG 1.1//EN" "http://www.w3.org/Graphics/SVG/1.1/DTD/svg11.dtd">
<!-- Creator: CorelDRAW X8 -->
<svg xmlns="http://www.w3.org/2000/svg" xml:space="preserve" width="6.5053mm" height="6.5053mm" version="1.1" style="shape-rendering:geometricPrecision; text-rendering:geometricPrecision; image-rendering:optimizeQuality; fill-rule:evenodd; clip-rule:evenodd"
viewBox="0 0 29 29"
 xmlns:xlink="http://www.w3.org/1999/xlink">
 <defs>
  <style type="text/css">
   <![CDATA[
    .fil0 {fill:#FF6600}
   ]]>
  </style>
 </defs>
 <g id="Capa_x0020_1">
  <metadata id="CorelCorpID_0Corel-Layer"/>
  <path class="fil0" d="M29 14c0,8 -7,15 -15,15 -8,0 -14,-7 -14,-15 0,-8 6,-14 14,-14 8,0 15,6 15,14zm-14 -1c0,0 0,0 0,0 1,-2 3,-2 4,-2 2,1 3,2 4,4 0,0 0,1 0,1 0,2 0,4 0,6 0,0 0,1 0,1 -1,0 -3,0 -4,0 0,0 0,-1 0,-1 0,-2 0,-3 0,-5 0,-1 0,-1 0,-2 0,-1 -2,-1 -3,0 0,0 -1,1 -1,1 0,2 0,4 0,6 0,0 0,0 0,0 0,1 0,1 0,1 -1,0 -2,0 -3,0 0,0 0,0 0,-1 0,-1 0,-3 0,-4 0,-2 0,-4 0,-6 0,0 0,-1 0,0 1,0 2,0 3,0 0,0 0,0 0,0 0,0 0,1 0,1zm-5 4c0,2 0,4 0,5 0,0 0,1 -1,1 -1,0 -2,0 -3,0 0,0 0,-1 0,-1 0,-3 0,-7 0,-10 0,0 0,0 0,0 1,0 2,0 3,0 1,-1 1,0 1,0 0,2 0,3 0,5zm-2 -11c1,0 2,1 2,3 0,1 -1,1 -3,1 -1,0 -2,-1 -1,-3 0,0 1,-1 2,-1z"/>
 </g>
</svg>
