<?xml version="1.0" encoding="UTF-8"?>
<!DOCTYPE svg PUBLIC "-//W3C//DTD SVG 1.1//EN" "http://www.w3.org/Graphics/SVG/1.1/DTD/svg11.dtd">
<!-- Creator: CorelDRAW X8 -->
<svg xmlns="http://www.w3.org/2000/svg" xml:space="preserve" width="53.1397mm" height="14.129mm" version="1.1" style="shape-rendering:geometricPrecision; text-rendering:geometricPrecision; image-rendering:optimizeQuality; fill-rule:evenodd; clip-rule:evenodd"
viewBox="0 0 285 76"
 xmlns:xlink="http://www.w3.org/1999/xlink">
 <defs>
  <style type="text/css">
   <![CDATA[
    .fil0 {fill:#0B71B5;fill-rule:nonzero}
    .fil1 {fill:black;fill-rule:nonzero}
   ]]>
  </style>
 </defs>
 <g id="Capa_x0020_1">
  <metadata id="CorelCorpID_0Corel-Layer"/>
  <g id="_1745717169520">
   <path class="fil0" d="M5 45c0,4 1,5 4,5l23 0c4,0 5,-1 5,-5l0 -7 -8 0 0 3c0,1 -1,1 -2,1l-12 0c-1,0 -1,0 -1,-1l0 -12 16 0 0 -8 -16 0 0 -13 11 0c1,0 2,0 2,1l0 3 8 0 0 -7c0,-4 -1,-5 -5,-5l-30 0 0 8 5 0 0 37zm39 -8c0,12 10,14 15,14 2,0 3,-1 3,-1l0 -7c0,0 0,0 -1,0 -3,0 -8,-1 -8,-7l0 -15 9 0 0 -7 -9 0 0 -10 -8 0 0 10 -5 0 0 7 4 0 0 16zm22 -5c0,10 8,19 20,19 9,0 14,-5 14,-5l-4 -7c0,0 -4,4 -10,4 -5,0 -10,-3 -10,-9l24 0c0,0 1,-3 1,-4 0,-9 -6,-17 -16,-17 -11,0 -19,8 -19,19zm10 -4c1,-5 4,-8 9,-8 3,0 6,3 6,8l-15 0zm33 17c0,4 2,5 5,5l8 0 0 -7 -2 0c-1,0 -2,-1 -2,-2l0 -36c0,-4 -1,-5 -5,-5l-8 0 0 8 3 0c1,0 1,0 1,1l0 36z"/>
   <path class="fil0" d="M150 50l9 0 0 -20 16 0 0 -8 -16 0 0 -14 10 0c1,0 1,0 1,1l0 3 9 0 0 -7c0,-4 -2,-5 -5,-5l-29 0 0 8 5 0 0 42z"/>
   <path class="fil0" d="M186 50l9 0 0 -14c0,-2 0,-4 1,-6 1,-5 6,-8 9,-8 2,0 3,1 3,1l0 -9c0,0 -1,0 -2,0 -6,0 -10,4 -12,9l0 0c0,0 0,-1 0,-2l0 -2c0,-4 -1,-5 -4,-5l-9 0 0 8 3 0c1,0 2,0 2,1l0 27z"/>
   <path class="fil0" d="M210 32c0,10 7,19 19,19 9,0 15,-5 15,-5l-4 -7c0,0 -4,4 -10,4 -5,0 -10,-3 -11,-9l25 0c0,0 0,-3 0,-4 0,-9 -5,-17 -16,-17 -10,0 -18,8 -18,19zm10 -4c1,-5 4,-8 8,-8 4,0 7,3 7,8l-15 0z"/>
   <path class="fil0" d="M251 65l-4 6c0,0 4,4 9,4 6,0 11,-3 13,-9l13 -44c1,-1 1,-1 2,-1l1 0 0 -8 -6 0c-2,0 -4,1 -4,4l-7 18c0,2 -1,5 -1,5l0 0c0,0 -1,-3 -1,-5l-7 -18c-1,-3 -2,-4 -5,-4l-6 0 0 8 1 0c1,0 2,0 2,1l12 30c-1,6 -1,15 -7,15 -3,1 -5,-2 -5,-2z"/>
   <g>
    <path class="fil1" d="M15 76l2 0 -5 -15 -2 0 -6 15 2 0 2 -5 6 0 1 5zm-4 -13c0,0 0,1 0,2l2 5 -5 0 2 -5c0,-1 1,-2 1,-2l0 0z"/>
    <path class="fil1" d="M35 76l2 0 0 -6 3 0 3 6 3 0 -4 -6c0,-1 0,-1 0,-1l0 0c2,0 3,-2 3,-4 0,-2 -1,-3 -3,-4 0,0 -1,0 -3,0l-4 0 0 15zm2 -8l0 -5 2 0c1,0 2,0 2,0 1,0 1,1 1,2 0,2 -1,3 -2,3l-3 0z"/>
    <path class="fil1" d="M63 68c0,4 3,8 8,8 3,0 5,-2 5,-2l-1 -2c0,0 -1,2 -4,2 -4,0 -6,-3 -6,-6 0,-3 2,-6 6,-6 2,0 4,2 4,2l1 -2c0,0 -2,-2 -5,-2 -5,0 -8,4 -8,8z"/>
    <polygon class="fil1" points="94,76 96,76 96,69 104,69 104,76 106,76 106,61 104,61 104,67 96,67 96,61 94,61 "/>
    <polygon class="fil1" points="124,76 126,76 126,61 124,61 "/>
    <polygon class="fil1" points="152,76 154,76 154,63 159,63 159,61 147,61 147,63 152,63 "/>
    <polygon class="fil1" points="176,76 185,76 185,74 178,74 178,69 183,69 183,67 178,67 178,63 184,63 184,61 176,61 "/>
    <path class="fil1" d="M201 68c0,4 3,8 8,8 3,0 5,-2 5,-2l-1 -2c0,0 -2,2 -4,2 -4,0 -6,-3 -6,-6 0,-3 2,-6 6,-6 2,0 4,2 4,2l1 -2c0,0 -2,-2 -5,-2 -5,0 -8,4 -8,8z"/>
    <polygon class="fil1" points="236,76 238,76 238,63 243,63 243,61 231,61 231,63 236,63 "/>
   </g>
  </g>
 </g>
</svg>
