<?xml version="1.0" encoding="UTF-8"?>
<!DOCTYPE svg PUBLIC "-//W3C//DTD SVG 1.1//EN" "http://www.w3.org/Graphics/SVG/1.1/DTD/svg11.dtd">
<!-- Creator: CorelDRAW X8 -->
<svg xmlns="http://www.w3.org/2000/svg" xml:space="preserve" width="111.246mm" height="197.584mm" version="1.1" style="shape-rendering:geometricPrecision; text-rendering:geometricPrecision; image-rendering:optimizeQuality; fill-rule:evenodd; clip-rule:evenodd"
viewBox="0 0 1587 2818"
 xmlns:xlink="http://www.w3.org/1999/xlink">
 <defs>
  <style type="text/css">
   <![CDATA[
    .str0 {stroke:#E6E6E6;stroke-width:1.08696}
    .fil0 {fill:#333333}
    .fil1 {fill:#00AFEF;fill-rule:nonzero}
    .fil2 {fill:white;fill-rule:nonzero}
   ]]>
  </style>
 </defs>
 <g id="Capa_x0020_1">
  <metadata id="CorelCorpID_0Corel-Layer"/>
  <polygon class="fil0 str0" points="1,1 1586,1 1586,2818 1,2818 "/>
  <g id="_1745700290912">
   <path class="fil1" d="M784 2024l-3 -7c13,-5 24,-11 32,-18 8,-6 15,-14 21,-24 8,-15 13,-30 14,-44 -5,2 -10,3 -14,3 -12,0 -21,-4 -28,-11 -8,-7 -11,-16 -11,-27 0,-10 3,-19 11,-27 7,-7 16,-11 26,-11 13,0 23,5 31,15 8,10 11,23 11,40 0,16 -4,33 -11,49 -8,16 -19,29 -32,40 -13,11 -29,18 -47,22zm-109 0l-3 -7c14,-5 25,-11 33,-18 8,-6 15,-14 21,-24 8,-15 14,-30 15,-44 -6,2 -11,3 -15,3 -12,0 -21,-4 -28,-11 -8,-7 -11,-16 -11,-27 0,-10 3,-19 11,-27 7,-7 16,-11 26,-11 13,0 23,5 31,15 7,10 11,23 11,40 0,16 -4,33 -12,49 -8,16 -18,29 -31,40 -14,11 -30,18 -48,22z"/>
   <path class="fil1" d="M763 961l3 -7c-14,-5 -24,-11 -32,-18 -8,-6 -15,-14 -21,-24 -8,-15 -13,-30 -15,-44 6,2 11,3 15,3 12,0 21,-4 28,-11 8,-7 11,-16 11,-26 0,-11 -4,-20 -11,-28 -7,-7 -16,-11 -26,-11 -13,0 -23,5 -31,15 -8,10 -12,24 -12,40 0,16 4,33 12,49 8,16 19,29 31,40 14,11 30,18 48,22zm109 0l2 -7c-14,-5 -24,-11 -32,-18 -8,-6 -15,-14 -21,-24 -9,-15 -14,-30 -15,-44 6,2 11,3 15,3 12,0 21,-4 28,-11 7,-7 11,-16 11,-26 0,-11 -4,-20 -11,-28 -7,-7 -16,-11 -26,-11 -13,0 -23,5 -31,15 -8,10 -11,24 -11,40 0,16 4,33 11,49 8,16 19,29 32,40 14,11 30,18 48,22z"/>
   <g>
    <g>
     <path class="fil2" d="M341 1170l8 0 13 -48c2,-4 3,-10 3,-10l0 0c0,0 1,6 2,10l13 48 8 0 15 -60c1,-2 2,-2 4,-2l1 0 0 -6 -3 0c-5,0 -7,1 -8,5l-12 47c-1,4 -1,7 -1,7l-1 0c0,0 0,-3 -1,-7l-14 -52 -6 0 -15 52c-1,4 -2,7 -2,7l0 0c0,0 -1,-3 -2,-7l-12 -47c-1,-4 -3,-5 -8,-5l-3 0 0 6 1 0c2,0 4,0 4,2l16 60zm77 0l6 0 0 -24c0,-2 1,-4 1,-6 2,-8 9,-14 18,-14 9,0 10,7 10,14l0 24c0,4 2,6 6,6l7 0 0 -6 -4 0c-1,0 -2,-1 -2,-2l0 -23c0,-12 -4,-19 -16,-19 -11,0 -18,7 -20,12l0 0c0,0 0,-2 0,-4l0 -21c0,-3 -1,-5 -6,-5l-6 0 0 5 4 0c1,0 2,1 2,3l0 60zm54 -14c0,10 8,15 16,15 12,0 17,-11 16,-11l1 0c0,0 0,2 0,4 0,4 1,6 5,6l7 0 0 -6 -4 0c-1,0 -2,-1 -2,-2l0 -23c0,-11 -4,-19 -19,-19 -4,0 -16,1 -16,8l0 5 6 0 0 -3c0,-4 7,-5 10,-5 9,0 12,4 12,14l0 1 -2 0c-9,0 -30,0 -30,16zm7 0c0,-11 15,-11 22,-11l3 0 0 2c0,8 -5,18 -15,18 -7,0 -10,-4 -10,-9zm49 -4c0,16 11,18 17,18 1,0 3,0 3,0l0 -6c0,0 -1,0 -3,0 -3,0 -10,-1 -10,-13l0 -24 12 0 0 -6 -12 0 0 -13 -7 0 0 13 -6 0 0 6 6 0 0 25zm54 18l19 0 0 -6 -6 0 0 -56 6 0 0 -6 -19 0 0 6 6 0 0 56 -6 0 0 6zm58 -6c0,4 2,6 6,6l7 0 0 -6 -4 0c-1,0 -2,-1 -2,-2l0 -54c0,-4 -2,-6 -6,-6l-7 0 0 5 4 0c1,0 2,1 2,3l0 54zm24 -54l7 0 0 -8 -7 0 0 8zm0 54c0,4 2,6 6,6l7 0 0 -6 -4 0c-1,0 -2,-1 -2,-2l0 -35c0,-4 -2,-6 -6,-6l-7 0 0 6 4 0c2,0 2,1 2,2l0 35zm24 6l6 0 0 -25 5 0c2,0 4,0 5,2l10 18c2,4 3,5 8,5l4 0 0 -6 -2 0c-3,0 -4,-1 -5,-2l-8 -16c-2,-3 -3,-4 -3,-4l0 0c0,0 1,0 3,-3l14 -18 -8 0 -12 16c-1,2 -4,3 -6,3l-5 0 0 -33c0,-4 -1,-5 -5,-5l-7 0 0 5 4 0c1,0 2,1 2,3l0 60zm43 -25c0,15 11,26 25,26 11,0 18,-7 18,-7l-3 -5c0,0 -6,6 -15,6 -10,0 -18,-7 -19,-19l38 0c0,0 0,-3 0,-4 0,-12 -7,-22 -20,-22 -13,0 -24,9 -24,25zm7 -5c1,-9 8,-15 16,-15 8,0 14,5 14,15l-30 0zm72 16c0,10 8,15 16,15 12,0 16,-11 16,-11l0 0c0,0 0,2 0,4 0,4 2,6 6,6l7 0 0 -6 -4 0c-2,0 -2,-1 -2,-2l0 -23c0,-11 -4,-19 -19,-19 -5,0 -16,1 -16,8l0 5 6 0 0 -3c0,-4 7,-5 10,-5 8,0 12,4 12,14l0 1 -3 0c-8,0 -29,0 -29,16zm6 0c0,-11 16,-11 23,-11l3 0 0 2c0,8 -6,18 -15,18 -7,0 -11,-4 -11,-9zm49 14l6 0 0 -5c0,-2 0,-4 0,-4l0 0c0,0 5,10 16,10 13,0 22,-10 22,-26 0,-15 -8,-25 -21,-25 -13,0 -17,9 -17,9l0 0c0,0 0,-2 0,-4l0 -17c0,-4 -1,-6 -5,-6l-7 0 0 5 4 0c1,0 2,1 2,3l0 60zm6 -25c0,-13 8,-19 16,-19 9,0 15,8 15,19 0,13 -7,20 -15,20 -11,0 -16,-10 -16,-20zm46 0c0,15 11,26 26,26 14,0 25,-11 25,-26 0,-14 -11,-25 -26,-25 -14,0 -25,11 -25,25zm7 0c0,-11 8,-19 19,-19 10,0 18,8 18,19 0,11 -8,20 -18,20 -11,0 -19,-9 -19,-20zm56 7c0,13 5,19 16,19 11,0 17,-8 19,-13l1 0c0,0 -1,2 -1,4l0 2c0,4 2,6 6,6l7 0 0 -6 -4 0c-2,0 -2,-1 -2,-2l0 -41 -7 0 0 23c0,11 -7,21 -18,21 -9,0 -10,-7 -10,-15l0 -23c0,-4 -2,-6 -6,-6l-7 0 0 6 4 0c1,0 2,1 2,2l0 23zm59 0c0,16 11,18 17,18 2,0 3,0 3,0l0 -6c0,0 -1,0 -3,0 -3,0 -10,-1 -10,-13l0 -24 12 0 0 -6 -12 0 0 -13 -7 0 0 13 -6 0 0 6 6 0 0 25zm59 0c0,16 11,18 16,18 2,0 3,0 3,0l0 -6c0,0 -1,0 -2,0 -4,0 -11,-1 -11,-13l0 -24 12 0 0 -6 -12 0 0 -13 -6 0 0 13 -7 0 0 6 7 0 0 25zm30 18l7 0 0 -24c0,-2 0,-4 1,-6 2,-8 9,-14 17,-14 10,0 11,7 11,14l0 24c0,4 1,6 6,6l6 0 0 -6 -4 0c-1,0 -2,-1 -2,-2l0 -23c0,-12 -4,-19 -16,-19 -11,0 -17,7 -19,12l0 0c0,0 0,-2 0,-4l0 -21c0,-3 -2,-5 -6,-5l-7 0 0 5 4 0c1,0 2,1 2,3l0 60zm54 -25c0,15 11,26 26,26 11,0 18,-7 18,-7l-3 -5c0,0 -6,6 -15,6 -10,0 -19,-7 -19,-19l37 0c0,0 1,-3 1,-4 0,-12 -7,-22 -21,-22 -13,0 -24,9 -24,25zm7 -5c2,-9 9,-15 17,-15 7,0 13,5 14,15l-31 0z"/>
     <path class="fil2" d="M348 1377l29 0 0 -64 51 0 0 -24 -51 0 0 -45 31 0c3,0 5,2 5,5l0 10 26 0 0 -24c0,-11 -5,-15 -15,-15l-90 0 0 24 14 0 0 133zm122 -56c0,35 24,59 62,59 37,0 62,-24 62,-59l0 -72c0,-3 1,-5 4,-5l10 0 0 -24 -28 0c-11,0 -15,4 -15,15l0 85c0,21 -14,33 -33,33 -20,0 -33,-12 -33,-33l0 -85c0,-11 -5,-15 -15,-15l-29 0 0 24 10 0c3,0 5,2 5,5l0 72zm208 56l29 0 0 -133 24 0c4,0 5,2 5,5l0 10 26 0 0 -25c0,-11 -4,-14 -14,-14l-110 0c-11,0 -14,3 -14,14l0 25 25 0 0 -10c0,-3 2,-5 5,-5l24 0 0 133zm114 -56c0,35 25,59 62,59 37,0 62,-24 62,-59l0 -72c0,-3 2,-5 5,-5l9 0 0 -24 -28 0c-11,0 -15,4 -15,15l0 85c0,21 -13,33 -33,33 -20,0 -33,-12 -33,-33l0 -85c0,-11 -4,-15 -15,-15l-28 0 0 24 9 0c3,0 5,2 5,5l0 72zm173 56l29 0 0 -59 14 0c8,0 12,1 15,8l20 39c5,10 10,12 22,12l16 0 0 -25 -3 0c-5,0 -9,0 -11,-5l-16 -30c-3,-6 -7,-8 -7,-8l0 0c6,-2 26,-14 26,-42 0,-30 -21,-47 -49,-47l-71 0 0 24 15 0 0 133zm29 -84l0 -49 23 0c14,0 23,9 23,25 0,15 -9,24 -23,24l-23 0zm117 69c0,11 5,15 15,15l72 0c10,0 15,-4 15,-15l0 -24 -26 0 0 10c0,3 -2,4 -5,4l-37 0c-3,0 -5,-1 -5,-4l0 -38 51 0 0 -25 -51 0 0 -41 36 0c3,0 5,2 5,5l0 10 26 0 0 -24c0,-11 -4,-15 -15,-15l-95 0 0 24 14 0 0 118z"/>
     <path class="fil2" d="M341 1425l7 0 0 -9 -7 0 0 9zm0 57c0,5 2,6 6,6l8 0 0 -6 -5 0c-1,0 -2,0 -2,-2l0 -37c0,-4 -2,-6 -6,-6l-8 0 0 6 5 0c1,0 2,1 2,2l0 37zm19 -1c0,0 7,9 20,9 10,0 18,-6 18,-15 0,-17 -29,-14 -29,-26 0,-5 5,-7 12,-7 3,0 9,1 9,5l0 2 6 0 0 -4c0,-7 -10,-9 -15,-9 -11,0 -19,4 -19,14 0,16 29,14 29,25 0,6 -5,9 -11,9 -10,0 -16,-8 -16,-8l-4 5zm80 -11c0,17 12,19 18,19 2,0 3,0 3,0l0 -7c0,0 -1,1 -2,1 -4,0 -12,-2 -12,-14l0 -26 13 0 0 -6 -13 0 0 -14 -7 0 0 14 -7 0 0 6 7 0 0 27zm33 18l7 0 0 -24c0,-3 0,-5 1,-7 2,-9 9,-15 18,-15 10,0 11,7 11,15l0 25c0,5 2,6 7,6l7 0 0 -6 -4 0c-2,0 -3,0 -3,-2l0 -24c0,-13 -4,-20 -17,-20 -11,0 -18,8 -20,12l-1 0c0,0 1,-1 1,-4l0 -22c0,-4 -2,-6 -7,-6l-7 0 0 6 4 0c2,0 3,1 3,3l0 63zm57 -14c0,11 9,16 18,16 13,0 17,-11 17,-11l0 0c0,0 0,1 0,3 0,5 2,6 6,6l7 0 0 -6 -4 0c-1,0 -2,0 -2,-2l0 -25c0,-11 -4,-19 -20,-19 -5,0 -17,1 -17,8l0 5 6 0 0 -3c0,-4 8,-5 10,-5 10,0 14,4 14,15l0 1 -3 0c-9,0 -32,0 -32,17zm7 0c0,-12 17,-12 25,-12l3 0 0 3c0,8 -6,19 -16,19 -8,0 -12,-5 -12,-10zm53 -4c0,17 12,19 18,19 2,0 3,0 3,0l0 -7c0,0 -1,1 -2,1 -4,0 -12,-2 -12,-14l0 -26 13 0 0 -6 -13 0 0 -14 -7 0 0 14 -7 0 0 6 7 0 0 27zm58 18l20 0 0 -6 -7 0 0 -59 7 0 0 -7 -20 0 0 7 6 0 0 59 -6 0 0 6zm62 0l7 0 0 -24c0,-2 0,-5 1,-7 2,-8 8,-15 16,-15 10,0 11,8 11,15l0 31 7 0 0 -24c0,-3 0,-5 1,-7 2,-8 9,-15 16,-15 10,0 12,7 12,15l0 25c0,5 2,6 6,6l7 0 0 -6 -4 0c-2,0 -2,0 -2,-2l0 -24c0,-13 -5,-20 -18,-20 -8,0 -16,6 -18,13l-1 0c-1,-9 -6,-13 -16,-13 -8,0 -16,6 -18,13l-1 0c0,0 1,-2 1,-4l0 -2c0,-4 -2,-6 -7,-6l-7 0 0 6 4 0c2,0 3,1 3,2l0 43zm89 12l-3 5c0,0 4,5 11,5 7,0 12,-4 15,-11l22 -54c1,-2 2,-2 4,-2l1 0 0 -6 -3 0c-5,0 -7,1 -8,5l-13 33c-1,2 -2,5 -2,5l0 0c0,0 -1,-3 -2,-5l-13 -33c-2,-4 -3,-5 -8,-5l-3 0 0 6 1 0c2,0 3,0 3,2l19 43 -4 7c-1,5 -5,9 -9,9 -4,0 -8,-4 -8,-4zm54 -19c0,0 7,9 20,9 11,0 18,-6 18,-15 0,-17 -29,-14 -29,-26 0,-5 5,-7 12,-7 3,0 9,1 9,5l0 2 6 0 0 -4c0,-7 -10,-9 -15,-9 -11,0 -19,4 -19,14 0,16 29,14 29,25 0,6 -5,9 -11,9 -10,0 -16,-8 -16,-8l-4 5zm47 -18c0,16 11,27 27,27 11,0 19,-8 19,-8l-3 -5c0,0 -7,6 -16,6 -11,0 -20,-7 -20,-20l40 0c0,0 0,-2 0,-4 0,-12 -8,-23 -22,-23 -14,0 -25,10 -25,27zm7 -6c2,-10 10,-16 18,-16 8,0 14,6 15,16l-33 0zm54 25c0,5 2,6 6,6l7 0 0 -6 -4 0c-2,0 -2,0 -2,-2l0 -57c0,-5 -2,-7 -7,-7l-7 0 0 6 4 0c2,0 3,1 3,3l0 57zm25 6l7 0 0 -45 13 0 0 -6 -13 0 0 -2c0,-11 8,-13 12,-13 1,0 2,0 2,0l0 -6c0,0 -1,0 -3,0 -6,0 -18,2 -18,19l0 2 -6 0 0 6 6 0 0 45zm53 -26c0,16 11,28 28,28 14,0 22,-10 22,-10l-5 -9c0,0 -7,7 -16,7 -8,0 -16,-5 -16,-16 0,-9 6,-16 15,-16 4,0 8,1 8,4l0 3 11 0 0 -6c0,-9 -12,-12 -19,-12 -18,0 -28,13 -28,27zm55 11c0,11 9,17 18,17 12,0 16,-10 16,-10l0 0c0,0 0,1 0,3 0,3 2,5 7,5l11 0 0 -10 -4 0c-1,0 -2,-1 -2,-3l0 -19c0,-12 -5,-21 -23,-21 -5,0 -19,1 -19,11l0 5 12 0 0 -3c0,-2 5,-3 7,-3 7,0 10,3 10,10l0 1 -2 0c-8,0 -31,1 -31,17zm13 0c0,-8 11,-8 18,-8l2 0 0 1c0,6 -5,14 -12,14 -5,0 -8,-4 -8,-7zm50 15l13 0 0 -24c0,-2 0,-4 1,-7 2,-6 7,-10 14,-10 6,0 8,4 8,10l0 25c0,4 2,6 7,6l12 0 0 -10 -4 0c-1,0 -2,-1 -2,-3l0 -20c0,-14 -7,-20 -18,-20 -11,0 -16,6 -19,11l0 0c0,0 0,-1 0,-2l0 -2c0,-4 -2,-6 -7,-6l-12 0 0 11 4 0c2,0 3,1 3,2l0 39z"/>
    </g>
    <path class="fil2" d="M260 1645c0,40 29,72 74,72 37,0 58,-25 58,-25l-15 -24c0,0 -17,19 -40,19 -22,0 -43,-14 -43,-42 0,-25 17,-43 41,-43 8,0 19,4 19,11l0 8 30 0 0 -17c0,-23 -32,-30 -49,-30 -47,0 -75,33 -75,71zm158 68l34 0 0 -54c0,-8 1,-15 2,-22 7,-20 23,-29 38,-29 5,0 8,1 8,1l0 -33c0,0 -3,-1 -6,-1 -21,0 -37,16 -44,35l0 0c0,0 0,-3 0,-8l0 -8c0,-12 -6,-17 -18,-17l-31 0 0 29 11 0c4,0 6,2 6,6l0 101zm91 -68c0,39 28,72 74,72 34,0 55,-21 55,-21l-15 -24c0,0 -16,16 -38,16 -21,0 -38,-13 -41,-37l94 0c0,0 1,-9 1,-13 0,-36 -21,-64 -60,-64 -41,0 -70,29 -70,71zm36 -17c4,-18 16,-28 34,-28 14,0 25,11 25,28l-59 0zm114 46c0,27 22,43 46,43 31,0 42,-24 42,-24l0 0c0,0 0,2 0,5 0,8 5,15 17,15l31 0 0 -28 -11 0c-4,0 -6,-2 -6,-6l0 -51c0,-30 -13,-54 -59,-54 -14,0 -50,2 -50,28l0 14 32 0 0 -7c0,-7 12,-9 18,-9 17,0 25,7 25,27l0 1 -4 0c-22,0 -81,3 -81,46zm34 -2c0,-19 28,-21 46,-21l6 0 0 3c0,17 -13,36 -31,36 -14,0 -21,-8 -21,-18zm130 -9c0,46 37,52 56,52 6,0 11,-1 11,-1l0 -30c0,0 -3,1 -6,1 -10,0 -27,-3 -27,-26l0 -55 31 0 0 -27 -31 0 0 -37 -34 0 0 37 -18 0 0 27 18 0 0 59zm82 -18c0,39 28,72 74,72 34,0 54,-21 54,-21l-14 -24c0,0 -16,16 -38,16 -21,0 -38,-13 -41,-37l94 0c0,0 1,-9 1,-13 0,-36 -21,-64 -60,-64 -41,0 -70,29 -70,71zm36 -17c4,-18 16,-28 34,-28 14,0 25,11 25,28l-59 0zm201 -73l29 0 0 -32 -29 0 0 32zm-2 140c0,13 5,18 18,18l32 0 0 -28 -10 0c-4,0 -6,-2 -6,-6l0 -84c0,-12 -6,-18 -18,-18l-33 0 0 29 11 0c4,0 6,2 6,6l0 83zm80 -32c0,46 37,52 56,52 6,0 11,-1 11,-1l0 -30c0,0 -3,1 -6,1 -10,0 -27,-3 -27,-26l0 -55 31 0 0 -27 -31 0 0 -37 -34 0 0 37 -18 0 0 27 18 0 0 59z"/>
   </g>
  </g>
 </g>
</svg>
