<?xml version="1.0" encoding="UTF-8"?>
<!DOCTYPE svg PUBLIC "-//W3C//DTD SVG 1.1//EN" "http://www.w3.org/Graphics/SVG/1.1/DTD/svg11.dtd">
<!-- Creator: CorelDRAW X8 -->
<svg xmlns="http://www.w3.org/2000/svg" xml:space="preserve" width="111.246mm" height="197.584mm" version="1.1" style="shape-rendering:geometricPrecision; text-rendering:geometricPrecision; image-rendering:optimizeQuality; fill-rule:evenodd; clip-rule:evenodd"
viewBox="0 0 1002 1780"
 xmlns:xlink="http://www.w3.org/1999/xlink">
 <defs>
  <style type="text/css">
   <![CDATA[
    .str0 {stroke:#E6E6E6;stroke-width:0.686337}
    .fil0 {fill:#333333}
    .fil3 {fill:#00AFEF;fill-rule:nonzero}
    .fil2 {fill:#00AFEF;fill-rule:nonzero}
    .fil1 {fill:white;fill-rule:nonzero}
   ]]>
  </style>
 </defs>
 <g id="Capa_x0020_1">
  <metadata id="CorelCorpID_0Corel-Layer"/>
  <polygon class="fil0 str0" points="0,0 1002,0 1002,1779 0,1779 "/>
  <g id="_1745719866192">
   <path class="fil1" d="M249 1478c0,6 3,9 9,9l41 0c6,0 9,-3 9,-9l0 -14 -15 0 0 6c0,1 -1,2 -3,2l-21 0c-2,0 -3,-1 -3,-2l0 -22 30 0 0 -15 -30 0 0 -24 21 0c1,0 2,2 2,3l0 6 16 0 0 -14c0,-6 -3,-9 -9,-9l-55 0 0 14 8 0 0 69zm73 -15c0,22 18,24 27,24 3,0 5,0 5,0l0 -14c0,0 -1,0 -3,0 -4,0 -13,-2 -13,-12l0 -27 15 0 0 -13 -15 0 0 -18 -16 0 0 18 -9 0 0 13 9 0 0 29zm40 -9c0,19 13,34 35,34 16,0 26,-10 26,-10l-6 -11c0,0 -8,7 -19,7 -10,0 -18,-6 -20,-17l46 0c0,0 0,-4 0,-6 0,-18 -10,-32 -29,-32 -20,0 -33,15 -33,35zm17 -9c2,-8 8,-13 16,-13 7,0 12,5 12,13l-28 0zm61 33c0,6 2,9 8,9l16 0 0 -14 -5 0c-2,0 -3,-1 -3,-3l0 -66c0,-6 -3,-9 -9,-9l-15 0 0 14 5 0c2,0 3,1 3,3l0 66z"/>
   <path class="fil1" d="M514 1487l17 0 0 -37 29 0 0 -15 -29 0 0 -26 17 0c2,0 3,2 3,3l0 6 16 0 0 -14c0,-6 -3,-9 -9,-9l-52 0 0 14 8 0 0 78z"/>
   <path class="fil1" d="M580 1487l16 0 0 -26c0,-4 0,-8 1,-11 3,-10 11,-14 18,-14 3,0 4,0 4,0l0 -16c0,0 -1,0 -3,0 -10,0 -18,8 -21,17l0 0c0,0 0,-2 0,-4l0 -4c0,-6 -3,-8 -8,-8l-15 0 0 14 5 0c2,0 3,1 3,3l0 49z"/>
   <path class="fil1" d="M624 1454c0,19 13,34 35,34 17,0 27,-10 27,-10l-7 -11c0,0 -8,7 -19,7 -10,0 -18,-6 -19,-17l45 0c0,0 0,-4 0,-6 0,-18 -10,-32 -29,-32 -19,0 -33,15 -33,35zm17 -9c2,-8 8,-13 16,-13 7,0 12,5 13,13l-29 0z"/>
   <path class="fil1" d="M698 1514l-6 11c0,0 6,7 16,7 10,0 20,-5 24,-17l24 -79c0,-2 1,-3 3,-3l2 0 0 -14 -11 0c-4,0 -7,2 -9,7l-11 32c-1,4 -2,9 -2,9l0 0c0,0 -1,-5 -3,-9l-12 -32c-2,-5 -4,-7 -9,-7l-11 0 0 14 2 0c2,0 3,1 4,3l21 54c-1,10 -2,27 -13,28 -5,1 -9,-4 -9,-4z"/>
   <g>
    <path class="fil2" d="M268 1533l4 0 -10 -27 -4 0 -10 27 4 0 3 -8 10 0 3 8zm-8 -23c0,0 1,2 1,4l3 8 -8 0 3 -8c1,-2 1,-4 1,-4l0 0z"/>
    <path class="fil2" d="M304 1533l4 0 0 -11 6 0 5 11 5 0 -6 -10c-1,-1 -1,-2 -1,-2l0 0c3,-1 5,-4 5,-7 0,-4 -2,-6 -5,-7 -1,-1 -2,-1 -5,-1l-8 0 0 27zm4 -14l0 -10 4 0c2,0 3,0 4,1 1,1 2,2 2,4 0,3 -2,5 -5,5l-5 0z"/>
    <path class="fil2" d="M356 1519c0,8 5,15 14,15 6,0 10,-5 10,-5l-2 -2c0,0 -3,3 -8,3 -6,0 -10,-5 -10,-11 0,-5 4,-10 10,-10 4,0 8,3 8,3l1 -3c0,0 -3,-4 -9,-4 -8,0 -14,6 -14,14z"/>
    <polygon class="fil2" points="412,1533 416,1533 416,1521 430,1521 430,1533 434,1533 434,1506 430,1506 430,1518 416,1518 416,1506 412,1506 "/>
    <polygon class="fil2" points="466,1533 470,1533 470,1506 466,1506 "/>
    <polygon class="fil2" points="518,1533 522,1533 522,1509 532,1509 532,1506 509,1506 509,1509 518,1509 "/>
    <polygon class="fil2" points="561,1533 578,1533 578,1530 565,1530 565,1521 575,1521 575,1518 565,1518 565,1509 577,1509 577,1506 561,1506 "/>
    <path class="fil2" d="M607 1519c0,8 6,15 14,15 7,0 11,-5 11,-5l-2 -2c0,0 -4,3 -9,3 -6,0 -10,-5 -10,-11 0,-5 4,-10 10,-10 5,0 8,3 8,3l2 -3c0,0 -3,-4 -10,-4 -8,0 -14,6 -14,14z"/>
    <polygon class="fil2" points="671,1533 675,1533 675,1509 684,1509 684,1506 661,1506 661,1509 671,1509 "/>
   </g>
  </g>
  <g id="_1745719869424">
   <path class="fil3" d="M508 1114l-3 -4c9,-3 16,-7 21,-11 5,-4 9,-9 13,-15 5,-10 8,-19 9,-28 -3,1 -6,2 -9,2 -7,0 -13,-3 -18,-7 -4,-4 -7,-10 -7,-17 0,-7 3,-12 7,-17 5,-5 11,-7 17,-7 8,0 14,3 19,9 5,7 8,15 8,26 0,10 -3,20 -8,31 -5,10 -11,18 -19,25 -9,7 -19,11 -30,13zm-69 0l-2 -4c9,-3 16,-7 21,-11 5,-4 9,-9 13,-15 5,-10 9,-19 10,-28 -4,1 -7,2 -10,2 -7,0 -13,-3 -18,-7 -4,-4 -7,-10 -7,-17 0,-7 3,-12 7,-17 5,-5 10,-7 17,-7 8,0 14,3 19,9 5,7 8,15 8,26 0,10 -3,20 -8,31 -5,10 -12,18 -20,25 -9,7 -19,11 -30,13z"/>
   <path class="fil3" d="M494 443l3 -4c-9,-3 -16,-7 -21,-11 -5,-4 -9,-9 -13,-16 -5,-9 -8,-18 -9,-27 3,1 6,1 9,1 7,0 13,-2 18,-6 4,-5 7,-10 7,-17 0,-7 -3,-12 -7,-17 -5,-5 -11,-7 -17,-7 -8,0 -14,3 -19,9 -5,7 -8,15 -8,25 0,11 3,21 8,31 5,11 11,19 19,26 9,6 19,11 30,13zm69 0l2 -4c-9,-3 -16,-7 -21,-11 -5,-4 -9,-9 -13,-16 -5,-9 -9,-18 -10,-27 4,1 7,1 10,1 7,0 13,-2 18,-6 4,-5 7,-10 7,-17 0,-7 -3,-12 -7,-17 -5,-5 -10,-7 -17,-7 -8,0 -14,3 -19,9 -5,7 -8,15 -8,25 0,11 3,21 8,31 5,11 12,19 20,26 9,6 19,11 30,13z"/>
   <g>
    <g>
     <path class="fil1" d="M228 575l5 0 8 -30c1,-2 2,-6 2,-6l0 0c0,0 1,4 2,6l7 30 6 0 9 -37c1,-2 1,-2 3,-2l0 0 0 -4 -2 0c-3,0 -4,1 -5,4l-7 30c-1,2 -1,4 -1,4l0 0c0,0 -1,-2 -1,-4l-9 -33 -4 0 -9 33c-1,2 -2,4 -2,4l0 0c0,0 0,-2 -1,-4l-7 -30c-1,-3 -2,-4 -5,-4l-2 0 0 4 1 0c1,0 2,0 2,2l10 37zm48 0l5 0 0 -14c0,-2 0,-3 0,-5 1,-5 6,-8 11,-8 6,0 7,4 7,9l0 15c0,2 1,3 4,3l4 0 0 -3 -3 0c-1,0 -1,-1 -1,-2l0 -14c0,-8 -3,-12 -10,-12 -7,0 -11,5 -12,8l-1 0c0,0 1,-2 1,-3l0 -13c0,-2 -2,-4 -4,-4l-4 0 0 4 2 0c1,0 1,1 1,1l0 38zm35 -8c0,6 5,9 10,9 8,0 10,-7 10,-7l0 0c0,0 0,1 0,3 0,2 1,3 4,3l4 0 0 -3 -2 0c-1,0 -2,-1 -2,-2l0 -14c0,-7 -2,-12 -12,-12 -2,0 -10,1 -10,5l0 3 4 0 0 -2c0,-2 5,-3 6,-3 6,0 8,3 8,9l0 0 -2 0c-5,0 -18,1 -18,11zm4 0c0,-7 9,-7 14,-7l2 0 0 1c0,5 -3,11 -9,11 -5,0 -7,-2 -7,-5zm31 -3c0,10 7,11 11,11 1,0 1,0 1,0l0 -3c0,0 0,0 -1,0 -2,0 -7,-1 -7,-8l0 -16 8 0 0 -3 -8 0 0 -9 -4 0 0 9 -4 0 0 3 4 0 0 16zm34 11l12 0 0 -4 -4 0 0 -35 4 0 0 -4 -12 0 0 4 4 0 0 35 -4 0 0 4zm37 -3c0,2 1,3 4,3l4 0 0 -3 -3 0c0,0 -1,-1 -1,-2l0 -34c0,-2 -1,-4 -4,-4l-4 0 0 4 3 0c0,0 1,1 1,1l0 35zm15 -34l4 0 0 -6 -4 0 0 6zm0 34c0,2 1,3 4,3l4 0 0 -3 -2 0c-1,0 -2,-1 -2,-2l0 -22c0,-2 -1,-3 -3,-3l-5 0 0 3 3 0c1,0 1,1 1,2l0 22zm15 3l4 0 0 -15 3 0c1,0 2,0 3,1l6 11c2,3 2,3 6,3l2 0 0 -3 -1 0c-2,0 -3,-1 -3,-2l-6 -10c-1,-1 -2,-2 -2,-2l0 0c0,0 1,0 3,-2l9 -11 -5 0 -8 10c-1,1 -3,1 -4,1l-3 0 0 -20c0,-3 -1,-4 -4,-4l-4 0 0 4 3 0c0,0 1,1 1,1l0 38zm27 -15c0,9 7,16 16,16 7,0 11,-4 11,-4l-2 -4c0,0 -3,4 -9,4 -6,0 -12,-4 -12,-12l24 0c0,0 0,-1 0,-2 0,-8 -4,-14 -13,-14 -8,0 -15,6 -15,16zm4 -3c2,-6 6,-10 11,-10 5,0 8,3 9,10l-20 0zm46 10c0,6 5,9 10,9 8,0 11,-7 10,-7l1 0c0,0 0,1 0,3 0,2 1,3 3,3l4 0 0 -3 -2 0c-1,0 -2,-1 -2,-2l0 -14c0,-7 -2,-12 -12,-12 -2,0 -10,1 -10,5l0 3 4 0 0 -2c0,-2 5,-3 6,-3 6,0 8,3 8,9l0 0 -1 0c-6,0 -19,1 -19,11zm4 0c0,-7 10,-7 15,-7l1 0 0 1c0,5 -3,11 -9,11 -5,0 -7,-2 -7,-5zm31 8l4 0 0 -2c0,-2 0,-3 0,-3l0 0c0,0 3,6 10,6 8,0 14,-6 14,-16 0,-10 -5,-16 -14,-16 -8,0 -10,6 -10,6l0 0c0,0 0,-1 0,-3l0 -11c0,-2 -1,-4 -4,-4l-4 0 0 4 2 0c1,0 2,1 2,1l0 38zm4 -15c0,-9 5,-12 10,-12 5,0 9,4 9,12 0,8 -4,12 -9,12 -7,0 -10,-6 -10,-12zm29 0c0,9 7,16 16,16 9,0 16,-7 16,-16 0,-9 -7,-16 -16,-16 -9,0 -16,7 -16,16zm4 0c0,-7 5,-12 12,-12 6,0 12,5 12,12 0,7 -6,12 -12,12 -7,0 -12,-5 -12,-12zm36 4c0,8 3,12 10,12 7,0 11,-5 12,-8l0 0c0,0 0,1 0,2l0 2c0,2 1,3 3,3l5 0 0 -3 -3 0c-1,0 -1,-1 -1,-2l0 -25 -4 0 0 14c0,7 -5,13 -12,13 -6,0 -6,-4 -6,-9l0 -15c0,-2 -1,-3 -4,-3l-4 0 0 3 2 0c1,0 2,1 2,2l0 14zm37 0c0,10 7,11 10,11 1,0 2,0 2,0l0 -3c0,0 0,0 -1,0 -3,0 -7,-1 -7,-8l0 -16 8 0 0 -3 -8 0 0 -9 -4 0 0 9 -4 0 0 3 4 0 0 16zm37 0c0,10 7,11 10,11 1,0 2,0 2,0l0 -3c0,0 0,0 -1,0 -3,0 -7,-1 -7,-8l0 -16 7 0 0 -3 -7 0 0 -9 -4 0 0 9 -4 0 0 3 4 0 0 16zm19 11l4 0 0 -14c0,-2 0,-3 1,-5 1,-5 6,-8 11,-8 6,0 6,4 6,9l0 15c0,2 2,3 4,3l4 0 0 -3 -2 0c-1,0 -1,-1 -1,-2l0 -14c0,-8 -3,-12 -11,-12 -7,0 -11,5 -12,8l0 0c0,0 0,-2 0,-3l0 -13c0,-2 -1,-4 -4,-4l-4 0 0 4 3 0c1,0 1,1 1,1l0 38zm34 -15c0,9 7,16 16,16 7,0 12,-4 12,-4l-2 -4c0,0 -4,4 -10,4 -6,0 -11,-4 -11,-12l23 0c0,0 0,-1 0,-2 0,-8 -4,-14 -13,-14 -8,0 -15,6 -15,16zm5 -3c1,-6 5,-10 10,-10 5,0 9,3 9,10l-19 0z"/>
     <path class="fil1" d="M233 706l18 0 0 -40 32 0 0 -15 -32 0 0 -29 19 0c2,0 3,2 3,3l0 6 17 0 0 -15c0,-6 -3,-9 -10,-9l-57 0 0 15 10 0 0 84zm76 -35c0,22 16,37 40,37 23,0 38,-15 38,-37l0 -46c0,-1 2,-3 3,-3l7 0 0 -15 -18 0c-7,0 -10,3 -10,9l0 54c0,13 -8,21 -21,21 -12,0 -20,-8 -20,-21l0 -54c0,-6 -3,-9 -10,-9l-18 0 0 15 6 0c2,0 3,2 3,3l0 46zm132 35l18 0 0 -84 16 0c1,0 3,2 3,3l0 6 16 0 0 -15c0,-7 -3,-9 -9,-9l-70 0c-6,0 -8,2 -8,9l0 15 16 0 0 -6c0,-1 1,-3 3,-3l15 0 0 84zm72 -35c0,22 15,37 39,37 23,0 39,-15 39,-37l0 -46c0,-1 1,-3 3,-3l6 0 0 -15 -18 0c-7,0 -9,3 -9,9l0 54c0,13 -9,21 -21,21 -13,0 -21,-8 -21,-21l0 -54c0,-6 -3,-9 -9,-9l-18 0 0 15 6 0c2,0 3,2 3,3l0 46zm109 35l18 0 0 -37 9 0c5,0 8,1 10,5l12 25c4,6 7,7 14,7l10 0 0 -15 -2 0c-3,0 -5,-1 -7,-4l-10 -19c-1,-3 -4,-5 -4,-5l0 0c4,-1 16,-8 16,-26 0,-19 -13,-30 -31,-30l-44 0 0 15 9 0 0 84zm18 -53l0 -31 15 0c9,0 14,6 14,16 0,10 -5,15 -14,15l-15 0zm74 44c0,6 3,9 10,9l45 0c7,0 10,-3 10,-9l0 -15 -17 0 0 6c0,2 -1,3 -3,3l-23 0c-2,0 -3,-1 -3,-3l0 -24 32 0 0 -16 -32 0 0 -26 22 0c2,0 3,2 3,3l0 6 17 0 0 -15c0,-6 -3,-9 -10,-9l-60 0 0 15 9 0 0 75z"/>
     <path class="fil1" d="M228 737l4 0 0 -6 -4 0 0 6zm0 36c0,2 1,4 4,4l5 0 0 -4 -3 0c-1,0 -2,-1 -2,-2l0 -23c0,-3 -1,-4 -4,-4l-4 0 0 4 3 0c0,0 1,0 1,1l0 24zm12 -1c0,0 4,5 13,5 6,0 11,-3 11,-9 0,-11 -18,-9 -18,-16 0,-3 3,-5 7,-5 2,0 6,1 6,3l0 2 4 0 0 -3c0,-4 -7,-6 -10,-6 -7,0 -12,3 -12,9 0,11 19,9 19,16 0,4 -4,6 -7,6 -7,0 -10,-5 -10,-5l-3 3zm50 -7c0,11 8,12 12,12 1,0 2,0 2,0l0 -4c0,0 -1,0 -2,0 -2,0 -7,-1 -7,-9l0 -16 8 0 0 -4 -8 0 0 -9 -4 0 0 9 -5 0 0 4 4 0 0 17zm21 12l5 0 0 -16c0,-2 0,-3 0,-4 2,-6 6,-10 12,-10 6,0 7,5 7,10l0 16c0,2 1,4 4,4l5 0 0 -4 -3 0c-1,0 -2,-1 -2,-2l0 -15c0,-8 -2,-13 -11,-13 -7,0 -11,5 -12,8l-1 0c0,0 1,-1 1,-2l0 -14c0,-3 -2,-4 -4,-4l-5 0 0 4 3 0c1,0 1,0 1,1l0 41zm36 -9c0,6 6,9 12,9 8,0 10,-7 10,-7l1 0c0,0 -1,1 -1,3 0,2 2,4 4,4l5 0 0 -4 -3 0c-1,0 -1,-1 -1,-2l0 -15c0,-7 -3,-13 -13,-13 -3,0 -11,1 -11,6l0 3 4 0 0 -2c0,-3 5,-3 7,-3 6,0 8,2 8,9l0 1 -2 0c-5,0 -20,0 -20,11zm5 -1c0,-7 10,-7 15,-7l2 0 0 2c0,5 -3,12 -10,12 -5,0 -7,-3 -7,-7zm33 -2c0,11 8,12 12,12 1,0 1,0 1,0l0 -4c0,0 0,0 -1,0 -3,0 -7,-1 -7,-9l0 -16 8 0 0 -4 -8 0 0 -9 -5 0 0 9 -4 0 0 4 4 0 0 17zm37 12l13 0 0 -4 -5 0 0 -38 5 0 0 -4 -13 0 0 4 4 0 0 38 -4 0 0 4zm39 0l4 0 0 -16c0,-1 0,-3 1,-4 1,-5 5,-10 10,-10 6,0 7,5 7,10l0 20 5 0 0 -16c0,-2 0,-3 0,-5 1,-4 6,-9 11,-9 5,0 7,5 7,10l0 16c0,2 1,4 4,4l4 0 0 -4 -3 0c-1,0 -1,-1 -1,-2l0 -15c0,-8 -3,-13 -11,-13 -5,0 -10,4 -12,8l0 0c-1,-5 -4,-8 -10,-8 -5,0 -10,4 -12,8l0 0c0,0 0,-1 0,-2l0 -1c0,-3 -1,-4 -4,-4l-4 0 0 4 2 0c1,0 2,0 2,1l0 28zm56 7l-2 3c0,0 3,3 7,3 5,0 8,-2 10,-7l14 -34c0,-1 1,-1 2,-1l1 0 0 -4 -2 0c-3,0 -4,1 -5,4l-9 20c0,2 -1,3 -1,3l0 0c0,0 0,-1 -1,-3l-8 -20c-1,-3 -2,-4 -5,-4l-2 0 0 4 0 0c2,0 2,0 3,1l11 27 -2 5c-1,3 -3,5 -6,5 -3,0 -5,-2 -5,-2zm35 -12c0,0 4,5 12,5 7,0 11,-3 11,-9 0,-11 -18,-9 -18,-16 0,-3 3,-5 7,-5 3,0 6,1 6,3l0 2 4 0 0 -3c0,-4 -6,-6 -10,-6 -6,0 -11,3 -11,9 0,11 18,9 18,16 0,4 -3,6 -7,6 -6,0 -10,-5 -10,-5l-2 3zm29 -12c0,10 7,17 17,17 7,0 12,-4 12,-4l-2 -4c0,0 -4,4 -10,4 -7,0 -13,-4 -13,-13l25 0c0,0 0,-1 0,-2 0,-8 -4,-15 -13,-15 -9,0 -16,7 -16,17zm5 -3c1,-7 5,-10 11,-10 5,0 9,3 9,10l-20 0zm33 16c0,2 1,4 4,4l5 0 0 -4 -3 0c-1,0 -1,-1 -1,-2l0 -36c0,-3 -2,-4 -4,-4l-5 0 0 4 3 0c1,0 1,0 1,1l0 37zm16 4l5 0 0 -29 8 0 0 -4 -8 0 0 -1c0,-7 4,-8 7,-8 1,0 1,0 1,0l0 -4c0,0 0,0 -2,0 -3,0 -11,1 -11,12l0 1 -4 0 0 4 4 0 0 29zm34 -17c0,10 7,17 17,17 9,0 14,-6 14,-6l-3 -5c0,0 -4,4 -10,4 -5,0 -10,-3 -10,-10 0,-6 4,-10 10,-10 2,0 4,0 4,2l0 2 8 0 0 -4c0,-5 -8,-7 -12,-7 -12,0 -18,8 -18,17zm35 7c0,7 5,10 11,10 7,0 10,-5 10,-5l0 0c0,0 0,0 0,1 0,2 1,4 4,4l7 0 0 -7 -2 0c-1,0 -2,-1 -2,-2l0 -12c0,-7 -3,-13 -14,-13 -3,0 -12,0 -12,7l0 3 8 0 0 -2c0,-1 3,-2 4,-2 4,0 6,2 6,7l0 0 -1 0c-5,0 -19,1 -19,11zm8 0c0,-5 7,-5 11,-5l1 0 0 0c0,4 -3,9 -7,9 -4,0 -5,-2 -5,-4zm31 10l8 0 0 -16c0,-1 0,-3 1,-4 1,-4 4,-7 9,-7 4,0 5,3 5,7l0 15c0,3 1,5 4,5l8 0 0 -7 -2 0c-1,0 -2,-1 -2,-2l0 -13c0,-8 -4,-12 -11,-12 -7,0 -11,4 -12,7l0 0c0,0 0,-1 0,-2l0 -1c0,-2 -1,-3 -4,-3l-8 0 0 7 3 0c1,0 1,0 1,1l0 25z"/>
    </g>
    <path class="fil1" d="M177 876c0,25 18,45 47,45 23,0 36,-16 36,-16l-9 -15c0,0 -11,12 -26,12 -13,0 -26,-9 -26,-27 0,-15 10,-26 25,-26 5,0 12,2 12,6l0 5 19 0 0 -10c0,-15 -20,-20 -31,-20 -30,0 -47,21 -47,46zm99 43l22 0 0 -34c0,-6 0,-10 2,-15 3,-12 14,-18 23,-18 3,0 5,1 5,1l0 -21c0,0 -2,-1 -4,-1 -13,0 -23,10 -27,22l0 0c0,0 0,-2 0,-5l0 -5c0,-7 -4,-11 -11,-11l-20 0 0 19 7 0c2,0 3,1 3,3l0 65zm58 -43c0,24 18,45 47,45 21,0 34,-13 34,-13l-9 -15c0,0 -10,9 -24,9 -13,0 -24,-8 -26,-23l60 0c0,0 0,-5 0,-8 0,-22 -13,-41 -38,-41 -26,0 -44,19 -44,46zm23 -12c2,-10 10,-17 21,-17 9,0 16,7 16,17l-37 0zm72 30c0,17 14,27 29,27 19,0 26,-16 26,-16l0 0c0,0 0,2 0,4 0,5 3,10 11,10l19 0 0 -18 -6 0c-3,0 -4,-2 -4,-4l0 -32c0,-20 -8,-35 -37,-35 -9,0 -32,2 -32,18l0 9 20 0 0 -4c0,-5 8,-6 12,-6 11,0 15,5 15,17l0 1 -2 0c-14,0 -51,2 -51,29zm21 -1c0,-12 18,-14 29,-14l4 0 0 2c0,11 -8,23 -20,23 -9,0 -13,-5 -13,-11zm82 -6c0,29 24,32 36,32 4,0 6,0 6,0l0 -19c0,0 -1,1 -3,1 -6,0 -18,-2 -18,-17l0 -34 20 0 0 -18 -20 0 0 -23 -20 0 0 23 -12 0 0 18 11 0 0 37zm52 -11c0,24 18,45 47,45 21,0 34,-13 34,-13l-9 -15c0,0 -10,9 -24,9 -13,0 -24,-8 -26,-23l60 0c0,0 0,-5 0,-8 0,-22 -13,-41 -38,-41 -26,0 -44,19 -44,46zm23 -12c2,-10 10,-17 21,-17 9,0 16,7 16,17l-37 0zm126 -46l19 0 0 -19 -19 0 0 19zm-1 89c0,8 4,12 12,12l20 0 0 -18 -7 0c-2,0 -3,-2 -3,-4l0 -53c0,-8 -4,-12 -12,-12l-20 0 0 19 7 0c2,0 3,1 3,3l0 53zm51 -20c0,29 24,32 36,32 3,0 6,0 6,0l0 -19c0,0 -1,1 -4,1 -6,0 -17,-2 -17,-17l0 -34 20 0 0 -18 -20 0 0 -23 -21 0 0 23 -11 0 0 18 11 0 0 37z"/>
   </g>
  </g>
 </g>
</svg>
