<?xml version="1.0" encoding="UTF-8"?>
<!DOCTYPE svg PUBLIC "-//W3C//DTD SVG 1.1//EN" "http://www.w3.org/Graphics/SVG/1.1/DTD/svg11.dtd">
<!-- Creator: CorelDRAW X8 -->
<svg xmlns="http://www.w3.org/2000/svg" xml:space="preserve" width="3.3464mm" height="2.5757mm" version="1.1" style="shape-rendering:geometricPrecision; text-rendering:geometricPrecision; image-rendering:optimizeQuality; fill-rule:evenodd; clip-rule:evenodd"
viewBox="0 0 19 14"
 xmlns:xlink="http://www.w3.org/1999/xlink">
 <defs>
  <style type="text/css">
   <![CDATA[
    .fil0 {fill:#1A325D;fill-rule:nonzero}
   ]]>
  </style>
 </defs>
 <g id="Capa_x0020_1">
  <metadata id="CorelCorpID_0Corel-Layer"/>
  <g id="_1920310337040">
   <path class="fil0" d="M1 0l7 8c0,0 1,0 1,0 1,0 1,0 2,0l6 -8c0,0 0,0 0,0 0,0 0,0 -1,0l-14 0c0,0 0,0 -1,0 0,0 0,0 0,0z"/>
   <path class="fil0" d="M18 1c0,0 0,0 0,0l-6 7c-1,1 -2,2 -3,2 -1,0 -2,-1 -2,-2l-7 -7c0,0 0,0 0,0 0,0 0,1 0,1l0 10c0,1 1,2 2,2l14 0c2,0 3,-1 3,-2l0 -10c0,0 -1,-1 -1,-1z"/>
  </g>
 </g>
</svg>
