<?xml version="1.0" encoding="UTF-8"?>
<!DOCTYPE svg PUBLIC "-//W3C//DTD SVG 1.1//EN" "http://www.w3.org/Graphics/SVG/1.1/DTD/svg11.dtd">
<!-- Creator: CorelDRAW X8 -->
<svg xmlns="http://www.w3.org/2000/svg" xml:space="preserve" width="3.389mm" height="3.3973mm" version="1.1" style="shape-rendering:geometricPrecision; text-rendering:geometricPrecision; image-rendering:optimizeQuality; fill-rule:evenodd; clip-rule:evenodd"
viewBox="0 0 19 19"
 xmlns:xlink="http://www.w3.org/1999/xlink">
 <defs>
  <style type="text/css">
   <![CDATA[
    .fil1 {fill:#1A325D}
    .fil0 {fill:#1A325D;fill-rule:nonzero}
   ]]>
  </style>
 </defs>
 <g id="Capa_x0020_1">
  <metadata id="CorelCorpID_0Corel-Layer"/>
  <g id="_1920310340816">
   <path class="fil0" d="M5 16l1 0c1,1 2,1 4,1 4,0 7,-3 7,-8 0,-4 -3,-7 -7,-7 -5,0 -8,3 -8,7 0,2 0,3 1,4l0 1 0 3 2 -1zm-5 3l1 -5c0,-1 -1,-3 -1,-5 0,-5 4,-9 10,-9 5,0 9,4 9,9 0,6 -4,10 -9,10 -2,0 -3,-1 -5,-1l-5 1z"/>
   <path class="fil1" d="M13 11c0,0 -1,-1 -1,-1 -1,1 -1,1 -1,1 0,1 0,1 0,0 -2,0 -3,-1 -4,-2 0,0 0,0 1,-1 0,0 0,0 0,-1 0,0 0,0 0,-1 0,0 -1,-1 -1,-1 0,0 -1,0 -1,0 -1,1 -1,2 -1,2 0,0 0,1 0,1 0,0 0,1 1,1 0,1 0,1 0,1 1,1 2,2 3,3 0,0 1,0 2,0 0,0 1,1 1,1 1,-1 2,-1 2,-2 0,0 0,0 0,0 0,-1 -1,-1 -1,-1z"/>
  </g>
 </g>
</svg>
