<?xml version="1.0" encoding="UTF-8"?>
<!DOCTYPE svg PUBLIC "-//W3C//DTD SVG 1.1//EN" "http://www.w3.org/Graphics/SVG/1.1/DTD/svg11.dtd">
<!-- Creator: CorelDRAW X8 -->
<svg xmlns="http://www.w3.org/2000/svg" xml:space="preserve" width="23.9327mm" height="6.3356mm" version="1.1" style="shape-rendering:geometricPrecision; text-rendering:geometricPrecision; image-rendering:optimizeQuality; fill-rule:evenodd; clip-rule:evenodd"
viewBox="0 0 222 59"
 xmlns:xlink="http://www.w3.org/1999/xlink">
 <defs>
  <style type="text/css">
   <![CDATA[
    .fil0 {fill:white}
   ]]>
  </style>
 </defs>
 <g id="Capa_x0020_1">
  <metadata id="CorelCorpID_0Corel-Layer"/>
  <g id="_1920497012880">
   <path class="fil0" d="M12 38l23 -38 18 0 15 25c-6,1 -12,2 -17,3l6 -3 -7 0 8 -8 -11 6 2 -10 -5 9 -6 -16 2 17 -7 -6 4 8 -12 -2 11 5 -7 2 7 1c-8,2 -16,4 -24,7z"/>
   <path class="fil0" d="M18 59l-18 0 9 -15c9,-3 19,-5 29,-7l2 0c1,-1 2,-1 3,-1l2 0c2,-1 3,-1 4,-1l2 0c7,-1 14,-2 21,-3l16 27 -19 0 -8 -14 -36 0 -7 14z"/>
   <path class="fil0" d="M146 0l0 10 -28 0c-7,0 -12,1 -15,4 -2,2 -4,5 -5,9 -6,0 -13,0 -19,1 1,-7 4,-12 8,-16 6,-5 16,-8 30,-8l29 0z"/>
   <path class="fil0" d="M97 30l0 1c0,8 2,12 6,15 3,2 8,2 15,2l28 0 0 11 -29 0c-25,0 -38,-9 -38,-28 6,0 12,0 18,-1z"/>
   <path class="fil0" d="M205 37l-1 -37 18 0 0 43c-6,-3 -11,-5 -17,-6z"/>
   <path class="fil0" d="M204 42l1 0 0 0c6,1 11,3 17,4l0 13 -20 0 -17 -22c6,2 13,3 19,5z"/>
   <path class="fil0" d="M150 25l0 -25 22 0 27 35c-6,-2 -13,-4 -20,-5l-12 -16 0 13c-6,-1 -12,-2 -17,-2z"/>
   <path class="fil0" d="M167 59l-17 0 0 -27c5,1 11,1 17,2l0 25z"/>
  </g>
 </g>
</svg>
