<?xml version="1.0" encoding="UTF-8"?>
<!DOCTYPE svg PUBLIC "-//W3C//DTD SVG 1.1//EN" "http://www.w3.org/Graphics/SVG/1.1/DTD/svg11.dtd">
<!-- Creator: CorelDRAW X8 -->
<svg xmlns="http://www.w3.org/2000/svg" xml:space="preserve" width="53.7283mm" height="14.1286mm" version="1.1" style="shape-rendering:geometricPrecision; text-rendering:geometricPrecision; image-rendering:optimizeQuality; fill-rule:evenodd; clip-rule:evenodd"
viewBox="0 0 255 67"
 xmlns:xlink="http://www.w3.org/1999/xlink">
 <defs>
  <style type="text/css">
   <![CDATA[
    .fil0 {fill:#0B71B5}
    .fil1 {fill:black;fill-rule:nonzero}
   ]]>
  </style>
 </defs>
 <g id="Capa_x0020_1">
  <metadata id="CorelCorpID_0Corel-Layer"/>
  <g id="_2110620639248">
   <path class="fil0" d="M4 41c0,3 1,4 4,4l21 0c3,0 4,-1 4,-4l0 -7 -7 0 0 3c0,0 -1,1 -2,1l-10 0c-1,0 -2,-1 -2,-1l0 -11 15 0 0 -7 -15 0 0 -12 11 0c0,0 1,1 1,1l0 3 7 0 0 -7c0,-3 -1,-4 -4,-4l-27 0 0 7 4 0 0 34zm220 17l-3 6c0,0 3,3 8,3 5,0 10,-2 12,-8l12 -39c0,-1 0,-1 1,-1l1 0 0 -7 -5 0c-2,0 -4,1 -4,3l-6 16c0,2 -1,4 -1,4l0 0c0,0 -1,-2 -1,-4l-7 -16c0,-2 -2,-3 -4,-3l-5 0 0 7 1 0c1,0 1,0 2,1l10 26c0,5 -1,14 -6,14 -3,1 -5,-2 -5,-2zm-36 -29c0,9 7,17 18,17 8,0 13,-5 13,-5l-4 -6c0,0 -3,4 -9,4 -5,0 -9,-3 -9,-9l22 0c0,0 0,-2 0,-3 0,-8 -5,-15 -14,-15 -10,0 -17,7 -17,17zm9 -4c1,-4 4,-7 8,-7 3,0 6,3 6,7l-14 0zm-30 20l8 0 0 -13c0,-2 0,-4 0,-5 2,-5 6,-7 9,-7 1,0 2,0 2,0l0 -8c0,0 -1,0 -1,0 -5,0 -9,4 -11,9l0 0c0,0 0,-1 0,-3l0 -1c0,-3 -1,-4 -4,-4l-7 0 0 6 2 0c1,0 2,1 2,2l0 24zm-33 0l8 0 0 -18 15 0 0 -7 -15 0 0 -13 9 0c1,0 1,1 1,1l0 3 8 0 0 -7c0,-3 -1,-4 -4,-4l-26 0 0 7 4 0 0 38zm-36 -4c0,3 1,4 4,4l8 0 0 -7 -3 0c-1,0 -1,0 -1,-1l0 -33c0,-3 -2,-4 -5,-4l-7 0 0 7 2 0c1,0 2,0 2,1l0 33zm-39 -12c0,9 7,17 18,17 8,0 13,-5 13,-5l-4 -6c0,0 -4,4 -9,4 -5,0 -9,-3 -9,-9l22 0c0,0 0,-2 0,-3 0,-8 -5,-15 -14,-15 -10,0 -17,7 -17,17zm9 -4c1,-4 4,-7 8,-7 3,0 6,3 6,7l-14 0zm-28 8c0,11 9,12 13,12 2,0 3,0 3,0l0 -7c0,0 -1,0 -2,0 -2,0 -6,-1 -6,-6l0 -13 7 0 0 -6 -7 0 0 -9 -8 0 0 9 -4 0 0 6 4 0 0 14z"/>
   <path class="fil1" d="M13 66l2 0 -5 -12 -1 0 -5 12 2 0 1 -3 5 0 1 3zm198 0l2 0 -4 -12 -2 0 -4 12 1 0 2 -3 4 0 1 3zm-3 -10c0,0 0,1 0,2l2 3 -4 0 1 -3c1,-1 1,-2 1,-2l0 0zm-22 10l1 0 0 -10 4 0 0 -2 -9 0 0 2 4 0 0 10zm-27 -6c0,4 2,6 6,6 3,0 4,-1 4,-1l-1 -2c0,0 -1,2 -3,2 -3,0 -5,-2 -5,-5 0,-2 2,-4 5,-4 2,0 3,1 3,1l1 -1c0,0 -2,-2 -4,-2 -4,0 -6,3 -6,6zm-21 6l7 0 0 -1 -5 0 0 -4 4 0 0 -1 -4 0 0 -4 5 0 0 -2 -7 0 0 12zm-19 0l2 0 0 -10 4 0 0 -2 -10 0 0 2 4 0 0 10zm-19 0l2 0 0 -12 -2 0 0 12zm-24 -4c0,3 2,4 5,4 2,0 4,-1 4,-4l0 -8 -1 0 0 8c0,2 -2,3 -3,3 -2,0 -3,-1 -3,-3l0 -8 -2 0 0 8zm-26 -2c0,4 2,6 6,6 1,0 2,0 3,-1l2 1 1 -1 -2 -1c1,-1 2,-2 2,-4 0,-3 -3,-6 -6,-6 -4,0 -6,3 -6,6zm1 0c0,-2 2,-4 5,-4 2,0 4,2 4,4 0,1 0,2 -1,3l-1 -1 -1 1 1 1c0,1 -1,1 -2,1 -3,0 -5,-2 -5,-5zm-23 6l2 0 0 -4 2 0 3 4 2 0 -3 -4c0,-1 0,-1 0,-1l0 0c1,0 2,-2 2,-3 0,-2 -1,-3 -2,-3 -1,0 -1,-1 -2,-1l-4 0 0 12zm2 -6l0 -4 2 0c0,0 1,0 1,0 1,0 1,1 1,2 0,1 -1,2 -2,2l-2 0zm-21 -4c0,0 1,1 1,2l1 3 -3 0 1 -3c0,-1 0,-2 0,-2l0 0z"/>
  </g>
 </g>
</svg>
