<?xml version="1.0" encoding="UTF-8"?>
<!DOCTYPE svg PUBLIC "-//W3C//DTD SVG 1.1//EN" "http://www.w3.org/Graphics/SVG/1.1/DTD/svg11.dtd">
<!-- Creator: CorelDRAW X8 -->
<svg xmlns="http://www.w3.org/2000/svg" xml:space="preserve" width="5.1214mm" height="5.1213mm" version="1.1" style="shape-rendering:geometricPrecision; text-rendering:geometricPrecision; image-rendering:optimizeQuality; fill-rule:evenodd; clip-rule:evenodd"
viewBox="0 0 10 10"
 xmlns:xlink="http://www.w3.org/1999/xlink">
 <defs>
  <style type="text/css">
   <![CDATA[
    .fil0 {fill:white;fill-rule:nonzero}
   ]]>
  </style>
 </defs>
 <g id="Capa_x0020_1">
  <metadata id="CorelCorpID_0Corel-Layer"/>
  <path class="fil0" d="M10 5c0,3 -2,5 -5,5 -3,0 -5,-2 -5,-5 0,-3 2,-5 5,-5 3,0 5,2 5,5zm-5 2l0 0 0 -1c0,0 0,0 0,0 0,-1 0,-1 0,-1 0,0 1,0 1,1 0,0 -1,0 -1,0l0 1zm-1 -3l0 -1c0,-1 1,-1 1,-1 1,0 1,0 1,1l0 1 -2 0zm3 0l0 -1c0,-1 -1,-2 -2,-2 -1,0 -2,1 -2,2l0 1 0 0c0,0 0,0 0,0l0 4c0,0 0,0 0,0l4 0c0,0 0,0 0,0l0 -4c0,0 0,0 0,0l0 0z"/>
 </g>
</svg>
